<svg width="512" height="512" viewBox="0 0 512 512" fill="none" xmlns="http://www.w3.org/2000/svg">
<g clip-path="url(#clip0_6056_1440)">
<rect width="512" height="512" rx="256" fill="black"/>
<path d="M272.354 224.635C272.911 225.064 273.472 225.488 274.036 225.909V225.91L273.718 226.336C274.284 226.758 274.854 227.176 275.428 227.589L275.738 227.157V227.156C276.309 227.567 276.883 227.973 277.461 228.374V228.376L277.158 228.812C277.739 229.215 278.323 229.614 278.91 230.006L279.206 229.563V229.562C279.791 229.953 280.38 230.339 280.972 230.718V230.719L280.686 231.167C281.281 231.548 281.88 231.924 282.482 232.293L282.761 231.839V231.838C283.361 232.205 283.964 232.567 284.571 232.922V232.923L284.304 233.382C284.915 233.739 285.529 234.089 286.147 234.432L286.405 233.967V233.966C287.021 234.307 287.64 234.641 288.263 234.968V234.97L288.016 235.44C288.642 235.77 289.273 236.091 289.906 236.404L290.143 235.928V235.926C290.774 236.238 291.408 236.542 292.046 236.838V236.84L291.822 237.322C292.465 237.62 293.111 237.91 293.761 238.19L293.972 237.703V237.701C294.618 237.98 295.267 238.251 295.92 238.512V238.514L295.722 239.007C296.38 239.27 297.041 239.524 297.706 239.769L297.89 239.27V239.268C298.55 239.51 299.214 239.744 299.881 239.967V239.968L299.713 240.472C300.385 240.696 301.061 240.911 301.74 241.114L301.893 240.605V240.604C302.566 240.807 303.244 240.997 303.924 241.178V241.18L303.787 241.693C304.472 241.875 305.16 242.047 305.852 242.206L305.972 241.688V241.686C306.656 241.844 307.344 241.989 308.035 242.124V242.128L307.934 242.649C308.629 242.785 309.328 242.91 310.029 243.021L310.113 242.496V242.493C310.807 242.604 311.503 242.702 312.202 242.788V242.791L312.138 243.318C312.841 243.405 313.546 243.479 314.255 243.54L314.301 243.011V243.009C315 243.069 315.701 243.118 316.405 243.152V243.153L316.38 243.685C316.734 243.702 317.089 243.717 317.445 243.728H317.449C317.793 243.736 318.134 243.74 318.473 243.742L318.476 243.211V243.21C319.161 243.214 319.836 243.204 320.501 243.183L320.502 243.185L320.52 243.716C321.211 243.693 321.894 243.657 322.566 243.606L322.526 243.076L322.525 243.074C323.207 243.023 323.879 242.958 324.542 242.878L324.543 242.881L324.606 243.408C325.292 243.326 325.969 243.228 326.637 243.115L326.548 242.592L326.547 242.591C327.219 242.477 327.881 242.347 328.537 242.202L328.538 242.204L328.652 242.724C329.324 242.575 329.988 242.41 330.646 242.229L330.505 241.717L330.504 241.715C331.156 241.535 331.802 241.34 332.442 241.128L332.443 241.129L332.611 241.634C333.26 241.419 333.904 241.187 334.543 240.938L334.351 240.443L334.35 240.44C334.977 240.197 335.6 239.938 336.22 239.662L336.221 239.664L336.438 240.149C337.058 239.873 337.676 239.581 338.291 239.272L338.053 238.798L338.052 238.797C338.65 238.497 339.247 238.18 339.843 237.85L339.845 237.852L340.103 238.316C340.693 237.989 341.283 237.646 341.873 237.288L341.597 236.834L341.596 236.832C342.167 236.486 342.738 236.126 343.311 235.751L343.312 235.752L343.603 236.197C343.885 236.012 344.167 235.823 344.45 235.631L344.451 235.632C344.752 235.43 345.054 235.224 345.357 235.014L345.055 234.577L345.054 234.576C345.641 234.17 346.231 233.748 346.825 233.31L346.826 233.311L347.142 233.739C347.72 233.313 348.302 232.871 348.888 232.414L348.561 231.995L348.56 231.993C349.122 231.554 349.688 231.101 350.258 230.632L350.259 230.633L350.597 231.043C350.876 230.813 351.156 230.579 351.438 230.342L351.694 230.126L351.609 229.801C351.52 229.459 351.43 229.117 351.34 228.775L350.826 228.91H350.824C350.645 228.227 350.465 227.545 350.285 226.864H350.286L350.801 226.729C350.62 226.045 350.438 225.363 350.257 224.682L349.743 224.818H349.741C349.559 224.136 349.378 223.455 349.195 222.774H349.196L349.71 222.637C349.527 221.954 349.343 221.272 349.159 220.592L348.646 220.73H348.645C348.46 220.049 348.276 219.368 348.091 218.688H348.093L348.605 218.549C348.42 217.867 348.233 217.186 348.047 216.506L347.534 216.646H347.532C347.346 215.966 347.16 215.286 346.973 214.607H346.974L347.486 214.466C347.298 213.784 347.11 213.103 346.921 212.424L346.408 212.566H346.406C346.217 211.886 346.029 211.207 345.839 210.529H345.841L346.353 210.386C346.162 209.705 345.971 209.025 345.78 208.347L345.269 208.49H345.266C345.074 207.811 344.884 207.133 344.692 206.456L345.205 206.311C345.012 205.63 344.819 204.951 344.625 204.272L344.113 204.418H344.111C343.918 203.739 343.726 203.061 343.531 202.385L344.043 202.239C343.848 201.559 343.651 200.881 343.455 200.203L342.944 200.351H342.942C342.746 199.673 342.551 198.996 342.354 198.32L342.866 198.172C342.668 197.493 342.47 196.815 342.271 196.138L341.762 196.287H341.76C341.561 195.61 341.363 194.933 341.164 194.258H341.165L341.675 194.107C341.475 193.429 341.274 192.752 341.073 192.076L340.563 192.228H340.562C340.361 191.551 340.16 190.875 339.958 190.2H339.96L340.469 190.048C340.266 189.371 340.063 188.695 339.86 188.02L339.352 188.172H339.35C339.146 187.496 338.943 186.82 338.739 186.146H338.74L339.249 185.992C339.044 185.316 338.839 184.641 338.634 183.967L338.125 184.122H338.123C337.917 183.446 337.711 182.771 337.505 182.098H337.507L338.015 181.941C337.808 181.266 337.6 180.592 337.393 179.919L336.885 180.075H336.884C336.675 179.4 336.466 178.726 336.257 178.053H336.259L336.767 177.896C336.557 177.221 336.347 176.548 336.137 175.876L335.63 176.034H335.629C335.418 175.359 335.206 174.685 334.994 174.013H334.996L335.503 173.854C335.291 173.18 335.079 172.508 334.867 171.837L334.359 171.997C334.146 171.323 333.932 170.65 333.718 169.978H333.72L334.226 169.816C334.011 169.143 333.797 168.471 333.582 167.801L333.075 167.963C332.86 167.29 332.643 166.618 332.427 165.947H332.429L332.935 165.784C332.718 165.112 332.5 164.44 332.283 163.77L331.777 163.934H331.776C331.558 163.261 331.341 162.591 331.122 161.921H331.123L331.629 161.757C331.41 161.085 331.19 160.413 330.97 159.743L330.465 159.909H330.463C330.243 159.238 330.023 158.569 329.803 157.9H329.804L330.309 157.734C330.087 157.063 329.865 156.392 329.643 155.723L329.138 155.89H329.136C328.913 155.22 328.693 154.551 328.47 153.884L328.974 153.716C328.749 153.045 328.525 152.375 328.301 151.706L327.797 151.876H327.795C327.57 151.206 327.345 150.538 327.119 149.871H327.121L327.625 149.701C327.399 149.031 327.171 148.363 326.944 147.695L326.441 147.866H326.439C326.212 147.197 325.985 146.53 325.757 145.863H325.758L326.261 145.691C326.032 145.023 325.803 144.355 325.574 143.689L325.071 143.862C324.841 143.194 324.609 142.527 324.379 141.861H324.381L324.883 141.688C324.652 141.02 324.421 140.354 324.189 139.689L323.688 139.863C323.455 139.195 323.221 138.529 322.988 137.864H322.989L323.491 137.688C323.258 137.022 323.024 136.356 322.79 135.691L322.287 135.868C322.052 135.201 321.817 134.536 321.582 133.872H321.583L322.085 133.694C321.849 133.028 321.612 132.363 321.376 131.699L320.875 131.878H320.873C320.636 131.213 320.4 130.548 320.163 129.886L320.664 129.707C320.425 129.041 320.186 128.376 319.947 127.713L319.447 127.893H319.445C319.206 127.228 318.967 126.566 318.728 125.904L319.229 125.723C318.988 125.058 318.746 124.394 318.505 123.731L318.006 123.914H318.004C317.762 123.25 317.52 122.587 317.277 121.926H317.279L317.778 121.743C317.535 121.08 317.292 120.417 317.049 119.757L316.55 119.941H316.549C316.304 119.277 316.058 118.615 315.813 117.954H315.815L316.314 117.77C316.069 117.107 315.823 116.446 315.577 115.786L315.078 115.973C314.831 115.31 314.583 114.648 314.336 113.988H314.338L314.836 113.802C314.802 113.712 314.768 113.621 314.734 113.531H315.001V113H317.069V113.531H319.138V113H321.206V113.531H323.274V113H325.343V113.531H327.411V113H329.479V113.531H331.548V113H333.616V113.531H335.685V113H337.753V113.531H339.821V113H341.89V113.531H343.958V113H346.026V113.531H348.095V113H350.163V113.531H352.23V113H354.299V113.531H354.853C354.872 113.721 354.891 113.911 354.91 114.102L355.439 114.048V114.047C355.511 114.746 355.582 115.448 355.655 116.15V116.151L355.127 116.206C355.199 116.905 355.272 117.606 355.347 118.308L355.875 118.251L355.876 118.25C355.95 118.95 356.024 119.652 356.1 120.354V120.355L355.571 120.413C355.647 121.111 355.723 121.811 355.8 122.512L356.328 122.453L356.329 122.452C356.406 123.151 356.483 123.852 356.562 124.555V124.556L356.033 124.614C356.111 125.313 356.191 126.013 356.271 126.714L356.799 126.653L356.8 126.652C356.879 127.351 356.96 128.051 357.041 128.752V128.753L356.513 128.814C356.594 129.513 356.676 130.213 356.759 130.915L357.286 130.853L357.287 130.852C357.37 131.549 357.454 132.248 357.538 132.948L357.537 132.949L357.009 133.013C357.093 133.712 357.178 134.413 357.264 135.114L357.792 135.05V135.049C357.877 135.746 357.965 136.444 358.052 137.144L358.05 137.145L357.522 137.21C357.609 137.909 357.697 138.609 357.786 139.311L358.313 139.244V139.243C358.402 139.94 358.492 140.637 358.582 141.336L358.581 141.337L358.054 141.405C358.144 142.103 358.235 142.803 358.326 143.504L358.853 143.435L358.854 143.434C358.945 144.13 359.037 144.828 359.13 145.527L359.129 145.528L358.602 145.599C358.694 146.296 358.787 146.995 358.882 147.694L359.409 147.623L359.41 147.622C359.504 148.319 359.599 149.017 359.694 149.716L359.693 149.717L359.167 149.789C359.262 150.486 359.359 151.184 359.456 151.883L359.982 151.81L359.983 151.809C360.08 152.505 360.178 153.203 360.276 153.902L360.275 153.903L359.749 153.978C359.847 154.673 359.947 155.371 360.047 156.069L360.573 155.994L360.574 155.993C360.674 156.69 360.773 157.388 360.875 158.087V158.088L360.349 158.164C360.45 158.859 360.551 159.556 360.654 160.254L361.181 160.177L361.182 160.176C361.284 160.872 361.387 161.57 361.491 162.269V162.27L360.966 162.348C361.07 163.042 361.174 163.739 361.279 164.436L361.806 164.356L361.807 164.355C361.912 165.052 362.018 165.749 362.125 166.447V166.448L361.6 166.529C361.706 167.223 361.813 167.919 361.922 168.615L362.447 168.533L362.448 168.532C362.557 169.228 362.664 169.925 362.774 170.623V170.624L362.25 170.707C362.359 171.401 362.47 172.096 362.581 172.792L363.105 172.708L363.107 172.707C363.219 173.402 363.329 174.099 363.442 174.796L363.441 174.797L362.917 174.882C363.029 175.575 363.143 176.27 363.257 176.966L363.781 176.88L363.783 176.879C363.897 177.573 364.01 178.269 364.126 178.966V178.967L363.602 179.054C363.717 179.747 363.833 180.442 363.95 181.138L364.475 181.049L364.476 181.048C364.592 181.742 364.709 182.438 364.827 183.134V183.135L364.303 183.224C364.421 183.917 364.54 184.611 364.66 185.306L365.184 185.216L365.186 185.215C365.305 185.908 365.425 186.603 365.546 187.298L365.545 187.299L365.021 187.391C365.142 188.083 365.264 188.777 365.387 189.472L365.91 189.379L365.912 189.378C366.034 190.071 366.157 190.765 366.281 191.46L366.28 191.461L365.757 191.555C365.881 192.247 366.005 192.94 366.131 193.634L366.654 193.539L366.655 193.538C366.78 194.23 366.905 194.924 367.032 195.618V195.619L366.509 195.715C366.635 196.406 366.763 197.099 366.892 197.793L367.414 197.696L367.416 197.695C367.544 198.387 367.672 199.08 367.802 199.774L367.801 199.775L367.278 199.873C367.408 200.564 367.538 201.256 367.669 201.949L368.191 201.851L368.193 201.85C368.324 202.541 368.454 203.234 368.587 203.927V203.928L368.064 204.028C368.197 204.719 368.33 205.41 368.464 206.103L368.985 206.002L368.987 206.001C369.121 206.692 369.254 207.384 369.39 208.076L369.389 208.077L368.867 208.18C369.002 208.87 369.138 209.56 369.274 210.252L369.796 210.149L369.798 210.148C369.934 210.839 370.07 211.53 370.208 212.223V212.224L369.688 212.328C369.825 213.017 369.963 213.707 370.103 214.398L370.624 214.294L370.626 214.293C370.765 214.983 370.904 215.674 371.045 216.366L371.044 216.367L370.523 216.474C370.664 217.162 370.805 217.852 370.947 218.542L371.468 218.435L371.47 218.434C371.612 219.123 371.754 219.814 371.897 220.506V220.507L371.377 220.615C371.52 221.303 371.665 221.992 371.81 222.682L372.329 222.572L372.331 222.571C372.476 223.26 372.62 223.951 372.767 224.642V224.643L372.247 224.753C372.393 225.44 372.54 226.128 372.688 226.817L373.207 226.706L373.209 226.705C373.357 227.394 373.504 228.083 373.653 228.773V228.774L373.134 228.887C373.283 229.574 373.431 230.262 373.582 230.95L374.102 230.837L374.104 230.836C374.254 231.524 374.404 232.212 374.557 232.901L374.556 232.902L374.037 233.017C374.189 233.703 374.341 234.391 374.494 235.079L375.013 234.964L375.015 234.963C375.168 235.65 375.321 236.337 375.476 237.025V237.026L374.957 237.144C375.111 237.83 375.267 238.517 375.423 239.205L375.941 239.087L375.942 239.086C376.098 239.772 376.254 240.459 376.412 241.146L376.411 241.147L375.894 241.267C375.941 241.475 375.989 241.683 376.037 241.891L375.987 241.916L376.081 242.324C376.161 242.672 376.242 243.02 376.322 243.367L376.84 243.247L376.842 243.246C377.003 243.94 377.164 244.633 377.326 245.325L377.325 245.326L376.808 245.447C376.97 246.141 377.133 246.833 377.296 247.524L377.813 247.402V247.401C377.978 248.096 378.144 248.788 378.309 249.48L378.307 249.481L377.79 249.604C377.955 250.297 378.12 250.989 378.286 251.679L378.803 251.554V251.553C378.97 252.247 379.14 252.939 379.308 253.631L379.306 253.632L378.789 253.758C378.957 254.45 379.126 255.141 379.295 255.831L379.811 255.704L379.812 255.703C379.981 256.396 380.153 257.087 380.323 257.777L380.321 257.778L379.805 257.906C379.976 258.598 380.147 259.289 380.319 259.979L380.835 259.85L380.837 259.849C381.009 260.54 381.181 261.23 381.354 261.919L381.354 261.92L380.838 262.05C381.012 262.741 381.186 263.432 381.361 264.121L381.877 263.991L381.879 263.99C382.054 264.68 382.227 265.369 382.403 266.057V266.058L381.889 266.189C382.066 266.881 382.243 267.571 382.421 268.26L382.936 268.127L382.938 268.126C383.115 268.815 383.29 269.503 383.469 270.189H383.47L382.955 270.324C383.135 271.015 383.315 271.705 383.496 272.394L384.011 272.259L384.013 272.258C384.193 272.946 384.373 273.633 384.555 274.319L384.554 274.32L384.04 274.456C384.223 275.146 384.405 275.835 384.589 276.522L385.103 276.386L385.104 276.385C385.288 277.073 385.472 277.76 385.656 278.445L385.655 278.446L385.142 278.585C385.327 279.274 385.513 279.961 385.699 280.647L386.212 280.508L386.213 280.507C386.399 281.195 386.587 281.881 386.774 282.566L386.772 282.567L386.26 282.708C386.448 283.395 386.636 284.082 386.825 284.767L387.338 284.625L387.339 284.624C387.528 285.312 387.719 285.998 387.909 286.683L387.907 286.684L387.396 286.826C387.586 287.512 387.777 288.198 387.969 288.882L388.48 288.738L388.481 288.737C388.674 289.424 388.867 290.11 389.061 290.794L389.06 290.795L388.548 290.939C388.741 291.625 388.935 292.309 389.129 292.991L389.641 292.846V292.845C389.836 293.531 390.033 294.216 390.229 294.9L390.228 294.901L389.717 295.048C389.913 295.732 390.11 296.415 390.307 297.097L390.817 296.949V296.948C391.016 297.634 391.216 298.319 391.415 299.002L391.413 299.003L390.902 299.151C391.101 299.835 391.301 300.517 391.501 301.198L392.011 301.049V301.048C392.212 301.733 392.415 302.416 392.617 303.099L392.615 303.1L392.105 303.25C392.307 303.933 392.509 304.615 392.712 305.295L393.222 305.144L393.223 305.143C393.426 305.826 393.632 306.508 393.836 307.189L393.834 307.19L393.325 307.344C393.53 308.026 393.735 308.707 393.94 309.387L394.449 309.233L394.45 309.232C394.657 309.915 394.864 310.596 395.071 311.276L395.069 311.277L394.562 311.432C394.769 312.113 394.977 312.795 395.186 313.474L395.693 313.317L395.694 313.316C395.904 313.998 396.113 314.678 396.323 315.357L396.322 315.358L395.814 315.516C396.025 316.197 396.236 316.876 396.447 317.555L396.954 317.396L396.956 317.396C397.168 318.076 397.38 318.756 397.593 319.434L397.592 319.435L397.084 319.594C397.297 320.274 397.512 320.953 397.726 321.63L398.232 321.47L398.233 321.469C398.448 322.149 398.663 322.827 398.879 323.504L398.878 323.505L398.371 323.666C398.587 324.346 398.804 325.024 399.021 325.701L399.527 325.539L399.528 325.538C399.746 326.217 399.964 326.894 400.182 327.569L400.181 327.57L399.675 327.733C399.894 328.412 400.113 329.09 400.333 329.766L400.838 329.602L400.84 329.601C401.06 330.278 401.28 330.955 401.501 331.63L401.5 331.631L400.995 331.796C401.217 332.474 401.439 333.15 401.661 333.825L402.166 333.659L402.168 333.658C402.391 334.335 402.614 335.011 402.838 335.685L402.837 335.686L402.332 335.853C402.557 336.53 402.782 337.206 403.007 337.88L403.511 337.711L403.513 337.71C403.739 338.386 403.965 339.06 404.191 339.733L404.189 339.734L403.686 339.904C403.913 340.58 404.141 341.255 404.369 341.928L404.872 341.757L404.874 341.756C405.103 342.431 405.331 343.105 405.561 343.777L405.56 343.778L405.057 343.95C405.287 344.625 405.517 345.299 405.748 345.971L406.25 345.798L406.251 345.797C406.483 346.471 406.714 347.144 406.946 347.815V347.816L406.443 347.99C406.676 348.664 406.91 349.336 407.144 350.007L407.646 349.833V349.832C407.88 350.506 408.116 351.177 408.351 351.848L408.35 351.849L407.848 352.024C408.083 352.697 408.32 353.369 408.556 354.038L409.057 353.861L409.058 353.86C409.295 354.533 409.533 355.204 409.771 355.874L409.77 355.875L409.269 356.053C409.507 356.724 409.745 357.395 409.983 358.063L410.484 357.884V357.883C410.725 358.555 410.965 359.226 411.206 359.895L411.205 359.896L410.705 360.076C410.946 360.746 411.187 361.415 411.429 362.082L411.929 361.9V361.899C412.172 362.571 412.417 363.241 412.66 363.909L412.658 363.91L412.159 364.093C412.403 364.762 412.647 365.429 412.891 366.095L413.39 365.912V365.911C413.636 366.582 413.884 367.251 414.13 367.918L414.128 367.919L413.63 368.103C413.877 368.771 414.123 369.439 414.37 370.104L414.868 369.918L414.869 369.917C415.118 370.587 415.367 371.254 415.616 371.92L415.614 371.921L415.116 372.106C415.366 372.774 415.616 373.441 415.866 374.105L416.363 373.918L416.364 373.917C416.615 374.585 416.867 375.251 417.118 375.915L417.117 375.916L416.62 376.104C416.662 376.214 416.704 376.324 416.745 376.434L416.408 376.46L416.448 376.99L414.356 377.148L414.316 376.618L412.226 376.777L412.266 377.307L410.174 377.465L410.134 376.936L408.042 377.094L408.081 377.623L405.989 377.781L405.95 377.252L403.858 377.41L403.899 377.94L401.808 378.099L401.768 377.568L399.676 377.727L399.716 378.257L397.624 378.415L397.584 377.886L395.492 378.044L395.532 378.573L393.44 378.731L393.401 378.202L391.31 378.36L391.35 378.891L389.258 379.049L389.218 378.519L387.126 378.677L387.166 379.207L385.075 379.365L385.034 378.835L382.943 378.994L382.983 379.523L380.892 379.682L380.852 379.152L380.311 379.192C380.287 379.001 380.264 378.808 380.24 378.616L379.713 378.682H379.71C379.621 377.964 379.531 377.244 379.439 376.523H379.442L379.97 376.457C379.879 375.739 379.787 375.019 379.694 374.298L379.167 374.365H379.165C379.073 373.647 378.977 372.928 378.883 372.208H378.886L379.413 372.139C379.319 371.421 379.224 370.702 379.128 369.981L378.6 370.052C378.504 369.334 378.404 368.616 378.307 367.896H378.311L378.837 367.824C378.74 367.107 378.641 366.388 378.542 365.668L378.016 365.74H378.014C377.915 365.023 377.814 364.305 377.713 363.586H377.716L378.242 363.512C378.142 362.795 378.04 362.076 377.938 361.356L377.411 361.432H377.41C377.308 360.715 377.204 359.997 377.101 359.278H377.104L377.629 359.202C377.526 358.485 377.422 357.767 377.316 357.048L376.79 357.125H376.787C376.682 356.409 376.577 355.691 376.471 354.973H376.474L376.999 354.896C376.893 354.179 376.786 353.461 376.678 352.742L376.152 352.821H376.149C376.042 352.105 375.935 351.388 375.826 350.67L376.354 350.591C376.245 349.875 376.135 349.157 376.024 348.438L375.499 348.52H375.496C375.386 347.804 375.277 347.088 375.165 346.37L375.691 346.288C375.58 345.573 375.468 344.856 375.355 344.138L374.83 344.221H374.827C374.715 343.506 374.602 342.79 374.488 342.072H374.49L375.015 341.988C374.958 341.631 374.901 341.272 374.844 340.914L374.679 339.885L373.942 340.622L373.931 340.634L374.297 341L374.253 341.007L373.905 340.659L373.894 340.671L373.872 340.693L373.853 340.717L373.248 341.479L373.664 341.809L372.456 343.333L372.04 343.003L370.832 344.527L371.248 344.857L370.04 346.382L369.624 346.052L369.02 346.814L369.018 346.817L368.386 347.625L368.805 347.952L367.542 349.568L367.123 349.241L365.86 350.856L366.279 351.185L365.017 352.8L364.598 352.473L363.335 354.089L363.754 354.416L362.49 356.032L362.072 355.705L360.809 357.32L361.228 357.648L359.965 359.264L359.546 358.937L358.283 360.553L358.702 360.88L357.439 362.496L357.021 362.169L355.758 363.785L356.176 364.111L354.914 365.728L354.495 365.4L353.232 367.017L353.65 367.343L352.388 368.959L351.97 368.633L350.707 370.249L351.125 370.575L349.861 372.191L349.444 371.864L348.181 373.48L348.6 373.808L347.336 375.423L346.918 375.097L345.655 376.713L346.073 377.039L344.811 378.655L344.393 378.328L343.963 378.878C343.741 378.835 343.516 378.791 343.288 378.745L343.183 379.266C342.542 379.135 341.878 378.994 341.19 378.841L341.307 378.322C340.667 378.18 340.008 378.027 339.33 377.863L339.206 378.38H339.205C338.564 378.225 337.905 378.061 337.231 377.888L337.364 377.374C336.725 377.21 336.071 377.037 335.403 376.855L335.264 377.366C334.621 377.192 333.966 377.01 333.3 376.819L333.446 376.309C332.808 376.126 332.158 375.937 331.499 375.739L331.347 376.246C330.707 376.054 330.057 375.855 329.398 375.649L329.558 375.145C328.921 374.945 328.276 374.739 327.623 374.526L327.459 375.03C326.821 374.823 326.176 374.609 325.524 374.389L325.694 373.886C325.061 373.672 324.422 373.451 323.776 373.225L323.601 373.725C322.966 373.502 322.326 373.274 321.681 373.039L321.862 372.541C321.233 372.312 320.598 372.077 319.958 371.837L319.771 372.333C319.141 372.096 318.507 371.853 317.869 371.605L318.062 371.112C317.435 370.869 316.805 370.621 316.171 370.366L315.974 370.858C315.348 370.607 314.719 370.351 314.087 370.089L314.29 369.6C313.669 369.343 313.046 369.08 312.419 368.812L312.21 369.3C311.59 369.035 310.967 368.765 310.342 368.49L310.556 368.006C309.94 367.735 309.321 367.459 308.7 367.178L308.48 367.66C307.865 367.381 307.248 367.098 306.629 366.81L306.854 366.329C306.245 366.045 305.633 365.754 305.02 365.46L304.789 365.938C304.18 365.645 303.57 365.348 302.959 365.046L303.194 364.571C302.891 364.421 302.588 364.27 302.284 364.118L302.283 364.117C301.968 363.96 301.653 363.801 301.338 363.641L301.098 364.111C300.468 363.791 299.837 363.467 299.206 363.137L299.452 362.667C298.828 362.34 298.204 362.007 297.579 361.67L297.326 362.137C296.705 361.801 296.084 361.459 295.462 361.112L295.721 360.65C295.105 360.308 294.489 359.96 293.874 359.606L293.61 360.064C292.997 359.712 292.385 359.355 291.772 358.993L292.042 358.538C291.435 358.179 290.83 357.815 290.225 357.445L289.947 357.897C289.343 357.529 288.74 357.155 288.138 356.776L288.421 356.328C287.824 355.953 287.229 355.572 286.635 355.187L286.345 355.631C285.751 355.246 285.16 354.854 284.569 354.459L284.864 354.02C284.278 353.627 283.694 353.23 283.111 352.827L282.811 353.262C282.228 352.859 281.648 352.452 281.069 352.039L281.377 351.609C280.803 351.2 280.23 350.785 279.66 350.365L279.346 350.791C278.775 350.371 278.207 349.946 277.642 349.516L277.963 349.095C277.401 348.668 276.842 348.235 276.286 347.798L275.958 348.215C275.401 347.777 274.847 347.334 274.296 346.886L274.632 346.475C274.085 346.03 273.54 345.579 272.999 345.124L272.657 345.528C272.115 345.072 271.577 344.61 271.042 344.144L271.39 343.746C270.858 343.283 270.329 342.814 269.804 342.341L269.448 342.734C268.922 342.26 268.399 341.78 267.881 341.295L268.244 340.907C267.729 340.425 267.217 339.938 266.71 339.446L266.34 339.827C265.831 339.334 265.327 338.835 264.827 338.331L265.204 337.957C264.707 337.456 264.214 336.95 263.727 336.439L263.342 336.807C262.852 336.294 262.368 335.776 261.888 335.253L262.279 334.895C261.802 334.375 261.33 333.85 260.863 333.32L260.465 333.671C259.996 333.139 259.533 332.603 259.074 332.061L259.479 331.719C259.024 331.181 258.575 330.636 258.13 330.088L257.717 330.422C257.271 329.871 256.83 329.316 256.395 328.755L256.814 328.43C256.598 328.151 256.384 327.871 256.171 327.59L255.747 327.031L255.323 327.59C255.114 327.866 254.903 328.142 254.691 328.416L255.111 328.741C254.685 329.292 254.252 329.836 253.815 330.377L253.403 330.044C252.968 330.583 252.527 331.118 252.081 331.646L252.486 331.987C252.037 332.52 251.584 333.047 251.125 333.569L250.727 333.22C250.269 333.741 249.806 334.257 249.339 334.768L249.73 335.125C249.261 335.639 248.787 336.149 248.309 336.652L247.924 336.286C247.446 336.789 246.963 337.286 246.477 337.779L246.854 338.152C246.365 338.648 245.871 339.138 245.374 339.623L245.004 339.244C244.508 339.729 244.007 340.208 243.503 340.683L243.866 341.068C243.359 341.546 242.848 342.019 242.333 342.486L241.977 342.094C241.463 342.56 240.946 343.021 240.426 343.478L240.773 343.875C240.25 344.334 239.723 344.789 239.192 345.238L238.852 344.836C238.322 345.284 237.79 345.728 237.255 346.167L237.589 346.575C237.05 347.017 236.509 347.455 235.964 347.887L235.635 347.473C235.091 347.904 234.546 348.33 233.997 348.751L234.319 349.171C233.766 349.596 233.211 350.017 232.652 350.432L232.336 350.006C231.779 350.42 231.22 350.828 230.659 351.232L230.969 351.662C230.402 352.07 229.833 352.473 229.263 352.871L228.96 352.438C228.391 352.835 227.82 353.228 227.247 353.615L227.543 354.053C226.965 354.444 226.386 354.83 225.805 355.211L225.516 354.77C224.934 355.151 224.351 355.528 223.768 355.899L224.051 356.345C223.463 356.719 222.874 357.089 222.284 357.454L222.007 357.004C221.414 357.37 220.821 357.732 220.227 358.088L220.499 358.543C219.902 358.901 219.304 359.254 218.705 359.603L218.438 359.145C217.836 359.495 217.233 359.841 216.63 360.182L216.891 360.643C216.283 360.986 215.674 361.324 215.066 361.657L214.812 361.194C214.202 361.529 213.591 361.859 212.981 362.184L213.229 362.65C212.612 362.979 211.996 363.303 211.38 363.622L211.137 363.152C210.519 363.472 209.903 363.786 209.287 364.095L209.524 364.569C208.898 364.884 208.272 365.193 207.647 365.497L207.415 365.021C206.789 365.326 206.164 365.626 205.541 365.921L205.767 366.399C205.134 366.699 204.503 366.993 203.874 367.281L203.653 366.8C203.018 367.091 202.385 367.378 201.754 367.659L201.969 368.143C201.331 368.427 200.695 368.706 200.062 368.979L199.853 368.492C199.209 368.77 198.569 369.042 197.932 369.309L198.136 369.797C197.488 370.068 196.845 370.333 196.204 370.593L196.005 370.102C195.359 370.363 194.717 370.619 194.079 370.869L194.272 371.363C193.616 371.621 192.963 371.872 192.315 372.117L192.128 371.622C191.473 371.871 190.822 372.113 190.177 372.35L190.358 372.848C189.7 373.089 189.048 373.324 188.401 373.553L188.226 373.053C187.562 373.288 186.904 373.515 186.253 373.737L186.423 374.238C185.754 374.466 185.094 374.69 184.44 374.904L184.274 374.399C183.607 374.618 182.947 374.83 182.296 375.035L182.454 375.54C181.783 375.751 181.121 375.957 180.468 376.153L180.315 375.645C179.637 375.849 178.968 376.047 178.312 376.235L178.457 376.744C177.773 376.941 177.101 377.13 176.441 377.31L176.303 376.798C175.617 376.985 174.946 377.164 174.29 377.333L174.422 377.847C173.73 378.025 173.054 378.193 172.396 378.353L172.271 377.837C171.576 378.005 170.901 378.162 170.246 378.309L170.361 378.826C169.656 378.984 168.974 379.13 168.318 379.264L168.214 378.744C167.984 378.791 167.756 378.835 167.532 378.879L167.102 378.328L166.683 378.655L165.42 377.039L165.839 376.713L164.576 375.097L164.157 375.423L162.894 373.808L163.313 373.48L162.051 371.864L161.632 372.191L160.369 370.575L160.787 370.249L159.524 368.633L159.105 368.959L157.843 367.343L158.262 367.017L156.999 365.4L156.58 365.727L155.317 364.111L155.736 363.785L154.474 362.169L154.055 362.495L152.792 360.879L153.211 360.553L151.948 358.937L151.528 359.264L150.267 357.647L150.686 357.32L149.423 355.705L149.003 356.032L147.74 354.416L148.159 354.089L146.896 352.473L146.478 352.799L145.215 351.184L145.634 350.856L144.371 349.241L143.952 349.567L142.689 347.951L143.108 347.625L142.477 346.817V346.816L142.475 346.814L141.87 346.052L141.453 346.382L140.245 344.857H140.246L140.662 344.527L139.454 343.003L139.037 343.333L137.829 341.809L138.246 341.479L137.642 340.717L137.623 340.693L137.589 340.659L137.24 341.007L137.196 341L137.563 340.634L136.815 339.886L136.65 340.913C136.593 341.272 136.537 341.63 136.479 341.988L137.004 342.071H137.005C136.891 342.789 136.778 343.505 136.665 344.221H136.663L136.139 344.138C136.026 344.856 135.913 345.572 135.802 346.288L136.327 346.37C136.215 347.088 136.106 347.804 135.996 348.52H135.994L135.469 348.438C135.358 349.157 135.249 349.874 135.14 350.59L135.665 350.67C135.556 351.388 135.45 352.105 135.343 352.821H135.34L134.814 352.742C134.707 353.461 134.599 354.178 134.493 354.895L135.02 354.973H135.021C134.914 355.691 134.809 356.409 134.704 357.125H134.702L134.177 357.048C134.072 357.767 133.967 358.485 133.863 359.202L134.39 359.277H134.392C134.288 359.997 134.184 360.715 134.082 361.432H134.081L133.555 361.356C133.452 362.076 133.351 362.795 133.251 363.512L133.777 363.586H133.779C133.679 364.305 133.577 365.023 133.479 365.74L132.951 365.668C132.852 366.388 132.754 367.107 132.656 367.824L133.184 367.896H133.186C133.088 368.615 132.988 369.334 132.893 370.051L132.366 369.981C132.27 370.702 132.175 371.421 132.081 372.139L132.607 372.208H132.61C132.516 372.928 132.421 373.647 132.328 374.365H132.327L131.8 374.298C131.707 375.019 131.615 375.739 131.524 376.457L132.052 376.523H132.054C131.963 377.244 131.872 377.964 131.783 378.682H131.781L131.254 378.616C131.23 378.808 131.206 379 131.183 379.192L130.643 379.152L130.603 379.682H130.602L128.51 379.523H128.511L128.551 378.994L126.46 378.835L126.42 379.365H126.419L124.327 379.207H124.328L124.368 378.677L122.276 378.519L122.236 379.049H122.235L120.144 378.891H120.145L120.185 378.36L118.094 378.202L118.053 378.731L115.961 378.573H115.962L116.002 378.044L113.91 377.886L113.87 378.415H113.869L111.777 378.257H111.778L111.818 377.727L109.727 377.568L109.687 378.099H109.686L107.595 377.94H107.596L107.636 377.41L105.544 377.252L105.504 377.781L103.412 377.623L103.452 377.094L101.36 376.936L101.32 377.465H101.319L99.2275 377.307H99.2285L99.2695 376.777L97.1777 376.618L97.1377 377.148H97.1367L95.0449 376.99H95.0459L95.0859 376.46L94.748 376.434C94.7896 376.324 94.8324 376.214 94.874 376.104L94.377 375.916L94.375 375.915C94.6264 375.251 94.8777 374.585 95.1289 373.917L95.1309 373.918L95.6289 374.104C95.8787 373.44 96.1283 372.774 96.3779 372.106L95.8799 371.92L95.8779 371.919C96.1268 371.253 96.3764 370.586 96.625 369.916L96.626 369.917L97.124 370.103C97.371 369.437 97.6185 368.77 97.8652 368.102L97.3662 367.918L97.3633 367.917C97.6096 367.249 97.8574 366.58 98.1035 365.909L98.1045 365.91L98.6035 366.093C98.8476 365.427 99.0922 364.76 99.3359 364.091L98.8359 363.909L98.834 363.908C99.0776 363.24 99.3222 362.57 99.5654 361.897L99.5664 361.898L100.065 362.08C100.307 361.413 100.549 360.744 100.79 360.073L100.289 359.894L100.287 359.893C100.528 359.224 100.77 358.553 101.01 357.881L101.011 357.882L101.511 358.061C101.749 357.392 101.988 356.722 102.227 356.051L101.726 355.873L101.724 355.872C101.961 355.202 102.199 354.531 102.437 353.857L102.438 353.858L102.939 354.035C103.176 353.366 103.412 352.694 103.647 352.021L103.146 351.846L103.144 351.845C103.378 351.174 103.614 350.502 103.849 349.828L103.85 349.829L104.352 350.004C104.585 349.333 104.819 348.66 105.052 347.986L104.549 347.812L104.547 347.812C104.779 347.14 105.011 346.467 105.242 345.793L105.244 345.794L105.747 345.967C105.978 345.295 106.208 344.62 106.438 343.945L105.936 343.774L105.934 343.773C106.163 343.101 106.391 342.427 106.62 341.752L106.623 341.753L107.126 341.923C107.354 341.25 107.582 340.576 107.81 339.899L107.306 339.729L107.304 339.729C107.53 339.056 107.756 338.381 107.981 337.705L108.488 337.874C108.713 337.2 108.938 336.525 109.163 335.848L108.658 335.68L108.657 335.679C108.881 335.005 109.103 334.329 109.326 333.652L109.328 333.653L109.833 333.819C110.055 333.144 110.278 332.468 110.5 331.79L109.994 331.625L109.993 331.624C110.214 330.949 110.434 330.272 110.654 329.594L110.656 329.595L111.162 329.76C111.382 329.084 111.6 328.406 111.819 327.727L111.313 327.563L111.312 327.562C111.531 326.887 111.747 326.209 111.965 325.53L111.967 325.531L112.474 325.693C112.69 325.017 112.907 324.338 113.123 323.658L112.616 323.498L112.614 323.497C112.83 322.82 113.045 322.141 113.26 321.461L113.262 321.462L113.769 321.622C113.983 320.945 114.196 320.265 114.409 319.585L113.902 319.426L113.9 319.425C114.113 318.747 114.325 318.068 114.537 317.387L114.539 317.388L115.047 317.546C115.258 316.867 115.468 316.187 115.679 315.506L115.171 315.35L115.169 315.349C115.379 314.67 115.589 313.989 115.798 313.308L115.8 313.309L116.308 313.464C116.516 312.785 116.724 312.104 116.932 311.422L116.423 311.268L116.421 311.267C116.628 310.586 116.836 309.905 117.042 309.222L117.043 309.223L117.552 309.377C117.757 308.697 117.962 308.016 118.167 307.333L117.658 307.181L117.655 307.18C117.86 306.498 118.065 305.816 118.269 305.132L118.27 305.133L118.779 305.284C118.982 304.604 119.184 303.922 119.386 303.239L118.876 303.088L118.874 303.087C119.076 302.405 119.279 301.722 119.479 301.037L119.99 301.187C120.19 300.506 120.389 299.823 120.588 299.14L120.077 298.991L120.074 298.99C120.273 298.306 120.474 297.622 120.672 296.936L120.673 296.937L121.184 297.084C121.38 296.402 121.576 295.719 121.772 295.035L121.262 294.889L121.259 294.888C121.455 294.204 121.652 293.519 121.848 292.832L121.849 292.833L122.36 292.979C122.554 292.296 122.748 291.611 122.941 290.926L122.43 290.781L122.427 290.78C122.62 290.096 122.814 289.41 123.006 288.723L123.007 288.724L123.52 288.867C123.711 288.183 123.901 287.498 124.092 286.812L123.58 286.669L123.577 286.668C123.767 285.983 123.957 285.297 124.146 284.609L124.149 284.61L124.661 284.752C124.85 284.067 125.039 283.38 125.227 282.692L124.714 282.552L124.711 282.551C124.898 281.865 125.085 281.179 125.271 280.491L125.273 280.492L125.787 280.631C125.973 279.945 126.159 279.257 126.344 278.568L125.83 278.431L125.828 278.43C126.012 277.744 126.195 277.056 126.379 276.368L126.382 276.369L126.896 276.506C127.079 275.818 127.261 275.129 127.443 274.439L126.93 274.304L126.928 274.303C127.109 273.617 127.288 272.929 127.469 272.24L127.473 272.241L127.986 272.376C128.167 271.687 128.347 270.997 128.526 270.306L128.013 270.172L128.012 270.171C128.19 269.484 128.366 268.796 128.543 268.107L128.546 268.108L129.061 268.241C129.238 267.552 129.415 266.862 129.592 266.17L129.077 266.038L129.075 266.037C129.251 265.35 129.425 264.661 129.6 263.971L129.603 263.972L130.118 264.102C130.293 263.412 130.467 262.721 130.641 262.029L130.125 261.9L130.123 261.899C130.296 261.21 130.469 260.52 130.641 259.828L130.643 259.829L131.158 259.958C131.33 259.268 131.501 258.577 131.672 257.885L131.156 257.758L131.153 257.757C131.324 257.066 131.495 256.375 131.664 255.682L131.665 255.683L132.182 255.81C132.35 255.119 132.519 254.428 132.687 253.735L132.17 253.61L132.167 253.609C132.335 252.918 132.503 252.225 132.67 251.531L132.671 251.532L133.188 251.656C133.353 250.966 133.519 250.274 133.684 249.582L133.167 249.459L133.163 249.458C133.328 248.766 133.494 248.073 133.658 247.378L133.659 247.379L134.177 247.501C134.34 246.81 134.502 246.116 134.664 245.423L134.146 245.303L134.144 245.302C134.305 244.609 134.466 243.915 134.627 243.221L134.63 243.222L135.147 243.342L135.389 242.299C135.468 241.955 135.547 241.61 135.626 241.267L135.108 241.147L135.105 241.146C135.263 240.459 135.421 239.773 135.577 239.087L135.579 239.088L136.098 239.205C136.254 238.517 136.41 237.831 136.564 237.145L136.046 237.027L136.045 237.026C136.2 236.338 136.353 235.651 136.507 234.964L136.509 234.965L137.028 235.08C137.182 234.392 137.334 233.705 137.486 233.019L136.968 232.903L136.966 232.902C137.118 232.213 137.268 231.524 137.419 230.837L137.422 230.838L137.941 230.951C138.092 230.263 138.243 229.575 138.392 228.889L137.872 228.775L137.87 228.774C138.02 228.085 138.167 227.395 138.314 226.707L138.318 226.708L138.838 226.819C138.986 226.13 139.133 225.442 139.279 224.755L138.759 224.645L138.758 224.644C138.905 223.952 139.049 223.262 139.194 222.572L139.197 222.573L139.717 222.684C139.862 221.994 140.007 221.305 140.15 220.617L139.63 220.509L139.629 220.508C139.773 219.816 139.914 219.125 140.057 218.436L140.06 218.437L140.58 218.544C140.722 217.854 140.863 217.163 141.004 216.475L140.483 216.369L140.482 216.368C140.624 215.676 140.762 214.985 140.901 214.295L140.904 214.296L141.426 214.4C141.565 213.709 141.704 213.019 141.842 212.33L141.32 212.226L141.318 212.225C141.457 211.532 141.593 210.841 141.729 210.15L141.732 210.151L142.254 210.254C142.391 209.562 142.527 208.872 142.662 208.182L142.14 208.08L142.139 208.079C142.274 207.386 142.407 206.694 142.541 206.003L142.544 206.004L143.065 206.104C143.199 205.412 143.333 204.721 143.465 204.03L142.942 203.93L142.941 203.929C143.074 203.235 143.205 202.543 143.336 201.852L143.338 201.853L143.86 201.951C143.991 201.258 144.122 200.566 144.251 199.875L143.729 199.777L143.728 199.776C143.857 199.082 143.985 198.389 144.113 197.697L144.115 197.698L144.639 197.795C144.767 197.101 144.894 196.408 145.021 195.717L144.497 195.622L144.496 195.621C144.623 194.926 144.749 194.233 144.874 193.54L144.876 193.541L145.398 193.636C145.524 192.942 145.649 192.249 145.772 191.557L145.249 191.463L145.248 191.462C145.372 190.767 145.494 190.073 145.616 189.38L145.619 189.381L146.143 189.474C146.265 188.779 146.387 188.085 146.508 187.393L145.984 187.301L145.982 187.3C146.104 186.605 146.223 185.91 146.343 185.217L146.346 185.218L146.869 185.308C146.989 184.613 147.108 183.919 147.226 183.226L146.702 183.136L146.701 183.135C146.82 182.439 146.936 181.744 147.053 181.05L147.055 181.051L147.579 181.14C147.696 180.444 147.812 179.749 147.927 179.056L147.402 178.969L147.401 178.968C147.517 178.271 147.63 177.575 147.744 176.881L147.747 176.882L148.271 176.968C148.386 176.272 148.499 175.577 148.611 174.883L148.086 174.799L148.085 174.798C148.198 174.101 148.309 173.404 148.42 172.709L148.422 172.71L148.947 172.794C149.058 172.098 149.169 171.402 149.278 170.708L148.753 170.625L148.752 170.624C148.862 169.926 148.969 169.23 149.077 168.534L149.08 168.535L149.605 168.616C149.714 167.92 149.821 167.224 149.928 166.53L149.402 166.45L149.401 166.449C149.509 165.751 149.613 165.053 149.719 164.356L149.721 164.357L150.247 164.438C150.353 163.741 150.457 163.044 150.561 162.35L150.035 162.271L150.034 162.27C150.138 161.571 150.24 160.873 150.343 160.177L150.345 160.178L150.871 160.255C150.974 159.557 151.076 158.86 151.177 158.165L150.65 158.089L150.649 158.088C150.751 157.389 150.85 156.691 150.949 155.994L150.952 155.995L151.479 156.07C151.578 155.372 151.677 154.674 151.775 153.979L151.249 153.904L151.247 153.903C151.346 153.204 151.442 152.506 151.539 151.81L151.542 151.811L152.068 151.884C152.165 151.185 152.261 150.487 152.356 149.79L151.83 149.718L151.828 149.717C151.924 149.018 152.018 148.32 152.112 147.623L152.114 147.624L152.641 147.695C152.735 146.995 152.828 146.296 152.921 145.599L152.395 145.529L152.393 145.528C152.485 144.829 152.577 144.131 152.668 143.435L152.67 143.436L153.197 143.504C153.289 142.803 153.379 142.103 153.469 141.405L152.941 141.338L152.939 141.337C153.029 140.638 153.119 139.94 153.207 139.243L153.208 139.244L153.735 139.311C153.824 138.609 153.912 137.909 153.999 137.21L153.472 137.145L153.469 137.144C153.556 136.444 153.643 135.746 153.729 135.05L153.729 135.051L154.257 135.115C154.343 134.413 154.428 133.713 154.512 133.014L153.984 132.95L153.981 132.949C154.066 132.249 154.15 131.549 154.232 130.852L154.233 130.853L154.762 130.915C154.845 130.213 154.927 129.513 155.008 128.814L154.479 128.753L154.478 128.752C154.559 128.051 154.639 127.351 154.719 126.653L154.721 126.654L155.249 126.714C155.329 126.013 155.408 125.313 155.486 124.614L154.958 124.556L154.957 124.555C155.036 123.852 155.113 123.152 155.189 122.452L155.191 122.453L155.72 122.512C155.797 121.811 155.873 121.111 155.948 120.413L155.419 120.355L155.418 120.354C155.494 119.652 155.568 118.95 155.642 118.25L155.644 118.251L156.173 118.308C156.247 117.606 156.32 116.905 156.393 116.206L155.864 116.151L155.862 116.15C155.935 115.448 156.007 114.746 156.078 114.047L156.08 114.048L156.608 114.102C156.628 113.911 156.647 113.721 156.666 113.531H157.22V113H159.288V113.531H161.356V113H163.425V113.531H165.493V113H167.562V113.531H169.63V113H171.698V113.531H173.767V113H175.835V113.531H177.903V113H179.972V113.531H182.039V113H184.107V113.531H186.176V113H188.244V113.531H190.312V113H192.381V113.531H194.449V113H196.518V113.531H196.785C196.751 113.621 196.717 113.712 196.684 113.802L197.181 113.988H197.182C196.934 114.648 196.687 115.309 196.44 115.972H196.439L195.941 115.786C195.696 116.446 195.451 117.107 195.205 117.77L195.703 117.954H195.704C195.459 118.615 195.213 119.276 194.969 119.939L194.471 119.757C194.227 120.417 193.984 121.08 193.741 121.743L194.24 121.926C193.998 122.587 193.756 123.249 193.514 123.913L193.015 123.731C192.773 124.394 192.532 125.058 192.291 125.723L192.79 125.902C192.55 126.564 192.312 127.227 192.072 127.892L191.572 127.712C191.333 128.375 191.094 129.04 190.855 129.706L191.355 129.886C191.118 130.548 190.882 131.212 190.646 131.877H190.645L190.144 131.698C189.907 132.362 189.672 133.027 189.436 133.693L189.937 133.871C189.701 134.535 189.466 135.2 189.231 135.867L188.73 135.69C188.497 136.354 188.263 137.02 188.029 137.687L188.53 137.862H188.531C188.298 138.528 188.065 139.194 187.832 139.862L187.33 139.688C187.099 140.352 186.868 141.018 186.637 141.686L187.14 141.859C186.909 142.525 186.678 143.193 186.448 143.861L185.946 143.688C185.717 144.354 185.488 145.021 185.26 145.689L185.763 145.862C185.535 146.529 185.308 147.196 185.08 147.865H185.079L184.576 147.693C184.349 148.361 184.122 149.029 183.896 149.699L184.399 149.869H184.4C184.175 150.536 183.95 151.204 183.725 151.874H183.724L183.22 151.704C182.995 152.373 182.771 153.043 182.547 153.714L183.051 153.883C182.828 154.55 182.606 155.218 182.384 155.888H182.383L181.879 155.721C181.657 156.39 181.435 157.061 181.213 157.732L181.718 157.898C181.497 158.567 181.278 159.236 181.058 159.907H181.057L180.552 159.741C180.332 160.411 180.113 161.083 179.894 161.755L180.398 161.919H180.399C180.181 162.589 179.963 163.26 179.745 163.932H179.744L179.238 163.768C179.021 164.438 178.805 165.11 178.588 165.782L179.094 165.945H179.095C178.879 166.616 178.662 167.288 178.446 167.961L177.94 167.799C177.726 168.469 177.511 169.141 177.297 169.814L177.804 169.976H177.805C177.591 170.647 177.376 171.32 177.163 171.994L176.656 171.834C176.444 172.505 176.232 173.178 176.021 173.852L176.527 174.011H176.528C176.317 174.683 176.105 175.357 175.895 176.032L175.387 175.873C175.177 176.545 174.968 177.219 174.759 177.894L175.266 178.051H175.267C175.058 178.724 174.849 179.398 174.641 180.073L174.133 179.917C173.925 180.59 173.718 181.264 173.511 181.939L174.019 182.096H174.02C173.813 182.769 173.607 183.444 173.401 184.119H173.4L172.893 183.965C172.687 184.639 172.482 185.314 172.277 185.99L172.786 186.145H172.787C172.583 186.819 172.38 187.494 172.177 188.17H172.176L171.666 188.018C171.463 188.693 171.261 189.369 171.059 190.046L171.567 190.198H171.568C171.367 190.873 171.167 191.549 170.966 192.226H170.965L170.455 192.074C170.255 192.75 170.054 193.427 169.854 194.105L170.364 194.256C170.165 194.931 169.967 195.608 169.769 196.285H169.768L169.258 196.136C169.06 196.813 168.862 197.491 168.664 198.17L169.174 198.317C168.977 198.993 168.783 199.671 168.587 200.349H168.586L168.075 200.201C167.879 200.879 167.684 201.558 167.489 202.237L168 202.385C167.806 203.061 167.613 203.739 167.42 204.417H167.418L166.907 204.271C166.714 204.95 166.521 205.629 166.328 206.31L166.839 206.453C166.647 207.131 166.457 207.81 166.266 208.489L165.754 208.345C165.563 209.024 165.372 209.704 165.182 210.385L165.693 210.528C165.504 211.206 165.317 211.885 165.128 212.565H165.127L164.614 212.423C164.426 213.102 164.238 213.783 164.05 214.465L164.562 214.605C164.375 215.284 164.189 215.965 164.003 216.646L163.49 216.506C163.304 217.186 163.118 217.867 162.933 218.549L163.445 218.688C163.261 219.368 163.077 220.049 162.894 220.73H162.893L162.38 220.592C162.196 221.272 162.013 221.954 161.83 222.637L162.344 222.774C162.162 223.455 161.98 224.136 161.799 224.818H161.798L161.284 224.682C161.103 225.363 160.922 226.045 160.741 226.729L161.256 226.864C161.076 227.545 160.897 228.227 160.718 228.91H160.717L160.203 228.775L159.935 229.802L159.85 230.126L160.105 230.342C160.387 230.579 160.668 230.813 160.947 231.043L161.285 230.633V230.632C161.855 231.101 162.421 231.554 162.983 231.993V231.995L162.656 232.414C163.242 232.871 163.824 233.313 164.402 233.739L164.718 233.311V233.31C165.312 233.748 165.902 234.17 166.489 234.576V234.577L166.187 235.014C166.489 235.223 166.79 235.428 167.091 235.63V235.631C167.375 235.822 167.659 236.011 167.942 236.195L168.232 235.75C168.805 236.123 169.378 236.481 169.949 236.826V236.828L169.675 237.283C170.265 237.64 170.854 237.982 171.445 238.309L171.703 237.843V237.841C172.3 238.171 172.896 238.486 173.495 238.785V238.786L173.258 239.262C173.873 239.569 174.491 239.86 175.112 240.136L175.328 239.65V239.648C175.948 239.924 176.571 240.182 177.198 240.425V240.428L177.007 240.924C177.646 241.171 178.29 241.402 178.938 241.617L179.105 241.112V241.111C179.746 241.323 180.392 241.518 181.044 241.697V241.699L180.903 242.212C181.56 242.393 182.224 242.558 182.896 242.707L183.01 242.188V242.185C183.665 242.33 184.328 242.461 184.999 242.575V242.576L184.91 243.101C185.578 243.214 186.254 243.312 186.938 243.396L187.003 242.867V242.865C187.666 242.946 188.337 243.012 189.019 243.063V243.066L188.979 243.597C189.651 243.648 190.332 243.685 191.023 243.709L191.042 243.178V243.176C191.707 243.199 192.382 243.209 193.067 243.207L193.068 243.209L193.07 243.74C193.409 243.739 193.75 243.735 194.094 243.728H194.099C194.454 243.717 194.81 243.702 195.164 243.685L195.138 243.153L195.137 243.152C195.841 243.118 196.543 243.069 197.242 243.009L197.243 243.011L197.289 243.54C197.998 243.479 198.703 243.405 199.406 243.318L199.342 242.791L199.341 242.788C200.04 242.702 200.736 242.604 201.43 242.493L201.431 242.496L201.515 243.021C202.216 242.91 202.915 242.785 203.61 242.649L203.509 242.128L203.508 242.125C204.199 241.99 204.887 241.844 205.572 241.686L205.573 241.688L205.692 242.206C206.384 242.047 207.073 241.876 207.758 241.694L207.621 241.181L207.62 241.179C208.3 240.998 208.977 240.807 209.65 240.604L209.651 240.606L209.805 241.115C210.484 240.912 211.16 240.697 211.832 240.473L211.663 239.969L211.662 239.968C212.329 239.745 212.993 239.512 213.654 239.27L213.655 239.271L213.838 239.77C214.503 239.525 215.165 239.272 215.823 239.009L215.625 238.515L215.624 238.513C216.277 238.252 216.927 237.981 217.573 237.702L217.574 237.704L217.785 238.192C218.435 237.912 219.081 237.622 219.724 237.324L219.5 236.842L219.499 236.84C220.137 236.544 220.771 236.241 221.402 235.929L221.403 235.931L221.639 236.407C222.273 236.094 222.903 235.772 223.53 235.443L223.283 234.973L223.282 234.971C223.905 234.644 224.524 234.31 225.14 233.969L225.141 233.97L225.398 234.435C226.017 234.092 226.632 233.742 227.243 233.386L226.975 232.927L226.974 232.926C227.581 232.571 228.185 232.209 228.785 231.842L228.786 231.844L229.063 232.297C229.666 231.928 230.266 231.552 230.861 231.171L230.575 230.724L230.574 230.723C231.167 230.344 231.755 229.958 232.341 229.567L232.342 229.568L232.637 230.011C233.225 229.619 233.809 229.22 234.39 228.817L234.086 228.381L234.085 228.38C234.663 227.979 235.237 227.572 235.808 227.161L235.81 227.163L236.12 227.594C236.693 227.181 237.263 226.764 237.829 226.342L237.512 225.915L237.511 225.914C238.075 225.493 238.635 225.069 239.192 224.64L239.193 224.641L239.518 225.062C240.077 224.63 240.634 224.195 241.187 223.756L240.855 223.34L240.854 223.339C241.406 222.901 241.953 222.459 242.497 222.014L242.498 222.015L242.835 222.426C243.382 221.978 243.926 221.528 244.465 221.074L244.123 220.667L244.122 220.666C244.661 220.213 245.196 219.756 245.728 219.297L245.729 219.298L246.076 219.7C246.611 219.238 247.143 218.773 247.67 218.307L247.317 217.908L247.315 217.906C247.843 217.439 248.368 216.969 248.888 216.498L248.89 216.5L249.247 216.894C249.771 216.419 250.291 215.942 250.807 215.464L250.445 215.073L250.443 215.071C250.961 214.592 251.474 214.11 251.983 213.628L251.986 213.631L252.352 214.017C252.866 213.53 253.375 213.043 253.881 212.555L253.512 212.172L253.51 212.17C254.018 211.679 254.521 211.188 255.021 210.696L255.023 210.699L255.396 211.078C255.521 210.954 255.646 210.83 255.771 210.706C255.897 210.83 256.022 210.954 256.148 211.078L256.521 210.698L256.522 210.696C257.022 211.187 257.527 211.678 258.035 212.168L258.034 212.171L257.665 212.553C258.171 213.04 258.681 213.528 259.195 214.015L259.561 213.628L259.562 213.626C260.071 214.108 260.585 214.588 261.103 215.067L261.102 215.07L260.74 215.46C261.256 215.938 261.777 216.415 262.301 216.89L262.657 216.496L262.659 216.493C263.179 216.964 263.703 217.434 264.231 217.901L264.229 217.904L263.878 218.302C264.405 218.768 264.936 219.233 265.472 219.695L265.819 219.293V219.292C266.351 219.751 266.886 220.208 267.425 220.661V220.662L267.083 221.069C267.622 221.523 268.166 221.973 268.713 222.421L269.05 222.01V222.009C269.594 222.454 270.141 222.896 270.692 223.334V223.335L270.361 223.751C270.914 224.19 271.471 224.625 272.03 225.057L272.354 224.635ZM271.421 309.453C271.931 309.964 272.447 310.474 272.967 310.984V310.985L272.594 311.364C273.11 311.871 273.631 312.379 274.156 312.886L274.525 312.503L274.526 312.5C275.047 313.002 275.57 313.505 276.1 314.005V314.006L275.734 314.392C276.261 314.889 276.793 315.386 277.329 315.882L277.69 315.491V315.49C278.222 315.981 278.758 316.47 279.298 316.958L279.297 316.96L278.941 317.354C279.48 317.841 280.023 318.326 280.57 318.809L280.922 318.41V318.409C281.465 318.888 282.013 319.364 282.564 319.838V319.839L282.218 320.242C282.769 320.715 283.324 321.187 283.883 321.654L284.225 321.246V321.245C284.78 321.71 285.341 322.17 285.904 322.628L285.903 322.63L285.568 323.043C286.133 323.501 286.702 323.956 287.274 324.407L287.604 323.99V323.989C288.173 324.438 288.747 324.881 289.324 325.321V325.323L289.002 325.746C289.581 326.188 290.164 326.624 290.751 327.057L291.065 326.629L291.066 326.627C291.65 327.057 292.237 327.484 292.829 327.904V327.905L292.521 328.338C293.116 328.76 293.714 329.177 294.315 329.588L294.615 329.149L294.616 329.147C295.215 329.557 295.817 329.961 296.424 330.358V330.36L296.133 330.805C296.743 331.204 297.356 331.598 297.974 331.985L298.256 331.535V331.534C298.871 331.92 299.491 332.298 300.113 332.67L300.112 332.673L299.839 333.129C300.465 333.504 301.095 333.871 301.729 334.231L301.991 333.77V333.768C302.622 334.126 303.257 334.478 303.896 334.821V334.823L303.644 335.291C304.287 335.637 304.934 335.976 305.585 336.306L305.825 335.832L305.826 335.829C306.474 336.158 307.124 336.479 307.778 336.79V336.792L307.55 337.271C308.21 337.585 308.874 337.891 309.541 338.187L309.756 337.701V337.699C310.42 337.994 311.087 338.277 311.758 338.553V338.556L311.556 339.047C312.232 339.325 312.912 339.593 313.595 339.851L313.782 339.353V339.351C314.462 339.607 315.144 339.853 315.83 340.088V340.09L315.658 340.593C316.35 340.83 317.045 341.056 317.743 341.271L317.9 340.764V340.761C318.594 340.974 319.29 341.178 319.99 341.369V341.371L319.85 341.884C320.555 342.076 321.265 342.257 321.977 342.426L322.099 341.908V341.906C322.804 342.073 323.513 342.226 324.225 342.369V342.373L324.12 342.895C324.837 343.038 325.557 343.17 326.28 343.288L326.366 342.764V342.76C327.081 342.877 327.799 342.981 328.521 343.072V343.075L328.454 343.603C329.179 343.694 329.906 343.771 330.637 343.836L330.684 343.307V343.303C331.404 343.366 332.128 343.419 332.854 343.455V343.457L332.827 343.987C333.193 344.006 333.56 344.021 333.928 344.032H333.933C334.283 344.039 334.631 344.043 334.976 344.044L334.977 343.513V343.511C335.675 343.513 336.362 343.5 337.039 343.476L337.04 343.479L337.06 344.011C337.764 343.986 338.457 343.946 339.141 343.893L339.1 343.363L339.099 343.359C339.792 343.305 340.475 343.239 341.149 343.155L341.15 343.157L341.216 343.685C341.914 343.598 342.602 343.496 343.282 343.379L343.191 342.855L343.19 342.854C343.874 342.735 344.547 342.599 345.214 342.449L345.215 342.452L345.332 342.971C346.015 342.817 346.69 342.646 347.358 342.459L347.215 341.947L347.214 341.943C347.877 341.757 348.533 341.554 349.184 341.335L349.186 341.339L349.355 341.843C350.015 341.62 350.668 341.381 351.317 341.125L351.122 340.63L351.12 340.626C351.757 340.375 352.39 340.107 353.02 339.822L353.021 339.826L353.24 340.311C353.87 340.026 354.496 339.724 355.121 339.406L354.881 338.933L354.879 338.93C355.486 338.621 356.093 338.297 356.698 337.956L356.699 337.958L356.96 338.421C357.559 338.084 358.157 337.731 358.755 337.363L358.477 336.911L358.476 336.909C359.054 336.554 359.632 336.183 360.212 335.799L360.214 335.801L360.508 336.244C361.078 335.866 361.648 335.474 362.222 335.068L361.915 334.635L361.913 334.632C362.467 334.24 363.024 333.836 363.583 333.418L363.584 333.419L363.902 333.845C364.448 333.437 364.996 333.016 365.548 332.583L365.22 332.165L365.218 332.163C365.751 331.745 366.288 331.315 366.828 330.873L366.829 330.874L367.166 331.286C367.432 331.069 367.699 330.847 367.967 330.624L367.966 330.623C368.206 330.426 368.614 330.001 369.096 329.477L368.704 329.117C369.275 328.495 369.996 327.685 370.763 326.827L371.159 327.181L372.186 326.036L372.358 325.845L372.314 325.59C372.256 325.25 372.197 324.909 372.138 324.568L371.614 324.659H371.612C371.494 323.979 371.375 323.298 371.256 322.615H371.258L371.782 322.523C371.663 321.843 371.543 321.162 371.422 320.479L370.897 320.572C370.777 319.892 370.654 319.211 370.532 318.529H370.535L371.059 318.436C370.937 317.756 370.814 317.075 370.69 316.394L370.168 316.488H370.167C370.044 315.809 369.918 315.129 369.794 314.447H369.797L370.319 314.352C370.195 313.672 370.071 312.992 369.945 312.311L369.422 312.407H369.42C369.295 311.728 369.169 311.048 369.042 310.367H369.044L369.566 310.27C369.44 309.59 369.312 308.91 369.184 308.229L368.661 308.328H368.658C368.53 307.649 368.404 306.97 368.274 306.289L368.798 306.19C368.669 305.512 368.539 304.832 368.408 304.152L367.886 304.252H367.883C367.753 303.574 367.622 302.895 367.49 302.216H367.493L368.015 302.114C367.883 301.436 367.75 300.757 367.617 300.077L367.096 300.18H367.094C366.961 299.502 366.826 298.823 366.691 298.144H366.695L367.217 298.04C367.083 297.362 366.948 296.683 366.812 296.004L366.291 296.108H366.29C366.155 295.431 366.017 294.754 365.88 294.075H365.883L366.404 293.97C366.268 293.293 366.13 292.615 365.992 291.937L365.472 292.042H365.47C365.332 291.365 365.193 290.688 365.054 290.01H365.057L365.577 289.902C365.438 289.226 365.299 288.548 365.158 287.87L364.638 287.978H364.635C364.495 287.301 364.355 286.624 364.214 285.946L364.735 285.837C364.594 285.161 364.451 284.484 364.309 283.807L363.789 283.916H363.785C363.643 283.24 363.5 282.564 363.356 281.887H363.359L363.879 281.776C363.735 281.101 363.591 280.424 363.445 279.747L362.926 279.858H362.923C362.778 279.183 362.632 278.507 362.485 277.83H362.488L363.008 277.718C362.862 277.042 362.715 276.366 362.567 275.688L362.047 275.802C361.9 275.127 361.749 274.452 361.601 273.776H361.604L362.123 273.662C361.975 272.987 361.825 272.312 361.675 271.636L361.156 271.751H361.153C361.004 271.077 360.854 270.402 360.703 269.727H360.705L361.224 269.61C361.073 268.936 360.921 268.261 360.769 267.585L360.25 267.702H360.247C360.095 267.028 359.945 266.353 359.791 265.678L360.31 265.561C360.156 264.887 360.002 264.213 359.848 263.538L359.329 263.656H359.326C359.172 262.983 359.017 262.31 358.861 261.636H358.864L359.382 261.516C359.226 260.842 359.069 260.168 358.912 259.493L358.395 259.614H358.393C358.236 258.941 358.076 258.268 357.918 257.594H357.922L358.439 257.472C358.282 256.799 358.122 256.127 357.963 255.453L357.445 255.575H357.443C357.284 254.903 357.124 254.231 356.963 253.558H356.966L357.483 253.434C357.323 252.762 357.162 252.088 357 251.415L356.482 251.54H356.479C356.318 250.868 356.158 250.195 355.995 249.522H355.996L356.513 249.397C356.35 248.726 356.186 248.054 356.021 247.381L355.506 247.507H355.502C355.338 246.836 355.175 246.165 355.01 245.493H355.012L355.528 245.365C355.446 245.029 355.362 244.694 355.279 244.357L355.017 243.292L354.344 244.158L353.557 245.172L353.976 245.497L352.402 247.523L351.982 247.198L350.409 249.224L350.828 249.549L349.254 251.575L348.835 251.25L348.049 252.263L347.37 253.132L347.788 253.458L346.43 255.198L346.012 254.872L344.653 256.612L345.071 256.938L343.714 258.679L343.295 258.352L341.937 260.092L342.355 260.419L340.997 262.158L340.579 261.832L339.221 263.571L339.639 263.897L338.28 265.638L337.862 265.312L336.504 267.052L336.922 267.378L335.564 269.118L335.146 268.791L334.467 269.661L333.87 270.426L334.288 270.752L333.095 272.281L332.676 271.954L331.482 273.482L331.9 273.809L330.707 275.338L330.288 275.011L329.095 276.539L329.513 276.865L328.319 278.395L327.9 278.067L327.505 278.573C327.273 278.528 327.038 278.483 326.8 278.435L326.694 278.953C326.026 278.818 325.332 278.672 324.612 278.511L324.729 277.993C324.067 277.845 323.384 277.686 322.681 277.517L322.556 278.031C321.889 277.87 321.204 277.698 320.503 277.517L320.636 277.006C319.971 276.834 319.29 276.653 318.596 276.463L318.456 276.972C317.789 276.789 317.109 276.598 316.416 276.398L316.563 275.892C315.899 275.7 315.223 275.501 314.537 275.294L314.385 275.799C313.72 275.598 313.045 275.389 312.36 275.173L312.52 274.67C311.858 274.461 311.187 274.245 310.509 274.021L310.344 274.522C309.682 274.304 309.011 274.082 308.334 273.851L308.506 273.349C307.847 273.123 307.182 272.891 306.511 272.652L306.332 273.151C305.673 272.917 305.008 272.676 304.338 272.429L304.522 271.932C303.867 271.69 303.206 271.443 302.541 271.188L302.352 271.685C301.699 271.435 301.042 271.179 300.38 270.918L300.575 270.425C299.927 270.169 299.274 269.907 298.617 269.639L298.416 270.129C297.767 269.864 297.114 269.595 296.459 269.318L296.666 268.829C296.021 268.557 295.374 268.279 294.724 267.996L294.512 268.482C293.868 268.202 293.22 267.917 292.571 267.625L292.789 267.141C292.151 266.854 291.51 266.562 290.868 266.265L290.645 266.745C290.008 266.45 289.369 266.15 288.729 265.845L288.959 265.366C288.327 265.064 287.693 264.757 287.059 264.444L286.823 264.92C286.192 264.609 285.56 264.292 284.927 263.971L285.167 263.499C284.542 263.182 283.916 262.859 283.289 262.531L283.043 263.001C282.42 262.675 281.797 262.344 281.174 262.008L281.426 261.541C280.809 261.208 280.191 260.87 279.573 260.527L279.315 260.99C278.7 260.648 278.084 260.301 277.469 259.948L277.732 259.489C277.124 259.141 276.515 258.787 275.907 258.428L275.638 258.884C275.032 258.526 274.426 258.164 273.821 257.796L274.098 257.343C273.498 256.978 272.899 256.608 272.301 256.233L272.019 256.682C271.421 256.307 270.824 255.929 270.229 255.544L270.519 255.099C269.93 254.718 269.342 254.331 268.756 253.94L268.462 254.381C267.876 253.99 267.29 253.595 266.707 253.193L267.008 252.757C266.429 252.359 265.852 251.954 265.277 251.546L264.97 251.978C264.395 251.57 263.823 251.156 263.253 250.738L263.566 250.312C263 249.896 262.436 249.476 261.875 249.051L261.555 249.473C260.992 249.047 260.433 248.615 259.876 248.179L260.203 247.763C259.65 247.33 259.099 246.891 258.552 246.448L258.217 246.86C257.669 246.417 257.125 245.967 256.583 245.514L256.924 245.108C256.654 244.883 256.384 244.655 256.116 244.427L255.771 244.134L255.427 244.427C255.159 244.655 254.89 244.883 254.62 245.108L254.96 245.514C254.418 245.967 253.874 246.417 253.326 246.86L252.992 246.448C252.445 246.891 251.894 247.33 251.341 247.763L251.667 248.179C251.11 248.615 250.551 249.048 249.988 249.474L249.669 249.051C249.108 249.476 248.544 249.896 247.978 250.312L248.29 250.738C247.72 251.156 247.148 251.57 246.573 251.978L246.267 251.546C245.692 251.954 245.114 252.358 244.535 252.757L244.836 253.193C244.253 253.595 243.667 253.99 243.081 254.381L242.788 253.94C242.202 254.331 241.614 254.718 241.025 255.099L241.313 255.544C240.719 255.929 240.122 256.307 239.524 256.682L239.243 256.233C238.645 256.608 238.046 256.978 237.446 257.343L237.722 257.796C237.117 258.164 236.511 258.526 235.905 258.884L235.637 258.428C235.029 258.786 234.42 259.141 233.812 259.489L234.074 259.948C233.459 260.301 232.843 260.648 232.228 260.99L231.971 260.527C231.353 260.87 230.735 261.208 230.118 261.541L230.369 262.008C229.746 262.344 229.122 262.674 228.5 263L228.255 262.531C227.628 262.859 227.002 263.182 226.377 263.499L226.616 263.971C225.983 264.292 225.351 264.609 224.72 264.92L224.485 264.444C223.851 264.757 223.217 265.064 222.585 265.366L222.813 265.845C222.174 266.15 221.535 266.45 220.898 266.745L220.676 266.265C220.034 266.562 219.393 266.854 218.755 267.141L218.972 267.625C218.322 267.917 217.675 268.202 217.031 268.482L216.82 267.996C216.17 268.279 215.522 268.557 214.878 268.829L215.084 269.318C214.428 269.595 213.776 269.864 213.127 270.129L212.927 269.639C212.27 269.907 211.617 270.169 210.969 270.425L211.163 270.918C210.501 271.179 209.844 271.435 209.191 271.685L209.003 271.188C208.338 271.443 207.677 271.69 207.021 271.932L207.205 272.429C206.535 272.676 205.87 272.917 205.211 273.151L205.033 272.652C204.362 272.891 203.696 273.123 203.038 273.349L203.209 273.851C202.532 274.082 201.861 274.304 201.199 274.522L201.035 274.021C200.357 274.245 199.686 274.461 199.024 274.67L199.183 275.173C198.498 275.389 197.823 275.598 197.158 275.799L197.006 275.294C196.32 275.501 195.644 275.7 194.98 275.892L195.127 276.398C194.434 276.598 193.754 276.789 193.087 276.972L192.947 276.463C192.253 276.653 191.573 276.834 190.908 277.006L191.04 277.517C190.338 277.698 189.654 277.87 188.986 278.031L188.863 277.517C188.16 277.686 187.477 277.845 186.815 277.993L186.931 278.511C186.211 278.672 185.517 278.818 184.849 278.953L184.744 278.435C184.505 278.483 184.27 278.528 184.038 278.573L183.643 278.067L183.224 278.394L182.03 276.865L182.449 276.539L181.255 275.011L180.836 275.338L179.643 273.809L180.062 273.482L178.868 271.954L178.448 272.281L177.255 270.752L177.674 270.426L177.077 269.661L176.398 268.791L175.979 269.117L174.621 267.378L175.04 267.052L173.682 265.312L173.263 265.638L171.904 263.897L172.323 263.571L170.965 261.832L170.546 262.158L169.188 260.418L169.606 260.092L168.249 258.352L167.829 258.679L166.472 256.938L166.891 256.612L165.532 254.872L165.113 255.198L163.755 253.458L164.174 253.132L163.495 252.263L162.709 251.25L162.289 251.575L160.715 249.549L161.135 249.224L159.562 247.198L159.141 247.523L157.567 245.497L157.987 245.172L157.2 244.158L156.527 243.292L156.265 244.357C156.182 244.694 156.098 245.029 156.016 245.365L156.532 245.493H156.533C156.368 246.165 156.205 246.836 156.041 247.507H156.038L155.522 247.381C155.358 248.054 155.194 248.726 155.031 249.397L155.548 249.522C155.385 250.195 155.225 250.868 155.063 251.54H155.062L154.545 251.416C154.383 252.089 154.222 252.763 154.062 253.435L154.578 253.558H154.581C154.42 254.231 154.26 254.903 154.101 255.575H154.1L153.582 255.453C153.423 256.127 153.264 256.8 153.106 257.473L153.623 257.594H153.626C153.468 258.268 153.309 258.941 153.152 259.614H153.151L152.634 259.494C152.477 260.169 152.32 260.843 152.164 261.517L152.683 261.636H152.685C152.529 262.31 152.374 262.984 152.22 263.657H152.218L151.699 263.538C151.545 264.213 151.39 264.888 151.237 265.562L151.756 265.679C151.602 266.354 151.453 267.029 151.301 267.703H151.298L150.779 267.586C150.627 268.262 150.476 268.937 150.325 269.611L150.844 269.728H150.845C150.694 270.403 150.544 271.078 150.395 271.752H150.393L149.874 271.638C149.724 272.314 149.575 272.989 149.427 273.663L149.945 273.777H149.948C149.8 274.454 149.649 275.129 149.502 275.804L148.982 275.69C148.835 276.367 148.689 277.043 148.543 277.719L149.062 277.831H149.064C148.918 278.508 148.772 279.184 148.627 279.859H148.626L148.105 279.748C147.96 280.425 147.816 281.103 147.673 281.778L148.192 281.889H148.194C148.05 282.566 147.908 283.242 147.766 283.918H147.764L147.243 283.809C147.1 284.486 146.958 285.163 146.817 285.839L147.338 285.947C147.196 286.625 147.058 287.303 146.918 287.979H146.916L146.396 287.872C146.255 288.55 146.115 289.228 145.977 289.904L146.497 290.012H146.499C146.36 290.69 146.221 291.367 146.084 292.044H146.082L145.562 291.938C145.424 292.617 145.287 293.295 145.15 293.972L145.671 294.077H145.674C145.537 294.756 145.399 295.433 145.264 296.11L144.742 296.006C144.607 296.685 144.472 297.365 144.338 298.043L144.859 298.146H144.861C144.727 298.825 144.593 299.504 144.46 300.182H144.459L143.937 300.079C143.803 300.759 143.672 301.438 143.54 302.116L144.062 302.218H144.062C143.931 302.897 143.8 303.576 143.67 304.254H143.668L143.146 304.154C143.016 304.834 142.885 305.513 142.756 306.191L143.277 306.29C143.148 306.97 143.022 307.65 142.894 308.329H142.892L142.37 308.231C142.242 308.912 142.113 309.592 141.986 310.271L142.51 310.369C142.383 311.05 142.257 311.729 142.132 312.408H142.13L141.607 312.312C141.481 312.993 141.356 313.673 141.231 314.353L141.755 314.449H141.757C141.632 315.13 141.507 315.81 141.384 316.489H141.383L140.859 316.395C140.736 317.076 140.613 317.757 140.491 318.437L141.015 318.53H141.017C140.894 319.212 140.77 319.892 140.649 320.572L140.126 320.479C140.005 321.162 139.884 321.843 139.765 322.523L140.288 322.616H140.29C140.17 323.298 140.05 323.979 139.932 324.659H139.931L139.407 324.568L139.229 325.59L139.186 325.842L139.355 326.033C139.696 326.417 140.043 326.807 140.379 327.185L140.776 326.832V326.831C141.539 327.688 142.261 328.499 142.835 329.12H142.836L142.446 329.481C142.929 330.004 143.337 330.426 143.576 330.623V330.624C143.844 330.848 144.111 331.068 144.377 331.286L144.714 330.875L144.715 330.873C145.255 331.316 145.791 331.746 146.323 332.165L146.322 332.167L145.994 332.585C146.545 333.018 147.093 333.439 147.638 333.848L147.957 333.422V333.421C148.516 333.84 149.073 334.244 149.627 334.636L149.626 334.638L149.318 335.072C149.892 335.478 150.463 335.869 151.033 336.247L151.327 335.804V335.802C151.908 336.187 152.486 336.558 153.064 336.913V336.914L152.786 337.367C153.384 337.735 153.983 338.086 154.582 338.423L154.842 337.96V337.958C155.447 338.299 156.054 338.622 156.662 338.931L156.661 338.934L156.421 339.407C157.046 339.724 157.673 340.025 158.303 340.31L158.521 339.825L158.522 339.821C159.152 340.105 159.785 340.373 160.422 340.624L160.421 340.628L160.227 341.122C160.876 341.378 161.53 341.617 162.189 341.839L162.358 341.335L162.359 341.331C163.01 341.55 163.666 341.752 164.329 341.938V341.941L164.187 342.453C164.855 342.64 165.53 342.81 166.213 342.964L166.33 342.445V342.442C166.997 342.592 167.67 342.728 168.354 342.846V342.847L168.263 343.371C168.942 343.489 169.63 343.59 170.328 343.677L170.394 343.149V343.147C171.067 343.231 171.751 343.298 172.444 343.353V343.356L172.403 343.886C173.087 343.939 173.78 343.98 174.483 344.006L174.503 343.475V343.471C175.18 343.496 175.868 343.509 176.566 343.509V343.511L176.567 344.043C176.912 344.043 177.259 344.039 177.609 344.032H177.616C177.983 344.021 178.35 344.006 178.716 343.987L178.689 343.457L178.688 343.455C179.415 343.419 180.138 343.366 180.858 343.303L180.859 343.307L180.906 343.836C181.637 343.771 182.365 343.693 183.09 343.602L183.022 343.074L183.021 343.072C183.743 342.981 184.461 342.876 185.176 342.759L185.177 342.763L185.263 343.287C185.986 343.169 186.706 343.037 187.423 342.894L187.318 342.372L187.317 342.368C188.029 342.225 188.738 342.072 189.443 341.904L189.444 341.906L189.566 342.424C190.278 342.255 190.987 342.073 191.692 341.881L191.553 341.368L191.552 341.366C192.252 341.175 192.948 340.972 193.642 340.758L193.643 340.761L193.799 341.269C194.497 341.053 195.192 340.826 195.884 340.589L195.712 340.086L195.711 340.084C196.397 339.849 197.079 339.603 197.758 339.347L197.759 339.349L197.947 339.846C198.63 339.588 199.309 339.32 199.985 339.042L199.783 338.551L199.782 338.548C200.453 338.272 201.12 337.988 201.784 337.693L201.785 337.695L202 338.181C202.667 337.885 203.33 337.58 203.99 337.266L203.762 336.786L203.761 336.784C204.415 336.473 205.065 336.151 205.713 335.822L205.715 335.825L205.956 336.299C206.606 335.969 207.253 335.63 207.896 335.284L207.644 334.816L207.643 334.814C208.281 334.471 208.916 334.119 209.547 333.76L209.548 333.762L209.811 334.224C210.444 333.863 211.074 333.496 211.7 333.121L211.427 332.665L211.425 332.662C212.047 332.29 212.666 331.912 213.281 331.526L213.282 331.527L213.565 331.978C214.183 331.59 214.796 331.196 215.406 330.796L215.114 330.352L215.113 330.351C215.72 329.953 216.322 329.548 216.921 329.139L216.923 329.141L217.223 329.579C217.824 329.168 218.423 328.751 219.017 328.329L218.709 327.896L218.708 327.896C219.3 327.475 219.887 327.049 220.471 326.618L220.472 326.62L220.787 327.048C221.374 326.616 221.957 326.179 222.536 325.737L222.213 325.314L222.212 325.312C222.789 324.872 223.364 324.429 223.934 323.98L224.263 324.398C224.835 323.947 225.404 323.493 225.969 323.034L225.634 322.621L225.633 322.619C226.197 322.161 226.757 321.7 227.312 321.235L227.313 321.237L227.654 321.646C228.213 321.178 228.768 320.708 229.319 320.234L228.974 319.831L228.973 319.83C229.524 319.357 230.071 318.88 230.614 318.401L230.615 318.402L230.967 318.801C231.514 318.318 232.058 317.834 232.597 317.348L232.24 316.953L232.239 316.951C232.779 316.464 233.315 315.974 233.847 315.483L233.848 315.484L234.209 315.875C234.745 315.38 235.277 314.883 235.804 314.386L235.438 313.999L235.438 313.998C235.967 313.498 236.491 312.997 237.012 312.495L237.014 312.497L237.382 312.88C237.908 312.373 238.429 311.866 238.945 311.359L238.573 310.98L238.571 310.979C239.091 310.468 239.607 309.958 240.117 309.448L240.494 309.825C241.011 309.308 241.524 308.791 242.031 308.275L241.652 307.903L241.65 307.901C242.163 307.381 242.67 306.861 243.172 306.343L243.174 306.345L243.556 306.715C244.065 306.189 244.569 305.665 245.067 305.143L244.683 304.775L244.681 304.773C245.186 304.245 245.686 303.718 246.18 303.194L246.182 303.196L246.568 303.561L247.312 302.771L247.326 302.756L247.339 302.739L248.052 301.847L247.636 301.515L249.062 299.73L249.477 300.062L250.902 298.277L250.486 297.946L251.911 296.16L251.912 296.161L252.327 296.493L253.752 294.709L253.337 294.377L254.762 292.593L255.178 292.924L255.762 292.191L255.771 292.204L255.781 292.191L256.366 292.924L256.781 292.593L258.207 294.377L257.792 294.709L259.217 296.493L259.632 296.161V296.16L261.057 297.946H261.058L260.642 298.277L262.067 300.062L262.482 299.73L263.907 301.514V301.515L263.492 301.847L264.205 302.739L264.218 302.755L264.232 302.771C264.478 303.033 264.726 303.297 264.975 303.562L265.361 303.197L265.362 303.195C265.856 303.72 266.356 304.246 266.86 304.775L266.859 304.777L266.475 305.144C266.973 305.666 267.477 306.191 267.986 306.717L268.368 306.348L268.369 306.346C268.871 306.864 269.377 307.384 269.889 307.905V307.906L269.509 308.279C270.016 308.795 270.529 309.312 271.046 309.829L271.421 309.453ZM255.531 291.161L255.676 291.276L255.475 291.438V291.161H255.531ZM256.069 291.161V291.438L255.867 291.276L256.012 291.161H256.069ZM376.636 242.186L376.61 242.197L376.606 242.188L376.634 242.183L376.636 242.186Z" fill="white" stroke="white" stroke-width="1.06312" stroke-dasharray="2.13 2.13"/>
<path d="M326.895 190.308C327.207 190.918 327.494 191.539 327.757 192.168L327.268 192.372C327.526 192.993 327.759 193.622 327.966 194.256L328.471 194.091C328.683 194.744 328.868 195.403 329.023 196.065L328.508 196.188C328.661 196.841 328.785 197.499 328.88 198.156L329.404 198.08C329.502 198.76 329.569 199.441 329.603 200.121L329.073 200.147C329.09 200.481 329.098 200.814 329.098 201.146C329.098 201.507 329.09 201.864 329.075 202.219L329.604 202.24C329.573 202.98 329.509 203.708 329.416 204.422L328.892 204.354C328.798 205.07 328.673 205.774 328.518 206.461L329.033 206.577C328.871 207.297 328.676 208.001 328.451 208.688L327.949 208.522C327.725 209.206 327.469 209.872 327.185 210.518L327.669 210.73C327.372 211.403 327.044 212.056 326.687 212.687L326.227 212.425C325.874 213.047 325.491 213.648 325.08 214.226L325.511 214.532C325.087 215.129 324.635 215.702 324.154 216.249L323.756 215.898C323.286 216.433 322.789 216.944 322.267 217.427L322.627 217.816C322.092 218.311 321.53 218.778 320.945 219.217L320.627 218.793C320.06 219.218 319.469 219.616 318.856 219.984L319.13 220.438C318.508 220.813 317.864 221.157 317.2 221.471L316.974 220.992C316.334 221.294 315.675 221.567 314.999 221.809L315.177 222.307C314.496 222.55 313.797 222.764 313.083 222.944L312.954 222.431C312.27 222.604 311.57 222.747 310.857 222.858L310.938 223.382C310.226 223.494 309.5 223.576 308.763 223.625L308.729 223.096C308.551 223.108 308.373 223.118 308.194 223.126L307.657 223.145C307.314 223.152 306.973 223.152 306.635 223.145L306.624 223.674C305.918 223.659 305.223 223.616 304.541 223.542L304.598 223.015C303.913 222.941 303.242 222.837 302.584 222.706L302.48 223.226C301.791 223.088 301.115 222.921 300.455 222.725L300.606 222.217C299.95 222.022 299.307 221.797 298.682 221.546L298.484 222.037C297.835 221.776 297.201 221.488 296.586 221.172L296.829 220.7C296.222 220.388 295.632 220.051 295.062 219.688L294.776 220.134C294.188 219.759 293.618 219.361 293.068 218.937L293.395 218.516C292.856 218.1 292.336 217.66 291.837 217.199L291.477 217.588C290.966 217.115 290.476 216.62 290.009 216.105L290.401 215.75C289.944 215.246 289.507 214.723 289.094 214.182L288.672 214.503C288.25 213.951 287.852 213.38 287.477 212.794L287.924 212.508C287.557 211.935 287.214 211.346 286.895 210.743L286.425 210.991C286.1 210.377 285.799 209.75 285.523 209.109L286.012 208.9C285.743 208.275 285.499 207.638 285.28 206.991L284.777 207.161C284.555 206.503 284.357 205.835 284.188 205.159L284.703 205.03C284.537 204.371 284.397 203.703 284.284 203.029L283.761 203.116C283.646 202.432 283.559 201.741 283.499 201.046L284.027 201.002C283.998 200.663 283.976 200.322 283.961 199.981C283.961 199.621 283.971 199.262 283.989 198.905L283.459 198.878C283.489 198.303 283.541 197.732 283.614 197.166L283.69 196.634L284.215 196.715C284.328 195.986 284.478 195.266 284.663 194.559L284.149 194.425C284.34 193.695 284.567 192.977 284.829 192.273L285.328 192.459C285.585 191.769 285.876 191.094 286.198 190.435L285.721 190.2C286.052 189.524 286.416 188.865 286.811 188.225L287.263 188.504C287.648 187.878 288.064 187.27 288.509 186.684L288.085 186.363C288.539 185.764 289.022 185.186 289.532 184.631L289.922 184.991C290.419 184.45 290.942 183.932 291.489 183.438L291.135 183.044C291.692 182.541 292.274 182.063 292.879 181.613L293.196 182.039C293.785 181.601 294.395 181.189 295.025 180.807L294.75 180.353C295.391 179.963 296.052 179.604 296.731 179.274L296.963 179.752C297.622 179.433 298.299 179.142 298.991 178.885L298.806 178.388C299.507 178.127 300.224 177.897 300.955 177.702L301.093 178.215C301.798 178.026 302.517 177.87 303.248 177.748L303.161 177.226C303.897 177.103 304.644 177.012 305.401 176.959L305.439 177.489C305.803 177.464 306.17 177.446 306.538 177.438C306.871 177.438 307.201 177.446 307.529 177.463L307.555 176.934C308.244 176.968 308.925 177.036 309.595 177.138L309.517 177.663C310.179 177.764 310.832 177.897 311.473 178.062L311.604 177.549C312.269 177.719 312.923 177.92 313.562 178.152L313.382 178.652C314.01 178.881 314.625 179.139 315.227 179.425L315.454 178.946C316.072 179.24 316.676 179.561 317.264 179.909L316.993 180.366C317.568 180.707 318.128 181.073 318.671 181.463L318.979 181.032C319.534 181.431 320.072 181.854 320.593 182.298L320.249 182.701C320.758 183.136 321.249 183.591 321.722 184.065L322.097 183.691C322.579 184.176 323.043 184.679 323.485 185.2L323.081 185.545C323.515 186.056 323.93 186.583 324.322 187.125L324.751 186.813C325.153 187.368 325.533 187.937 325.89 188.52L325.438 188.797C325.789 189.369 326.117 189.955 326.422 190.55L326.895 190.308Z" fill="white" stroke="white" stroke-width="1.06312" stroke-dasharray="2.13 2.13"/>
</g>
<defs>
<clipPath id="clip0_6056_1440">
<rect width="512" height="512" rx="256" fill="white"/>
</clipPath>
</defs>
</svg>
