<svg width="305" height="251" viewBox="0 0 305 251" fill="none" xmlns="http://www.w3.org/2000/svg">
<path d="M299.051 234.122C299.279 234.753 299.509 235.383 299.738 236.011L299.737 236.012L299.268 236.184C299.497 236.813 299.727 237.44 299.956 238.066L300.426 237.895V237.894C300.657 238.525 300.889 239.154 301.121 239.781L301.12 239.782L300.651 239.956C300.883 240.585 301.115 241.212 301.348 241.837L301.816 241.663V241.662C302.05 242.292 302.285 242.92 302.52 243.546L302.519 243.547L302.05 243.722C302.285 244.35 302.52 244.977 302.755 245.602L303.223 245.426V245.425C303.459 246.053 303.695 246.679 303.932 247.304V247.305L303.464 247.482C303.503 247.586 303.542 247.689 303.581 247.792L303.265 247.816L303.303 248.315L301.335 248.464L301.298 247.966L299.33 248.114L299.368 248.613L297.4 248.762L297.362 248.264L295.396 248.412L295.433 248.911L293.466 249.06L293.428 248.562L291.461 248.71L291.498 249.209L289.53 249.357L289.493 248.859L287.525 249.009L287.563 249.507L285.595 249.655L285.559 249.157L283.591 249.307L283.629 249.805L281.66 249.953L281.623 249.455L279.656 249.604L279.694 250.103L277.726 250.251L277.688 249.753L275.722 249.902L275.759 250.4L273.791 250.549L273.754 250.051L271.786 250.2L271.824 250.698L269.855 250.847L269.819 250.349L269.311 250.387C269.288 250.206 269.267 250.025 269.244 249.845L268.748 249.906H268.745C268.661 249.231 268.577 248.554 268.491 247.876H268.493L268.989 247.813C268.904 247.138 268.818 246.46 268.73 245.782L268.234 245.847H268.233C268.146 245.171 268.057 244.495 267.968 243.817H267.971L268.466 243.752C268.377 243.077 268.288 242.4 268.197 241.723L267.701 241.789C267.611 241.114 267.518 240.438 267.426 239.761H267.429L267.924 239.693C267.832 239.018 267.74 238.342 267.646 237.665L267.15 237.733C267.057 237.059 266.962 236.384 266.867 235.707H266.869L267.364 235.638C267.27 234.963 267.174 234.287 267.078 233.61L266.584 233.681H266.582C266.486 233.006 266.389 232.331 266.291 231.654H266.293L266.788 231.583C266.691 230.909 266.593 230.234 266.494 229.558L265.999 229.63H265.997C265.899 228.956 265.799 228.281 265.699 227.605H265.701L266.195 227.532C266.095 226.858 265.995 226.183 265.894 225.507L265.399 225.582H265.396C265.295 224.909 265.195 224.234 265.093 223.559H265.094L265.588 223.483C265.486 222.81 265.382 222.135 265.278 221.459L264.784 221.535H264.781C264.678 220.863 264.576 220.189 264.471 219.514H264.472L264.966 219.437C264.861 218.764 264.756 218.089 264.649 217.414L264.155 217.491H264.152C264.047 216.819 263.94 216.145 263.833 215.471H263.835L264.329 215.392C264.276 215.055 264.222 214.718 264.168 214.381L264.014 213.413L263.309 214.118L263.654 214.463L263.613 214.469L263.286 214.142L263.274 214.153L263.254 214.173L263.236 214.195L262.668 214.913L263.06 215.224L261.923 216.657L261.531 216.347L260.395 217.78L260.786 218.091L259.649 219.524L259.258 219.214L258.689 219.931L258.688 219.934L258.094 220.693L258.487 221.002L257.3 222.521L256.906 222.214L255.718 223.733L256.111 224.041L254.924 225.562L254.53 225.254L253.343 226.773L253.736 227.082L252.549 228.602L252.154 228.294L250.967 229.813L251.36 230.122L250.173 231.642L249.779 231.334L248.591 232.854L248.984 233.161L247.797 234.682L247.403 234.374L246.216 235.894L246.609 236.202L245.422 237.722L245.027 237.414L243.84 238.934L244.233 239.242L243.046 240.762L242.652 240.454L241.464 241.974L241.857 242.281L240.67 243.801L240.276 243.494L239.089 245.014L239.482 245.322L238.295 246.842L237.9 246.534L236.713 248.055L237.106 248.361L235.919 249.882L235.525 249.574L235.12 250.092C234.912 250.051 234.7 250.01 234.486 249.967L234.387 250.456H234.386C233.784 250.334 233.16 250.2 232.514 250.056L232.623 249.568C232.022 249.434 231.401 249.29 230.763 249.137L230.646 249.622H230.646C230.042 249.477 229.423 249.322 228.789 249.159L228.914 248.676C228.313 248.521 227.697 248.359 227.069 248.188L226.938 248.669C226.334 248.505 225.718 248.334 225.091 248.154L225.229 247.675C224.628 247.503 224.018 247.324 223.397 247.139L223.254 247.616C222.652 247.436 222.04 247.249 221.421 247.055L221.57 246.579C220.972 246.392 220.365 246.198 219.751 245.998L219.597 246.473C218.997 246.277 218.391 246.076 217.777 245.868L217.938 245.396C217.342 245.194 216.74 244.987 216.133 244.773L215.968 245.244C215.371 245.035 214.769 244.82 214.161 244.6L214.332 244.13C213.74 243.915 213.142 243.694 212.541 243.468L212.365 243.935C211.773 243.712 211.177 243.483 210.576 243.25L210.758 242.786C210.169 242.557 209.576 242.323 208.979 242.084L208.793 242.547C208.205 242.311 207.613 242.07 207.019 241.824L207.21 241.363C206.626 241.122 206.04 240.875 205.45 240.623L205.254 241.081C204.671 240.832 204.084 240.579 203.496 240.32L203.697 239.864C203.118 239.609 202.536 239.349 201.952 239.085L201.745 239.539C201.167 239.277 200.586 239.011 200.004 238.739L200.216 238.287C199.642 238.02 199.067 237.747 198.49 237.47L198.273 237.92C197.701 237.645 197.127 237.364 196.552 237.08L196.773 236.634C196.488 236.493 196.203 236.35 195.917 236.207H195.916C195.62 236.059 195.324 235.909 195.027 235.758L194.801 236.202C194.208 235.901 193.615 235.595 193.021 235.284L193.253 234.843C192.666 234.535 192.079 234.223 191.491 233.905L191.253 234.345C190.668 234.029 190.085 233.707 189.5 233.381L189.743 232.945C189.164 232.623 188.585 232.296 188.007 231.964L187.759 232.395C187.182 232.063 186.605 231.728 186.029 231.387L186.283 230.959C185.713 230.621 185.142 230.279 184.573 229.932L184.313 230.356C183.745 230.01 183.177 229.659 182.61 229.303L182.877 228.88C182.316 228.527 181.755 228.168 181.196 227.806L180.924 228.225C180.366 227.862 179.809 227.494 179.254 227.122L179.531 226.709C178.98 226.34 178.431 225.965 177.883 225.587L177.6 225.996C177.052 225.617 176.505 225.234 175.961 224.846L176.251 224.441C175.711 224.056 175.172 223.666 174.636 223.271L174.341 223.671C173.804 223.276 173.27 222.876 172.738 222.472L173.04 222.076C172.512 221.674 171.986 221.268 171.463 220.856L171.154 221.248C170.63 220.836 170.109 220.42 169.591 219.998L169.906 219.611C169.391 219.193 168.879 218.769 168.37 218.341L168.05 218.722C167.54 218.292 167.033 217.858 166.529 217.419L166.856 217.045C166.356 216.609 165.859 216.169 165.365 215.724L165.032 216.092C164.537 215.645 164.046 215.194 163.559 214.737L163.898 214.375C163.414 213.922 162.932 213.464 162.455 213.001L162.108 213.357C161.63 212.893 161.155 212.424 160.685 211.95L161.039 211.6C160.572 211.129 160.108 210.653 159.649 210.173L159.287 210.517C158.827 210.034 158.371 209.548 157.919 209.056L158.288 208.719C157.84 208.23 157.395 207.737 156.956 207.238L156.581 207.568C156.14 207.068 155.704 206.564 155.272 206.054L155.654 205.731C155.226 205.225 154.803 204.714 154.385 204.198L153.996 204.512C153.576 203.994 153.161 203.471 152.752 202.943L153.147 202.639C152.944 202.377 152.743 202.113 152.542 201.849L152.143 201.322L151.744 201.849C151.547 202.109 151.35 202.367 151.15 202.625L151.545 202.93C151.144 203.448 150.737 203.961 150.326 204.47L149.938 204.157C149.529 204.664 149.114 205.166 148.694 205.663L149.075 205.985C148.653 206.486 148.226 206.982 147.795 207.473L147.42 207.144C146.99 207.634 146.555 208.119 146.115 208.6L146.483 208.936C146.042 209.419 145.596 209.898 145.146 210.372L144.784 210.028C144.335 210.501 143.881 210.969 143.423 211.433L143.778 211.783C143.318 212.249 142.853 212.709 142.385 213.166L142.038 212.811C141.571 213.266 141.1 213.718 140.626 214.164L140.966 214.524C140.489 214.974 140.008 215.418 139.523 215.857L139.19 215.49C138.707 215.929 138.221 216.363 137.731 216.793L138.059 217.166C137.566 217.598 137.07 218.025 136.571 218.448L136.25 218.07C135.752 218.492 135.252 218.91 134.749 219.322L135.063 219.706C134.556 220.122 134.047 220.534 133.534 220.94L133.226 220.551C132.714 220.956 132.201 221.357 131.685 221.753L131.988 222.147C131.468 222.547 130.945 222.943 130.42 223.334L130.122 222.933C129.599 223.322 129.073 223.707 128.545 224.087L128.836 224.491C128.303 224.875 127.769 225.254 127.232 225.628L126.947 225.221C126.412 225.595 125.874 225.963 125.335 226.328L125.613 226.739C125.07 227.107 124.525 227.47 123.979 227.829L123.706 227.414C123.16 227.773 122.612 228.127 122.062 228.477L122.329 228.896C121.776 229.249 121.223 229.597 120.668 229.939L120.406 229.517C119.849 229.861 119.29 230.2 118.731 230.535L118.988 230.963C118.426 231.3 117.864 231.633 117.301 231.961L117.05 231.529C116.483 231.859 115.916 232.184 115.349 232.505L115.594 232.938C115.022 233.262 114.45 233.579 113.878 233.893L113.639 233.457C113.065 233.772 112.491 234.083 111.917 234.389L112.15 234.827C111.57 235.136 110.99 235.441 110.41 235.741L110.182 235.299C109.601 235.599 109.021 235.895 108.441 236.186L108.665 236.632C108.076 236.928 107.487 237.219 106.899 237.505L106.681 237.057C106.092 237.344 105.504 237.626 104.918 237.903L105.13 238.353C104.535 238.634 103.942 238.911 103.351 239.183L103.143 238.73C102.545 239.005 101.949 239.274 101.355 239.538L101.558 239.994C100.958 240.261 100.36 240.523 99.7646 240.78L99.5674 240.322C98.9623 240.583 98.3593 240.839 97.7598 241.09L97.9521 241.549C97.3431 241.804 96.7374 242.054 96.1348 242.298L95.9482 241.836C95.3409 242.082 94.7368 242.322 94.1367 242.558L94.3184 243.022C93.701 243.265 93.0874 243.5 92.4785 243.731L92.3018 243.266C91.6852 243.5 91.0729 243.728 90.4658 243.95L90.6367 244.419C90.0181 244.646 89.4048 244.867 88.7969 245.082L88.6309 244.611C88.0064 244.832 87.3877 245.047 86.7754 245.256L86.9355 245.728C86.3065 245.942 85.6845 246.151 85.0693 246.353L84.9141 245.878C84.286 246.084 83.6653 246.283 83.0527 246.476L83.2021 246.951C82.5706 247.15 81.948 247.343 81.334 247.528L81.1904 247.05C80.5522 247.242 79.9234 247.427 79.3057 247.604L79.4424 248.084C78.7989 248.269 78.1668 248.446 77.5469 248.615L77.416 248.135C76.7714 248.311 76.1398 248.478 75.5225 248.638L75.6465 249.12C74.9952 249.288 74.3595 249.447 73.7402 249.597L73.624 249.112C72.9701 249.27 72.3343 249.418 71.7188 249.556L71.8281 250.043C71.164 250.192 70.5225 250.328 69.9053 250.454L69.8066 249.965C69.5898 250.009 69.3757 250.05 69.165 250.092L68.7607 249.574L68.3672 249.882H68.3662L67.1787 248.362H67.1797L67.5732 248.055L66.3857 246.534L65.9902 246.842L64.8027 245.322L65.1973 245.014L64.0098 243.494L63.6162 243.802H63.6152L62.4277 242.281L62.8223 241.974L61.6338 240.454L61.2393 240.762L60.0518 239.242L60.4463 238.934L59.2588 237.414L58.8643 237.721L57.6768 236.201L58.0703 235.894L56.8828 234.374L56.4883 234.682L55.3008 233.161L55.6953 232.854L54.5068 231.334L54.1133 231.641L52.9258 230.121L53.3193 229.813L52.1318 228.294L51.7373 228.601L50.5498 227.081L50.9434 226.773L49.7559 225.254L49.3623 225.561L48.1738 224.041L48.5684 223.733L47.3799 222.214L46.9863 222.521L45.7988 221.001L46.1924 220.693L45.5986 219.934L45.5967 219.931L45.0283 219.214L44.6367 219.524L43.5 218.091L43.8916 217.78L42.7549 216.347L42.3633 216.657L41.2266 215.224L41.6182 214.913L41.0508 214.195L41.0322 214.173L41.0117 214.153L41 214.142L40.6719 214.469L40.6318 214.463L40.9775 214.118L40.2734 213.414L40.1182 214.381C40.0642 214.718 40.0107 215.055 39.957 215.392L40.4502 215.471H40.4521C40.3447 216.145 40.2378 216.819 40.1318 217.491H40.1299L39.6367 217.414C39.5304 218.089 39.4241 218.764 39.3193 219.437L39.8135 219.513C39.7083 220.188 39.6065 220.862 39.5029 221.535H39.501L39.0068 221.459C38.9029 222.135 38.7996 222.809 38.6973 223.482L39.1914 223.558C39.0887 224.233 38.9888 224.908 38.8877 225.581H38.8857L38.3906 225.507C38.2891 226.183 38.1887 226.858 38.0889 227.532L38.584 227.605C38.4838 228.281 38.3856 228.956 38.2871 229.63H38.2852L37.791 229.557C37.6921 230.233 37.5943 230.909 37.4971 231.583L37.9912 231.654H37.9932C37.8956 232.331 37.798 233.006 37.7021 233.681H37.7012L37.2061 233.61C37.1099 234.287 37.0153 234.962 36.9209 235.637L37.416 235.706H37.418C37.3232 236.383 37.2268 237.059 37.1338 237.733L36.6387 237.665C36.5453 238.342 36.4529 239.019 36.3613 239.693L36.8564 239.761H36.8584C36.7665 240.438 36.673 241.113 36.583 241.788L36.0879 241.723C35.9975 242.4 35.9079 243.077 35.8193 243.752L36.3154 243.817H36.3174C36.2285 244.495 36.1387 245.171 36.0518 245.847L35.5557 245.782C35.4683 246.46 35.3823 247.138 35.2969 247.813L35.793 247.876H35.7939C35.7082 248.554 35.6238 249.231 35.54 249.906H35.5381L35.042 249.845C35.0196 250.025 34.9969 250.206 34.9746 250.387L34.4668 250.349L34.4297 250.847L32.4609 250.698H32.4619L32.5 250.2L30.5322 250.051L30.4941 250.549L28.5264 250.4H28.5273L28.5645 249.902L26.5977 249.753L26.5596 250.251L24.5918 250.103H24.5928L24.6299 249.604L22.6631 249.455L22.625 249.953L20.6562 249.805H20.6572L20.6953 249.307L18.7275 249.157L18.6904 249.655L16.7217 249.507H16.7227L16.7607 249.009L14.793 248.859L14.7559 249.357L12.7871 249.209H12.7881L12.8262 248.71L10.8584 248.562L10.8203 249.06H10.8193L8.85254 248.911H8.85352L8.89062 248.412L6.92383 248.264L6.88574 248.762H6.88477L4.91797 248.613H4.91895L4.95605 248.114L2.98926 247.966L2.95117 248.464H2.9502L0.982422 248.315H0.983398L1.02148 247.816L0.704102 247.792C0.743279 247.689 0.783092 247.585 0.822266 247.481L0.354492 247.305L0.353516 247.304C0.589992 246.679 0.826183 246.052 1.0625 245.424L1.06348 245.425L1.53223 245.602C1.76719 244.977 2.00154 244.35 2.23633 243.722L1.76855 243.546L1.7666 243.545C2.00068 242.919 2.23585 242.291 2.46973 241.661L2.4707 241.662L2.93945 241.836C3.17171 241.211 3.40371 240.583 3.63574 239.954L3.16602 239.781L3.16406 239.78C3.3957 239.153 3.62895 238.524 3.86035 237.893L3.86133 237.894L4.33008 238.065C4.55967 237.439 4.78923 236.811 5.01855 236.182L4.54883 236.011L4.54688 236.01C4.77589 235.381 5.00564 234.751 5.23438 234.119L5.23535 234.12L5.70605 234.29C5.93309 233.663 6.15998 233.034 6.38672 232.403L5.91602 232.234L5.91309 232.233C6.13942 231.604 6.36676 230.973 6.59277 230.341L6.59473 230.342L7.06543 230.51C7.28999 229.881 7.51406 229.251 7.73828 228.619L7.26758 228.451L7.26465 228.45C7.48825 227.82 7.7123 227.189 7.93555 226.556L7.9375 226.557L8.40918 226.724C8.63126 226.094 8.85348 225.462 9.0752 224.829L8.60254 224.664L8.60059 224.663C8.82161 224.032 9.04304 223.4 9.26367 222.766L9.26465 222.767L9.7373 222.932C9.95686 222.301 10.1764 221.667 10.3955 221.033L9.92285 220.87L9.9209 220.869C10.1391 220.238 10.3574 219.605 10.5752 218.971L10.5771 218.972L11.0498 219.134C11.2668 218.502 11.4836 217.868 11.7002 217.232L11.2266 217.071L11.2246 217.07C11.4402 216.438 11.6559 215.804 11.8711 215.169L11.873 215.17L12.3467 215.33C12.5611 214.697 12.7753 214.063 12.9893 213.427L12.5156 213.268L12.5137 213.267C12.7267 212.633 12.9388 211.998 13.1514 211.362L13.1533 211.363L13.6279 211.521C13.8397 210.888 14.0514 210.252 14.2627 209.615L13.7881 209.458L13.7861 209.457C13.9965 208.823 14.2062 208.188 14.416 207.551L14.418 207.552L14.8936 207.708C15.1028 207.073 15.3118 206.437 15.5205 205.799L15.0449 205.644L15.043 205.643C15.2507 205.008 15.4578 204.371 15.665 203.733L15.667 203.734L16.1426 203.889C16.3491 203.253 16.5557 202.616 16.7617 201.978L16.2861 201.823L16.2842 201.822C16.4893 201.187 16.6939 200.55 16.8984 199.911L16.9004 199.912L17.377 200.064C17.5809 199.428 17.784 198.79 17.9873 198.15L17.5107 197.999L17.5088 197.998C17.7113 197.361 17.9143 196.723 18.1162 196.084L18.1182 196.085L18.5947 196.235C18.796 195.598 18.9966 194.959 19.1973 194.318L18.7207 194.169L18.7188 194.168C18.9187 193.53 19.1181 192.891 19.3174 192.251L19.3193 192.252L19.7969 192.4C19.9954 191.762 20.1937 191.123 20.3916 190.482L19.9141 190.335L19.9111 190.334C20.1086 189.695 20.3061 189.055 20.5029 188.413L20.5049 188.414L20.9834 188.562C21.1793 187.923 21.375 187.282 21.5703 186.641L21.0918 186.495L21.0889 186.494C21.2836 185.854 21.4787 185.214 21.6729 184.571L21.6748 184.572L22.1533 184.717C22.3466 184.077 22.5398 183.436 22.7324 182.794L22.2529 182.65L22.251 182.649C22.4432 182.009 22.6357 181.367 22.8271 180.724L22.8291 180.725L23.3076 180.867C23.4982 180.227 23.6891 179.586 23.8789 178.943L23.3994 178.802L23.3965 178.801C23.5862 178.159 23.7768 177.516 23.9658 176.871L23.9668 176.872L24.4463 177.013C24.6341 176.372 24.8217 175.73 25.0088 175.087L24.5293 174.947L24.5264 174.946C24.71 174.315 24.8961 173.683 25.0791 173.05L25.0889 173.016L25.5693 173.154C25.7545 172.513 25.9396 171.87 26.124 171.227L25.6436 171.089L25.6406 171.088C25.825 170.444 26.0107 169.8 26.1943 169.154L26.1953 169.155L26.6758 169.292C26.8583 168.65 27.0409 168.006 27.2227 167.361L26.7412 167.226L26.7383 167.225C26.9199 166.58 27.1033 165.936 27.2842 165.289L27.2852 165.29L27.7666 165.425C27.9466 164.781 28.1264 164.137 28.3057 163.491L27.8232 163.357L27.8213 163.356C28.0001 162.712 28.1784 162.067 28.3564 161.42L28.3584 161.421L28.8408 161.554C29.0183 160.909 29.1954 160.263 29.3721 159.616L28.8896 159.484L28.8877 159.483C29.0637 158.839 29.2388 158.193 29.4141 157.546L29.417 157.547L29.8994 157.678C30.0743 157.032 30.2488 156.385 30.4229 155.737L29.9404 155.607L29.9375 155.606C30.1108 154.961 30.2836 154.315 30.4561 153.668L30.459 153.669L30.9424 153.798C31.1147 153.151 31.2865 152.503 31.458 151.854L30.9746 151.726L30.9727 151.725C31.1432 151.079 31.3127 150.433 31.4824 149.785L31.4844 149.786L31.9688 149.913C32.1385 149.265 32.3076 148.616 32.4766 147.966L31.9932 147.84L31.9922 147.839C32.16 147.193 32.3252 146.546 32.4922 145.897L32.4951 145.898L32.9795 146.023C33.1465 145.375 33.3124 144.726 33.4785 144.075L32.9941 143.951L32.9932 143.95C33.1584 143.303 33.322 142.655 33.4863 142.006L33.4893 142.007L33.9736 142.13C34.1379 141.481 34.3015 140.831 34.4648 140.181L33.9805 140.059L33.9785 140.058C34.1412 139.41 34.3031 138.76 34.4648 138.11L34.4668 138.111L34.9521 138.232C35.1136 137.584 35.275 136.933 35.4355 136.282L34.9502 136.162L34.9473 136.161C35.1074 135.512 35.2675 134.861 35.4268 134.21L35.4287 134.211L35.915 134.33C36.0737 133.681 36.2319 133.03 36.3896 132.379L35.9033 132.262L35.9004 132.261C36.0581 131.61 36.2173 130.959 36.374 130.306L36.375 130.307L36.8613 130.423C37.0172 129.774 37.1722 129.123 37.3271 128.472L36.8408 128.356L36.8379 128.355C36.9929 127.704 37.1487 127.052 37.3027 126.398L37.3047 126.399L37.791 126.515C37.9443 125.864 38.0967 125.213 38.249 124.561L37.7627 124.446L37.7598 124.445C37.9118 123.794 38.0637 123.142 38.2148 122.489L38.2178 122.49L38.7041 122.603C38.7797 122.276 38.8553 121.949 38.9307 121.622C39.0054 121.298 39.0799 120.974 39.1543 120.65L38.667 120.539L38.665 120.538C38.8137 119.891 38.9615 119.245 39.1084 118.6L39.1104 118.601L39.5986 118.712C39.7459 118.065 39.8916 117.419 40.0371 116.773L39.5498 116.663L39.5479 116.662C39.6939 116.015 39.8381 115.368 39.9824 114.722L39.9854 114.723L40.4736 114.832C40.6182 114.185 40.7614 113.537 40.9043 112.892L40.416 112.784L40.415 112.783C40.5585 112.135 40.7001 111.487 40.8418 110.84L40.8438 110.841L41.332 110.948C41.4739 110.301 41.6157 109.653 41.7559 109.007L41.2666 108.901L41.2656 108.9C41.4064 108.251 41.5455 107.603 41.6846 106.955L41.6865 106.956L42.1758 107.061C42.3149 106.413 42.4534 105.766 42.5908 105.119L42.1016 105.015L42.1006 105.014C42.2388 104.364 42.3743 103.715 42.5107 103.066L42.5137 103.067L43.0029 103.171C43.1395 102.522 43.2753 101.874 43.4102 101.227L42.9199 101.125L42.9189 101.124C43.0545 100.474 43.1884 99.8237 43.3223 99.1748L43.3242 99.1758L43.8145 99.2764C43.9483 98.6272 44.0807 97.9786 44.2129 97.3311L43.7236 97.2314L43.7227 97.2305C43.8555 96.5797 43.9861 95.9294 44.1172 95.2803L44.1191 95.2812L44.6094 95.3799C44.7407 94.7298 44.8714 94.0801 45.001 93.4316L44.5107 93.334L44.5098 93.333C44.6399 92.6819 44.7681 92.0313 44.8965 91.3818L44.8984 91.3828L45.3887 91.4795C45.5173 90.8289 45.6455 90.1792 45.7725 89.5303L45.2812 89.4336C45.4087 88.7818 45.5334 88.1305 45.6592 87.4805L45.6611 87.4814L46.1523 87.5762C46.2784 86.9249 46.404 86.2746 46.5283 85.625L46.0371 85.5312L46.0352 85.5303C46.16 84.8781 46.2832 84.2266 46.4062 83.5762L46.4082 83.5771L46.9004 83.6699C47.0238 83.018 47.1459 82.3669 47.2676 81.7168L46.7764 81.625L46.7744 81.624C46.8966 80.9712 47.0172 80.3191 47.1377 79.668L47.1396 79.6689L47.6318 79.7607C47.7525 79.1083 47.8722 78.4563 47.9912 77.8057L47.499 77.7158L47.4971 77.7148C47.6165 77.0616 47.7348 76.4092 47.8525 75.7578L47.8545 75.7588L48.3467 75.8477C48.4647 75.1948 48.5819 74.5426 48.6982 73.8916L48.2061 73.8037L48.2041 73.8027C48.3209 73.1491 48.4367 72.4965 48.5518 71.8447L48.5537 71.8457L49.0469 71.9326C49.1622 71.2792 49.276 70.6261 49.3896 69.9746L48.8975 69.8896L48.8955 69.8887C49.0096 69.2345 49.122 68.581 49.2344 67.9287L49.2373 67.9297L49.7305 68.0146C49.8431 67.3608 49.9545 66.7076 50.0654 66.0557L49.5723 65.9717L49.5713 65.9707C49.6827 65.3161 49.7926 64.6624 49.9023 64.0098L49.9043 64.0107L50.3975 64.0928C50.5074 63.4388 50.6164 62.7858 50.7246 62.1338L50.2314 62.0518L50.2305 62.0508C50.3393 61.3956 50.4457 60.7411 50.5527 60.0879L50.5557 60.0889L51.0488 60.1699C51.1561 59.5154 51.2626 58.8615 51.3682 58.209L50.875 58.1289L50.873 58.1279C50.9792 57.472 51.084 56.817 51.1885 56.1631L51.1904 56.1641L51.6846 56.2432C51.7892 55.5883 51.8932 54.9341 51.9961 54.2812L51.502 54.2041L51.501 54.2031C51.6045 53.5465 51.7058 52.8908 51.8076 52.2363L51.8096 52.2373L52.3037 52.3145C52.4056 51.6593 52.5062 51.0046 52.6064 50.3516L52.1123 50.2764L52.1113 50.2754C52.2122 49.6181 52.311 48.9618 52.4102 48.3066L52.4131 48.3076L52.9072 48.3828C53.0065 47.7271 53.1046 47.0724 53.2021 46.4189L52.708 46.3447L52.707 46.3438C52.8051 45.6865 52.9007 45.0301 52.9971 44.375L52.999 44.376L53.4941 44.4492C53.5907 43.7929 53.6863 43.1375 53.7812 42.4834L53.2871 42.4121L53.2852 42.4111C53.3806 41.7535 53.4746 41.0968 53.5684 40.4414L53.5703 40.4424L54.0654 40.5137C54.1594 39.8568 54.2525 39.2005 54.3447 38.5459L53.8496 38.4756L53.8486 38.4746C53.9413 37.8169 54.0321 37.1603 54.123 36.5049L54.125 36.5059L54.6201 36.5752C54.7114 35.9175 54.802 35.2608 54.8916 34.6055L54.3965 34.5381L54.3945 34.5371C54.4845 33.8793 54.5738 33.2228 54.6621 32.5674L54.6641 32.5684L55.1592 32.6348C55.2479 31.9764 55.3359 31.3191 55.4229 30.6631L54.9268 30.5977L54.9248 30.5967C55.012 29.9389 55.099 29.2823 55.1846 28.627L55.1865 28.6279L55.6816 28.6924C55.7677 28.0333 55.8532 27.3754 55.9375 26.7188L55.4414 26.6553L55.4395 26.6543C55.5239 25.9968 55.6086 25.3406 55.6914 24.6855L55.6924 24.6865L56.1885 24.749C56.2719 24.0891 56.3548 23.4299 56.4365 22.7725L55.9404 22.7109L55.9385 22.71C56.0121 22.118 56.087 21.5274 56.1592 20.9375L56.1826 20.7412L56.6797 20.8018C56.7604 20.1416 56.8399 19.4827 56.9189 18.8252L56.4219 18.7656L56.4199 18.7646C56.4991 18.1058 56.5778 17.4483 56.6553 16.792L56.6572 16.793L57.1543 16.8516C57.2322 16.1917 57.3085 15.5331 57.3848 14.876L56.8887 14.8184L56.8867 14.8174C56.9633 14.1575 57.0394 13.499 57.1143 12.8418L57.1152 12.8428L57.6123 12.8994C57.6875 12.2398 57.7624 11.5817 57.8359 10.9248L57.3389 10.8691L57.3379 10.8682C57.4118 10.2077 57.4834 9.54837 57.5557 8.89062L57.5576 8.8916L58.0547 8.94629C58.1271 8.28705 58.1988 7.62911 58.2695 6.97266L57.7725 6.91895C57.8438 6.25745 57.9118 5.59713 57.9814 4.93848L57.9834 4.93945L58.4814 4.99219C58.5512 4.33206 58.6194 3.67289 58.6875 3.01562L58.1904 2.96484L58.1895 2.96387C58.258 2.30294 58.3247 1.64337 58.3916 0.985352L58.3936 0.986328L58.8906 1.03613C58.9088 0.857302 58.9273 0.678615 58.9453 0.5H59.4658V0H61.4111V0.5H63.3574V0H65.3027V0.5H67.248V0H69.1934V0.5H71.1387V0H73.085V0.5H75.0303V0H76.9756V0.5H78.9209V0H80.8662V0.5H82.8125V0H84.7578V0.5H86.7031V0H88.6484V0.5H90.5938V0H92.5391V0.5H94.4854V0H96.4307V0.5H96.6816C96.6499 0.584784 96.6177 0.670047 96.5859 0.754883L97.0547 0.929688C96.8221 1.55036 96.5897 2.17244 96.3574 2.7959L95.8887 2.62109C95.6575 3.2414 95.4262 3.86327 95.1953 4.48633L95.665 4.66016C95.4348 5.28163 95.2036 5.90411 94.9736 6.52832L94.5049 6.35547C94.2759 6.9768 94.047 7.59959 93.8184 8.22363L94.2881 8.39551C94.0602 9.01746 93.8331 9.64099 93.6055 10.2656H93.6045L93.1348 10.0938C92.9078 10.7166 92.6817 11.3413 92.4551 11.9668L92.9248 12.1367C92.6993 12.7591 92.4742 13.3828 92.249 14.0078L91.7783 13.8379C91.5535 14.4618 91.3289 15.0874 91.1045 15.7139L91.5752 15.8828C91.352 16.5057 91.13 17.1303 90.9072 17.7559H90.9062L90.4355 17.5879C90.2132 18.2122 89.9906 18.8379 89.7686 19.4648L90.2402 19.6318C90.0191 20.2562 89.7979 20.8818 89.5771 21.5088L89.1055 21.3428C88.8855 21.9675 88.6649 22.5935 88.4453 23.2207L88.918 23.3867C88.6989 24.0125 88.4794 24.6393 88.2607 25.2676L87.7891 25.1035C87.5715 25.7286 87.3539 26.3549 87.1367 26.9824L87.6094 27.1455C87.3925 27.7722 87.1755 28.4001 86.959 29.0293L86.4863 28.8662C86.2708 29.4925 86.0559 30.1203 85.8408 30.749L86.3135 30.9111C86.0991 31.5378 85.8858 32.1659 85.6719 32.7949H85.6709L85.1982 32.6338C84.9848 33.2614 84.7716 33.8905 84.5586 34.5205L85.0322 34.6807C84.8203 35.3077 84.609 35.936 84.3975 36.5654H84.3965L83.9229 36.4062C83.7115 37.0351 83.4999 37.6656 83.2891 38.2969L83.7627 38.4541C83.553 39.082 83.345 39.7116 83.1357 40.3418H83.1348L82.6611 40.1836C82.4521 40.8131 82.2427 41.4443 82.0342 42.0762L82.5088 42.2324H82.5098C82.3023 42.8611 82.0957 43.4911 81.8887 44.1221H81.8877L81.4121 43.9658C81.2055 44.5957 80.9991 45.2272 80.793 45.8594L81.2686 46.0146H81.2695C81.0642 46.6445 80.8582 47.2751 80.6533 47.9072L80.1777 47.7529C79.9735 48.3832 79.7692 49.0149 79.5654 49.6475L80.041 49.8008H80.042C79.8387 50.4318 79.6354 51.0639 79.4326 51.6973L78.9561 51.5449C78.7542 52.1756 78.5529 52.8075 78.3516 53.4404L78.8271 53.5928H78.8291C78.6281 54.2246 78.4261 54.8571 78.2256 55.4912L77.748 55.3408C77.5484 55.9721 77.3495 56.6048 77.1504 57.2383L77.627 57.3877H77.6289C77.4301 58.0203 77.2295 58.6533 77.0312 59.2881L76.5547 59.1406C76.3573 59.7727 76.1597 60.4058 75.9629 61.04L76.4404 61.1885H76.4414C76.245 61.8215 76.0484 62.4556 75.8525 63.0908L75.374 62.9434C75.1789 63.5763 74.9846 64.2106 74.79 64.8457L75.2676 64.9922H75.2686C75.0744 65.6259 74.8801 66.2606 74.6865 66.8965L74.208 66.751C74.015 67.385 73.8223 68.0201 73.6299 68.6562L74.1084 68.8018C73.9166 69.4358 73.7254 70.0709 73.5342 70.707H73.5332L73.0547 70.5625C72.8638 71.1976 72.6737 71.8345 72.4834 72.4717L72.9619 72.6143C72.7724 73.2488 72.5844 73.8848 72.3955 74.5215H72.3945L71.915 74.3789C71.7264 75.0148 71.5386 75.652 71.3506 76.29L71.8301 76.4316C71.6429 77.0666 71.457 77.7028 71.2705 78.3398H71.2695L70.7891 78.1992C70.6026 78.8359 70.4163 79.4736 70.2305 80.1123L70.7109 80.252C70.5261 80.8876 70.3424 81.5245 70.1582 82.1621H70.1572L69.6768 82.0234C69.4926 82.661 69.3086 83.2999 69.125 83.9395L69.6055 84.0771C69.423 84.713 69.2424 85.3504 69.0605 85.9883H69.0596L68.5781 85.8516C68.3962 86.4896 68.2144 87.1285 68.0332 87.7686L68.5146 87.9053C68.3343 88.5422 68.1553 89.1804 67.9756 89.8193H67.9746L67.4932 89.6836C67.3136 90.3222 67.134 90.962 66.9551 91.6025L67.4365 91.7373H67.4375C67.2594 92.375 67.0817 93.0137 66.9043 93.6533H66.9033L66.4219 93.5195C66.2446 94.1587 66.0672 94.7993 65.8906 95.4404L66.373 95.5732C66.1972 96.2116 66.0219 96.8509 65.8467 97.4912H65.8457L65.3633 97.3594C65.1883 97.999 65.0141 98.6397 64.8398 99.2812L65.3223 99.4121H65.3232C65.1496 100.051 64.9767 100.692 64.8037 101.333H64.8027L64.3193 101.203C64.1466 101.843 63.9747 102.485 63.8027 103.127L64.2852 103.256H64.2861C64.1147 103.896 63.9432 104.537 63.7725 105.179L63.2891 105.051C63.1187 105.691 62.948 106.333 62.7783 106.976L63.2617 107.104H63.2627C63.0935 107.744 62.9243 108.386 62.7559 109.028L62.2715 108.901L62.0195 109.866L61.9395 110.171L62.1807 110.375C62.4453 110.598 62.7089 110.818 62.9717 111.034L63.29 110.648V110.647C63.8265 111.089 64.3597 111.515 64.8887 111.928L64.8877 111.93L64.5801 112.323C65.1311 112.753 65.6787 113.168 66.2227 113.569L66.5186 113.167V113.166C67.0775 113.578 67.6326 113.975 68.1846 114.357V114.358L67.9004 114.77C68.1847 114.966 68.4684 115.159 68.751 115.349V115.35C69.0183 115.53 69.286 115.707 69.5527 115.881L69.8252 115.462V115.461C70.3639 115.812 70.9021 116.149 71.4395 116.474V116.476L71.1807 116.904C71.7357 117.24 72.2916 117.561 72.8477 117.868L73.0889 117.431L73.0898 117.428C73.6509 117.738 74.2119 118.035 74.7754 118.316V118.317L74.5518 118.765C75.1307 119.054 75.7119 119.328 76.2959 119.587L76.499 119.13V119.129C77.0823 119.388 77.6687 119.631 78.2588 119.859V119.861L78.0781 120.328C78.6791 120.561 79.2842 120.778 79.8945 120.98L80.0518 120.506V120.504C80.6543 120.703 81.2621 120.887 81.876 121.056V121.058L81.7432 121.54C82.3612 121.71 82.9857 121.865 83.6172 122.005L83.7246 121.517V121.515C84.341 121.651 84.9642 121.775 85.5957 121.882V121.883L85.5117 122.375C86.1399 122.482 86.7763 122.574 87.4209 122.652L87.4805 122.156V122.154C88.1039 122.23 88.7357 122.292 89.377 122.341V122.344L89.3389 122.842C89.9711 122.89 90.6122 122.926 91.2627 122.948L91.2803 122.448V122.446C91.9059 122.468 92.5407 122.478 93.1855 122.476L93.1865 122.478L93.1885 122.978C93.5067 122.976 93.8274 122.972 94.1504 122.965H94.1543C94.4891 122.955 94.8237 122.941 95.1572 122.925L95.1328 122.426L95.1318 122.425C95.7946 122.392 96.4547 122.346 97.1123 122.289L97.1133 122.291L97.1562 122.789C97.8229 122.732 98.4873 122.662 99.1484 122.581L99.0869 122.085L99.0859 122.082C99.7436 122.001 100.399 121.909 101.051 121.805L101.052 121.808L101.131 122.301C101.791 122.196 102.448 122.079 103.103 121.951L103.007 121.461L103.006 121.458C103.656 121.331 104.303 121.194 104.947 121.045L104.948 121.047L105.061 121.534C105.711 121.384 106.358 121.224 107.003 121.053L106.875 120.569L106.874 120.567C107.513 120.398 108.15 120.218 108.783 120.028L108.784 120.029L108.929 120.508C109.567 120.316 110.203 120.115 110.835 119.904L110.677 119.43L110.676 119.429C111.303 119.219 111.928 119.001 112.55 118.772L112.551 118.773L112.723 119.242C113.348 119.013 113.97 118.774 114.589 118.526L114.403 118.062L114.402 118.061C115.016 117.815 115.627 117.56 116.235 117.298L116.236 117.3L116.435 117.759C117.046 117.495 117.654 117.223 118.259 116.942L118.048 116.489L118.047 116.487C118.647 116.209 119.243 115.923 119.837 115.63L119.838 115.631L120.06 116.079C120.656 115.784 121.249 115.482 121.839 115.173L121.607 114.73L121.606 114.729C122.192 114.421 122.774 114.107 123.353 113.786L123.354 113.787L123.597 114.225C124.178 113.902 124.756 113.573 125.331 113.237L125.079 112.806C125.65 112.472 126.218 112.132 126.782 111.786L126.783 111.787L127.044 112.213C127.611 111.866 128.175 111.513 128.735 111.154L128.466 110.733L128.465 110.732C129.022 110.376 129.575 110.013 130.126 109.646L130.127 109.647L130.405 110.063C130.958 109.695 131.508 109.319 132.054 108.94L131.769 108.53L131.768 108.528C132.311 108.151 132.852 107.769 133.389 107.383L133.39 107.384L133.682 107.79C134.221 107.402 134.757 107.008 135.289 106.611L134.99 106.211L134.989 106.21C135.52 105.814 136.047 105.414 136.571 105.011L136.572 105.012L136.878 105.407C137.404 105.002 137.928 104.592 138.447 104.18L138.136 103.788L138.135 103.787C138.653 103.375 139.168 102.96 139.68 102.541L139.681 102.542L139.998 102.929C140.512 102.508 141.023 102.084 141.53 101.657L141.209 101.274L141.208 101.273C141.715 100.847 142.218 100.416 142.718 99.9844L142.72 99.9863L143.047 100.364C143.55 99.9296 144.05 99.4927 144.546 99.0537L144.214 98.6787L144.212 98.6768C144.708 98.2372 145.201 97.7958 145.69 97.3525L145.692 97.3545L146.028 97.7246C146.521 97.2777 147.011 96.8296 147.496 96.3799L147.156 96.0127L147.154 96.0107C147.641 95.5594 148.123 95.1059 148.603 94.6523L148.605 94.6553L148.949 95.0186C149.433 94.5609 149.912 94.1025 150.388 93.6436L150.04 93.2832L150.038 93.2812C150.516 92.8197 150.99 92.3577 151.46 91.8955L151.462 91.8975L151.812 92.2539C151.931 92.1376 152.048 92.0206 152.166 91.9043C152.284 92.0207 152.402 92.1375 152.521 92.2539L152.871 91.8975L152.872 91.8955C153.342 92.3574 153.818 92.818 154.296 93.2793L154.294 93.2822L153.947 93.6416C154.423 94.1003 154.902 94.5592 155.386 95.0166L155.729 94.6533L155.731 94.6504C156.211 95.1037 156.694 95.5567 157.181 96.0078L157.18 96.0098L156.84 96.377C157.325 96.8265 157.815 97.2751 158.308 97.7217L158.644 97.3506L158.645 97.3486C159.134 97.7918 159.626 98.2334 160.123 98.6729L160.122 98.6748L159.791 99.0498C160.287 99.4887 160.787 99.9258 161.29 100.36L161.617 99.9814L161.618 99.9795C162.118 100.411 162.621 100.842 163.128 101.269V101.27L162.806 101.652C163.313 102.079 163.824 102.503 164.339 102.924L164.655 102.537V102.536C165.167 102.955 165.682 103.37 166.201 103.782V103.783L165.89 104.175C166.409 104.588 166.933 104.997 167.459 105.402L167.765 105.007V105.006C168.288 105.409 168.816 105.808 169.347 106.204L169.346 106.206L169.047 106.606C169.579 107.003 170.116 107.397 170.655 107.785L170.947 107.379V107.378C171.484 107.764 172.024 108.146 172.567 108.523V108.525L172.282 108.937C172.828 109.316 173.378 109.69 173.931 110.059L174.209 109.643V109.642C174.759 110.009 175.313 110.371 175.87 110.728V110.729L175.601 111.15C176.161 111.509 176.724 111.862 177.291 112.209L177.553 111.783V111.782C178.117 112.128 178.684 112.468 179.255 112.802L179.004 113.233C179.579 113.569 180.157 113.899 180.738 114.222L180.981 113.784V113.783C181.56 114.104 182.142 114.418 182.728 114.726V114.728L182.495 115.17C183.085 115.48 183.678 115.782 184.274 116.077L184.496 115.629V115.627C185.09 115.921 185.686 116.206 186.286 116.484V116.486L186.076 116.94C186.681 117.221 187.289 117.493 187.899 117.757L188.098 117.298V117.296C188.706 117.559 189.317 117.814 189.931 118.06V118.061L189.744 118.525C190.363 118.773 190.986 119.012 191.611 119.241L191.783 118.771V118.771C192.405 118.999 193.029 119.218 193.656 119.428V119.429L193.498 119.903C194.131 120.115 194.767 120.316 195.405 120.508L195.549 120.028V120.027C196.183 120.218 196.819 120.397 197.459 120.567V120.569L197.33 121.052C197.974 121.223 198.622 121.384 199.272 121.534L199.385 121.047V121.044C200.029 121.193 200.676 121.331 201.326 121.458V121.461L201.23 121.951C201.885 122.079 202.542 122.196 203.202 122.301L203.281 121.807V121.804C203.934 121.908 204.588 122.001 205.246 122.082V122.085L205.185 122.581C205.846 122.662 206.51 122.732 207.177 122.789L207.22 122.291V122.289C207.877 122.346 208.537 122.392 209.2 122.425V122.426L209.176 122.925C209.509 122.941 209.843 122.955 210.178 122.965H210.182C210.505 122.973 210.825 122.978 211.144 122.979L211.146 122.479V122.479C211.792 122.482 212.427 122.473 213.053 122.452L213.054 122.454L213.069 122.954C213.72 122.933 214.362 122.899 214.994 122.852L214.957 122.353L214.956 122.351C215.598 122.303 216.23 122.241 216.854 122.166L216.854 122.169L216.914 122.665C217.559 122.588 218.195 122.496 218.823 122.39L218.74 121.896L218.739 121.896C219.371 121.789 219.994 121.666 220.61 121.53L220.611 121.532L220.72 122.021C221.351 121.881 221.976 121.726 222.595 121.556L222.462 121.074L222.461 121.071C223.075 120.902 223.683 120.72 224.285 120.521L224.286 120.521L224.443 120.996C225.054 120.794 225.659 120.576 226.26 120.343L226.079 119.876L226.078 119.874C226.668 119.645 227.255 119.401 227.838 119.142L227.839 119.144L228.042 119.6C228.626 119.34 229.207 119.065 229.786 118.775L229.562 118.328L229.561 118.327C230.124 118.045 230.684 117.748 231.245 117.437L231.247 117.438L231.49 117.876C232.046 117.568 232.601 117.245 233.155 116.908L232.896 116.48L232.895 116.479C233.431 116.153 233.969 115.815 234.508 115.463L234.509 115.464L234.782 115.882C235.048 115.708 235.313 115.53 235.579 115.35L235.58 115.351C235.863 115.161 236.148 114.967 236.433 114.77L236.148 114.358L236.147 114.357C236.699 113.975 237.255 113.579 237.813 113.167L238.11 113.569C238.654 113.168 239.202 112.753 239.753 112.323L239.445 111.93L239.443 111.928C239.972 111.515 240.506 111.089 241.042 110.647L241.043 110.648L241.36 111.034L242.152 110.375L242.394 110.171L242.313 109.866L242.061 108.901L241.577 109.028H241.575C241.406 108.386 241.237 107.744 241.067 107.104H241.069L241.553 106.976C241.383 106.333 241.212 105.691 241.041 105.051L240.559 105.18H240.557C240.386 104.538 240.215 103.897 240.043 103.257H240.044L240.526 103.127C240.354 102.485 240.182 101.843 240.009 101.203L239.526 101.334H239.524C239.351 100.693 239.178 100.052 239.004 99.4131H239.005L239.487 99.2822C239.313 98.6407 239.138 97.9999 238.963 97.3604L238.48 97.4922H238.479C238.303 96.8519 238.127 96.2126 237.951 95.5742H237.953L238.435 95.4414C238.258 94.8004 238.081 94.1596 237.903 93.5205L237.422 93.6543H237.42C237.242 93.0144 237.065 92.3752 236.887 91.7373L237.369 91.6035C237.19 90.963 237.01 90.3231 236.83 89.6846L236.349 89.8203H236.347C236.167 89.1814 235.987 88.5432 235.807 87.9062L236.289 87.7705C236.108 87.1305 235.925 86.4906 235.743 85.8525L235.263 85.9902H235.261C235.079 85.352 234.898 84.7143 234.715 84.0781L235.195 83.9404C235.012 83.3011 234.828 82.6627 234.644 82.0254L234.163 82.1641H234.161C233.977 81.5264 233.793 80.8895 233.607 80.2539H233.609L234.089 80.1143C233.903 79.4756 233.717 78.8378 233.53 78.2012L233.05 78.3418H233.048C232.861 77.7048 232.676 77.0685 232.488 76.4336H232.489L232.969 76.292C232.781 75.654 232.591 75.0168 232.402 74.3809L231.924 74.5234H231.922C231.733 73.8866 231.543 73.2509 231.354 72.6162H231.355L231.835 72.4727C231.645 71.8356 231.454 71.1994 231.263 70.5645L230.783 70.709H230.781C230.59 70.0729 230.399 69.4377 230.207 68.8037H230.208L230.687 68.6582C230.494 68.0221 230.302 67.3869 230.108 66.7529L229.63 66.8984H229.628C229.434 66.2629 229.24 65.6285 229.046 64.9951H229.048L229.526 64.8486C229.332 64.2133 229.136 63.5785 228.94 62.9453L228.463 63.0928H228.462C228.266 62.4575 228.069 61.8235 227.872 61.1904H227.874L228.352 61.042C228.155 60.4077 227.957 59.7746 227.76 59.1426L227.281 59.291C227.083 58.6564 226.883 58.0231 226.685 57.3906H226.687L227.164 57.2402C226.965 56.6067 226.765 55.9741 226.565 55.3428L226.088 55.4941C225.887 54.8597 225.685 54.2269 225.483 53.5947H225.485L225.962 53.4424C225.76 52.8094 225.558 52.1776 225.356 51.5469L224.881 51.6992H224.879C224.676 51.0662 224.473 50.4345 224.27 49.8037H224.271L224.747 49.6494C224.543 49.0169 224.339 48.3851 224.135 47.7549L223.659 47.9092H223.657C223.452 47.2772 223.247 46.6463 223.042 46.0166H223.044L223.52 45.8613C223.313 45.2291 223.106 44.5977 222.899 43.9678L222.425 44.124H222.423C222.216 43.4931 222.009 42.863 221.802 42.2344H221.803L222.277 42.0781C222.069 41.4462 221.859 40.8151 221.65 40.1855L221.177 40.3438H221.175C220.966 39.7137 220.757 39.0847 220.547 38.457L221.022 38.2988C220.812 37.6676 220.6 37.0371 220.389 36.4082L219.915 36.5674H219.913C219.701 35.9376 219.489 35.309 219.277 34.6816H219.279L219.753 34.5225C219.54 33.8925 219.327 33.2633 219.113 32.6357L218.64 32.7969H218.638C218.424 32.1674 218.21 31.5391 217.995 30.9121H217.997L218.47 30.75C218.255 30.1213 218.04 29.4934 217.824 28.8672L217.352 29.0303H217.351C217.134 28.4013 216.916 27.774 216.699 27.1475H216.701L217.174 26.9834C216.957 26.3559 216.739 25.7295 216.521 25.1045L216.05 25.2686H216.049C215.83 24.6402 215.61 24.0135 215.391 23.3877H215.393L215.864 23.2227C215.645 22.5953 215.425 21.9685 215.205 21.3438L214.733 21.5098H214.732C214.512 20.8827 214.29 20.2573 214.068 19.6328H214.07L214.542 19.4658C214.32 18.8388 214.097 18.2133 213.875 17.5889L213.404 17.7568H213.402C213.179 17.131 212.958 16.506 212.734 15.8828L213.205 15.7148C212.981 15.0883 212.756 14.4628 212.531 13.8389L212.061 14.0088H212.06C211.834 13.3838 211.609 12.76 211.384 12.1377L211.855 11.9678C211.629 11.3422 211.402 10.7176 211.175 10.0947L210.705 10.2656H210.703C210.476 9.64128 210.248 9.01815 210.021 8.39648H210.021L210.491 8.22363C210.263 7.59969 210.034 6.9767 209.805 6.35547L209.335 6.5293C209.105 5.9048 208.874 5.28191 208.644 4.66016H208.646L209.114 4.48633C208.883 3.86322 208.652 3.24145 208.421 2.62109L207.951 2.7959C207.719 2.17244 207.486 1.55036 207.254 0.929688H207.255L207.724 0.753906C207.692 0.669186 207.66 0.584668 207.628 0.5H207.879V0H209.824V0.5H211.77V0H213.716V0.5H215.661V0H217.606V0.5H219.552V0H221.497V0.5H223.443V0H225.389V0.5H227.334V0H229.279V0.5H231.225V0H233.171V0.5H235.116V0H237.062V0.5H239.007V0H240.952V0.5H242.898V0H244.844V0.5H245.364C245.382 0.678615 245.401 0.857302 245.419 1.03613L245.916 0.986328L245.917 0.985352C245.984 1.64337 246.051 2.30294 246.119 2.96387V2.96484L245.622 3.01562C245.69 3.67288 245.759 4.33206 245.829 4.99219L246.326 4.93945L246.327 4.93848C246.397 5.59712 246.465 6.25746 246.536 6.91895H246.537L246.04 6.97266C246.111 7.62909 246.182 8.28707 246.255 8.94629L246.752 8.8916L246.753 8.89062C246.825 9.5484 246.898 10.2076 246.972 10.8682V10.8691L246.475 10.9248C246.548 11.5817 246.623 12.2398 246.698 12.8994L247.194 12.8428L247.195 12.8418C247.27 13.4987 247.346 14.1569 247.423 14.8164L247.422 14.8174L246.926 14.876C247.002 15.5331 247.079 16.1918 247.157 16.8516L247.653 16.793L247.654 16.792C247.732 17.4479 247.81 18.1051 247.89 18.7637L247.889 18.7646L247.393 18.8252C247.472 19.4827 247.551 20.1417 247.632 20.8018L248.128 20.7402C248.208 21.3956 248.291 22.052 248.373 22.71L248.372 22.7109L247.876 22.7725C247.958 23.4297 248.041 24.0883 248.124 24.748L248.62 24.6855V24.6846C248.703 25.3396 248.787 25.9958 248.872 26.6533L248.871 26.6543L248.375 26.7188C248.459 27.3754 248.545 28.0333 248.631 28.6924L249.127 28.6279V28.627C249.213 29.2821 249.3 29.9382 249.388 30.5957L249.386 30.5967L248.891 30.6631C248.978 31.3188 249.066 31.9757 249.154 32.6338L249.65 32.5674V32.5664C249.739 33.2218 249.828 33.8784 249.918 34.5361V34.5371L249.422 34.6045C249.512 35.2598 249.603 35.9166 249.694 36.5742L250.189 36.5059L250.19 36.5049C250.282 37.16 250.373 37.8163 250.466 38.4736L250.465 38.4746L249.97 38.5449C250.062 39.1996 250.156 39.8557 250.25 40.5127L250.745 40.4414L250.746 40.4404C250.84 41.0958 250.933 41.7525 251.028 42.4102H251.029L250.534 42.4824C250.629 43.1365 250.725 43.7919 250.821 44.4482L251.316 44.375L251.317 44.374C251.414 45.0294 251.509 45.6862 251.607 46.3438H251.608L251.114 46.418C251.212 47.0715 251.31 47.7262 251.409 48.3818L251.904 48.3066L251.905 48.3057C252.005 48.961 252.102 49.6179 252.203 50.2754H252.204L251.71 50.3506C251.81 51.0036 251.912 51.6584 252.014 52.3135L252.508 52.2363L252.509 52.2354C252.611 52.8895 252.712 53.5449 252.815 54.2012V54.2021L252.322 54.2803C252.425 54.9331 252.529 55.5873 252.634 56.2422L253.127 56.1631L253.129 56.1621C253.233 56.8156 253.337 57.4704 253.443 58.126V58.127L252.95 58.207C253.056 58.8596 253.162 59.5134 253.27 60.168L253.763 60.0869L253.764 60.0859C253.871 60.7392 253.978 61.3936 254.087 62.0488V62.0498L253.594 62.1318C253.702 62.7841 253.811 63.4376 253.921 64.0918L254.414 64.0088L254.415 64.0078C254.525 64.6604 254.635 65.3142 254.746 65.9688V65.9697L254.254 66.0537C254.365 66.7056 254.476 67.3589 254.589 68.0127L255.082 67.9277L255.083 67.9268C255.195 68.5791 255.309 69.2325 255.423 69.8867L255.422 69.8877L254.93 69.9736C255.043 70.625 255.157 71.2774 255.272 71.9307L255.766 71.8438L255.767 71.8428C255.882 72.4944 255.996 73.1472 256.113 73.8008V73.8018L255.621 73.8896C255.737 74.5406 255.855 75.1929 255.973 75.8457L256.465 75.7568L256.466 75.7559C256.584 76.4073 256.702 77.0597 256.821 77.7129L256.82 77.7139L256.328 77.8037C256.447 78.4543 256.568 79.1064 256.688 79.7588L257.18 79.668L257.181 79.667C257.301 80.3178 257.422 80.9695 257.544 81.6221V81.623L257.052 81.7148C257.173 82.365 257.297 83.0161 257.42 83.668L257.911 83.5752L257.912 83.5742C258.035 84.2247 258.158 84.8761 258.283 85.5283L258.282 85.5293L257.791 85.623C257.915 86.2726 258.041 86.9229 258.167 87.5742L258.657 87.4795L258.659 87.4785C258.785 88.1287 258.911 88.7798 259.038 89.4316L259.037 89.4326L258.547 89.5283C258.674 90.1772 258.801 90.827 258.93 91.4775L259.42 91.3809L259.422 91.3799C259.55 92.0294 259.679 92.6799 259.809 93.3311L259.808 93.332L259.317 93.4307C259.447 94.079 259.578 94.728 259.709 95.3779L260.199 95.2793L260.2 95.2783C260.331 95.9275 260.462 96.5777 260.595 97.2285V97.2295L260.104 97.3291C260.237 97.9769 260.369 98.626 260.503 99.2754L260.993 99.1738L260.995 99.1729C261.129 99.8216 261.261 100.472 261.396 101.122V101.123L260.907 101.226C261.042 101.873 261.177 102.52 261.313 103.169L261.803 103.066L261.805 103.065C261.941 103.714 262.077 104.363 262.215 105.013V105.014L261.726 105.117C261.863 105.764 262.001 106.411 262.14 107.06L262.629 106.955L262.631 106.954C262.77 107.602 262.907 108.25 263.048 108.899V108.9L262.56 109.006C262.7 109.652 262.84 110.3 262.981 110.947L263.471 110.84L263.472 110.839C263.613 111.486 263.754 112.134 263.897 112.782V112.783L263.409 112.891C263.552 113.537 263.696 114.184 263.84 114.831L264.327 114.722L264.329 114.721C264.473 115.367 264.617 116.014 264.763 116.661L264.762 116.662L264.274 116.772C264.42 117.418 264.566 118.064 264.713 118.711L265.2 118.601L265.201 118.6C265.348 119.245 265.495 119.891 265.644 120.538L265.643 120.539L265.155 120.65C265.2 120.846 265.245 121.042 265.29 121.237L265.243 121.262L265.332 121.646C265.408 121.973 265.483 122.299 265.559 122.626L266.046 122.513L266.048 122.512C266.199 123.165 266.351 123.817 266.504 124.468L266.502 124.469L266.015 124.583C266.167 125.235 266.321 125.887 266.475 126.537L266.961 126.422V126.421C267.115 127.074 267.272 127.726 267.428 128.377L267.426 128.378L266.939 128.493C267.095 129.144 267.25 129.795 267.406 130.444L267.892 130.327C268.049 130.98 268.209 131.631 268.367 132.281L268.365 132.282L267.879 132.399C268.037 133.05 268.196 133.701 268.354 134.35L268.84 134.231L268.841 134.23C269 134.882 269.162 135.532 269.322 136.181L269.32 136.182L268.835 136.302C268.996 136.953 269.158 137.602 269.319 138.251L269.804 138.13L269.806 138.129C269.968 138.779 270.13 139.429 270.293 140.077L270.292 140.078L269.807 140.199C269.97 140.85 270.134 141.5 270.299 142.148L270.784 142.025L270.786 142.024C270.951 142.673 271.114 143.321 271.279 143.968V143.969L270.795 144.093C270.961 144.743 271.128 145.393 271.295 146.041L271.779 145.916L271.781 145.915C271.948 146.563 272.114 147.21 272.282 147.855V147.856L271.798 147.982C271.967 148.633 272.137 149.282 272.307 149.93L272.791 149.803L272.793 149.802C272.963 150.449 273.132 151.096 273.303 151.741L273.302 151.742L272.818 151.87C272.99 152.519 273.162 153.167 273.335 153.813L273.818 153.685L273.82 153.684C273.993 154.331 274.165 154.977 274.339 155.622L274.338 155.623L273.854 155.753C274.029 156.401 274.204 157.047 274.379 157.692L274.861 157.562L274.863 157.561C275.039 158.208 275.214 158.853 275.391 159.498L275.389 159.499L274.906 159.631C275.083 160.278 275.261 160.923 275.438 161.567L275.921 161.435V161.434C276.099 162.08 276.279 162.726 276.458 163.37L276.456 163.371L275.975 163.505C276.154 164.15 276.334 164.795 276.514 165.438L276.995 165.304L276.996 165.303C277.177 165.949 277.36 166.593 277.542 167.237L277.539 167.238L277.059 167.374C277.241 168.018 277.423 168.662 277.605 169.304L278.086 169.167L278.087 169.166C278.271 169.812 278.456 170.456 278.641 171.1L278.639 171.101L278.158 171.238C278.343 171.882 278.528 172.525 278.713 173.166L279.192 173.026C279.379 173.672 279.568 174.315 279.755 174.958L279.754 174.959L279.273 175.099C279.461 175.741 279.648 176.383 279.836 177.023L280.316 176.883V176.882C280.505 177.526 280.696 178.169 280.886 178.811L280.884 178.812L280.404 178.953C280.594 179.596 280.785 180.237 280.976 180.877L281.455 180.734V180.733C281.647 181.377 281.84 182.018 282.032 182.659L282.03 182.66L281.552 182.804C281.744 183.446 281.937 184.087 282.131 184.727L282.609 184.581V184.58C282.804 185.222 282.999 185.863 283.194 186.503L283.193 186.504L282.715 186.649C282.91 187.291 283.106 187.932 283.302 188.57L283.78 188.423L283.781 188.422C283.978 189.063 284.176 189.703 284.373 190.342L284.371 190.343L283.894 190.49C284.092 191.131 284.29 191.771 284.488 192.409L284.966 192.26L284.967 192.259C285.166 192.899 285.366 193.538 285.566 194.176L285.565 194.177L285.088 194.326C285.289 194.966 285.49 195.605 285.691 196.242L286.168 196.092L286.169 196.091C286.371 196.73 286.574 197.368 286.776 198.005L286.775 198.006L286.299 198.157C286.502 198.796 286.705 199.435 286.909 200.071L287.386 199.919L287.387 199.918C287.591 200.556 287.796 201.193 288.001 201.829L288 201.83L287.524 201.983C287.73 202.622 287.937 203.26 288.144 203.896L288.619 203.74L288.62 203.739C288.827 204.377 289.034 205.014 289.242 205.648V205.649L288.767 205.805C288.975 206.442 289.184 207.079 289.394 207.714L289.868 207.557L289.869 207.556C290.079 208.193 290.29 208.828 290.5 209.462L290.499 209.463L290.024 209.621C290.236 210.258 290.447 210.893 290.659 211.526L291.133 211.368L291.134 211.367C291.346 212.003 291.559 212.638 291.772 213.271L291.771 213.272L291.298 213.432C291.512 214.067 291.726 214.702 291.94 215.335L292.414 215.175L292.415 215.174C292.63 215.809 292.846 216.442 293.062 217.074L293.06 217.075L292.587 217.237C292.803 217.872 293.02 218.506 293.237 219.138L293.71 218.975L293.711 218.974C293.929 219.608 294.147 220.241 294.365 220.873L294.364 220.874L293.892 221.037C294.111 221.671 294.33 222.304 294.55 222.935L295.022 222.771L295.023 222.77C295.244 223.403 295.465 224.035 295.686 224.666L295.685 224.667L295.212 224.832C295.434 225.465 295.656 226.097 295.878 226.727L296.35 226.56V226.559C296.573 227.192 296.798 227.823 297.021 228.453L297.02 228.454L296.549 228.621C296.773 229.253 296.997 229.883 297.222 230.512L297.692 230.344L297.693 230.343C297.919 230.975 298.146 231.606 298.372 232.235L298.371 232.236L297.9 232.405C298.127 233.036 298.354 233.665 298.581 234.292L299.051 234.122ZM155.797 172.286L157.138 173.964V173.965L156.747 174.276L158.088 175.955L158.478 175.643L159.818 177.321L159.429 177.634L160.099 178.473L160.111 178.488L160.124 178.503C160.355 178.75 160.588 178.998 160.822 179.246L161.187 178.903L161.188 178.901C161.652 179.395 162.122 179.89 162.597 180.388L162.596 180.39L162.233 180.735C162.702 181.227 163.176 181.72 163.655 182.215L164.015 181.867L164.016 181.865C164.487 182.353 164.963 182.842 165.444 183.332V183.333L165.088 183.684C165.565 184.169 166.047 184.656 166.533 185.143L166.887 184.789V184.788C167.366 185.268 167.851 185.748 168.34 186.229V186.229L167.989 186.587C168.475 187.064 168.965 187.541 169.459 188.018L169.807 187.657L169.808 187.655C170.297 188.127 170.791 188.597 171.289 189.067L171.287 189.07L170.944 189.434C171.44 189.902 171.94 190.37 172.444 190.836L172.783 190.469V190.468C173.283 190.93 173.787 191.39 174.295 191.849V191.85L173.96 192.221C174.467 192.678 174.977 193.135 175.492 193.589L175.823 193.213V193.212C176.334 193.662 176.848 194.112 177.367 194.558L177.042 194.938C177.56 195.383 178.082 195.825 178.608 196.265L178.93 195.881V195.88C179.452 196.317 179.979 196.751 180.509 197.182V197.183L180.194 197.571C180.725 198.003 181.26 198.43 181.799 198.854L182.108 198.462V198.461C182.644 198.883 183.184 199.301 183.727 199.715V199.716L183.423 200.114C183.967 200.53 184.516 200.94 185.068 201.347L185.364 200.944V200.943C185.914 201.348 186.467 201.748 187.023 202.144V202.145L186.733 202.552C187.292 202.949 187.855 203.341 188.421 203.728L188.703 203.315L188.704 203.313C189.267 203.698 189.834 204.078 190.404 204.452V204.454L190.131 204.872C190.705 205.248 191.282 205.619 191.862 205.983L192.128 205.56V205.558C192.706 205.92 193.289 206.277 193.874 206.627V206.629L193.617 207.059C194.206 207.411 194.799 207.757 195.395 208.096L195.642 207.661V207.66C196.235 207.998 196.832 208.327 197.433 208.65V208.652L197.196 209.093C197.801 209.418 198.41 209.737 199.021 210.047L199.248 209.601V209.599C199.857 209.908 200.469 210.209 201.085 210.502V210.504L200.87 210.955C201.491 211.25 202.115 211.537 202.742 211.815L202.945 211.358V211.357C203.57 211.634 204.198 211.901 204.829 212.16L204.828 212.163L204.638 212.625C205.274 212.886 205.913 213.139 206.556 213.381L206.732 212.913V212.911C207.372 213.152 208.014 213.383 208.659 213.604V213.606L208.497 214.079C209.148 214.302 209.801 214.515 210.458 214.718L210.605 214.24V214.237C211.258 214.438 211.913 214.629 212.571 214.809V214.812L212.439 215.294C213.103 215.475 213.77 215.644 214.439 215.803L214.555 215.316V215.314C215.218 215.472 215.885 215.616 216.555 215.75V215.754L216.457 216.244C217.131 216.379 217.808 216.503 218.488 216.614L218.569 216.12V216.118C219.242 216.228 219.917 216.327 220.596 216.412V216.414L220.533 216.91C221.215 216.996 221.899 217.069 222.586 217.13L222.63 216.632V216.628C223.308 216.688 223.988 216.736 224.672 216.771V216.773L224.646 217.272C224.991 217.29 225.336 217.304 225.682 217.314H225.687C226.016 217.321 226.343 217.325 226.667 217.326L226.669 216.826V216.824C227.326 216.826 227.972 216.814 228.608 216.791L228.609 216.794L228.628 217.294C229.29 217.27 229.942 217.234 230.585 217.184L230.546 216.685L230.545 216.682C231.198 216.631 231.84 216.568 232.475 216.489L232.476 216.491L232.537 216.987C233.193 216.906 233.841 216.81 234.48 216.699L234.396 216.207L234.395 216.206C235.037 216.095 235.671 215.968 236.298 215.826L236.299 215.828L236.408 216.316C237.051 216.172 237.686 216.01 238.314 215.834L238.18 215.354L238.179 215.35C238.802 215.175 239.419 214.984 240.031 214.777L240.033 214.781L240.193 215.255C240.813 215.046 241.428 214.82 242.039 214.579L241.855 214.114L241.854 214.11C242.452 213.874 243.047 213.621 243.64 213.354L243.642 213.357L243.848 213.813C244.44 213.546 245.03 213.262 245.617 212.963L245.391 212.518L245.389 212.515C245.96 212.224 246.53 211.919 247.1 211.599L247.101 211.601L247.346 212.036C247.909 211.719 248.472 211.388 249.035 211.042L248.772 210.615L248.771 210.614C249.315 210.28 249.859 209.931 250.405 209.569L250.407 209.571L250.684 209.988C251.22 209.633 251.757 209.264 252.296 208.883L252.007 208.475L252.005 208.473C252.526 208.104 253.05 207.724 253.576 207.33L253.577 207.331L253.877 207.731C254.39 207.348 254.905 206.952 255.424 206.545L255.115 206.151L255.114 206.149C255.616 205.756 256.12 205.351 256.629 204.936L256.63 204.938L256.946 205.324C257.196 205.12 257.448 204.912 257.7 204.702L257.699 204.701C257.925 204.515 258.309 204.116 258.762 203.623L258.393 203.285C258.93 202.7 259.608 201.938 260.329 201.131L260.702 201.464L261.668 200.387L261.83 200.206L261.789 199.967C261.734 199.647 261.679 199.326 261.623 199.006L261.131 199.092H261.128C261.017 198.452 260.905 197.811 260.793 197.169H260.796L261.288 197.083C261.176 196.443 261.063 195.802 260.949 195.16L260.456 195.247C260.343 194.607 260.227 193.967 260.112 193.325H260.115L260.607 193.237C260.493 192.598 260.378 191.957 260.262 191.316L259.77 191.405H259.769C259.653 190.766 259.535 190.127 259.418 189.486H259.421L259.913 189.396C259.796 188.757 259.679 188.117 259.561 187.477L259.068 187.567H259.066C258.948 186.929 258.83 186.289 258.711 185.648H258.713L259.204 185.557C259.085 184.918 258.965 184.278 258.845 183.638L258.353 183.729H258.35C258.229 183.091 258.111 182.452 257.989 181.812L258.481 181.719C258.36 181.081 258.237 180.442 258.114 179.802L257.624 179.896H257.621C257.499 179.259 257.375 178.62 257.251 177.98H257.254L257.744 177.886C257.62 177.248 257.496 176.608 257.371 175.969L256.881 176.065H256.878C256.753 175.428 256.626 174.79 256.5 174.15H256.504L256.994 174.054C256.868 173.416 256.741 172.777 256.613 172.138L256.122 172.236C255.995 171.599 255.865 170.962 255.736 170.323H255.739L256.229 170.225C256.101 169.588 255.973 168.95 255.843 168.312L255.353 168.411H255.351C255.221 167.775 255.091 167.137 254.96 166.499H254.962L255.451 166.398C255.321 165.762 255.19 165.124 255.058 164.486L254.567 164.588H254.564C254.433 163.952 254.302 163.314 254.169 162.677L254.659 162.574C254.526 161.938 254.393 161.301 254.259 160.664L253.77 160.768H253.767C253.633 160.132 253.499 159.496 253.363 158.859H253.365L253.854 158.755C253.719 158.119 253.583 157.483 253.446 156.846L252.958 156.951H252.955C252.819 156.316 252.682 155.68 252.544 155.043H252.547L253.035 154.938C252.898 154.302 252.759 153.666 252.62 153.029L252.132 153.135C251.993 152.501 251.852 151.866 251.712 151.23H251.715L252.203 151.123C252.063 150.488 251.922 149.853 251.781 149.217L251.293 149.325H251.291C251.15 148.691 251.009 148.056 250.867 147.421H250.869L251.356 147.312C251.214 146.677 251.072 146.042 250.929 145.406L250.44 145.517H250.438C250.295 144.883 250.153 144.248 250.009 143.613L250.497 143.502C250.353 142.869 250.208 142.234 250.062 141.6L249.575 141.711H249.572C249.427 141.078 249.281 140.444 249.135 139.81H249.137L249.624 139.697C249.478 139.064 249.331 138.43 249.183 137.795L248.695 137.909H248.694C248.547 137.276 248.397 136.642 248.248 136.008H248.251L248.737 135.894C248.589 135.261 248.44 134.628 248.29 133.994L247.803 134.109H247.802C247.652 133.477 247.501 132.845 247.35 132.212H247.352L247.838 132.096C247.687 131.464 247.536 130.831 247.384 130.197L246.897 130.313H246.895C246.743 129.682 246.591 129.049 246.438 128.416H246.439L246.925 128.299C246.772 127.667 246.618 127.035 246.464 126.402L245.979 126.521H245.975C245.821 125.89 245.667 125.258 245.512 124.626H245.514L245.999 124.506C245.921 124.19 245.844 123.874 245.766 123.558L245.519 122.556L244.885 123.371L244.145 124.323L244.539 124.63L243.06 126.536L242.665 126.229L241.185 128.136L241.578 128.441L240.099 130.348L239.704 130.041L238.964 130.993L238.325 131.812L238.719 132.118L237.441 133.755L237.048 133.448L235.771 135.085L236.164 135.393L234.887 137.029L234.493 136.722L233.215 138.358L233.608 138.665L232.332 140.302L231.938 139.994L230.66 141.631L231.054 141.938L229.776 143.575L229.383 143.268L228.104 144.904L228.499 145.212L227.222 146.849L226.827 146.541L226.188 147.359L225.627 148.078L226.021 148.386L224.898 149.823L224.504 149.516L223.382 150.953L223.775 151.261L222.651 152.698L222.259 152.391L221.136 153.828L221.528 154.136L220.405 155.573L220.013 155.267L219.64 155.742C219.422 155.7 219.201 155.658 218.977 155.612L218.877 156.1C218.249 155.972 217.595 155.835 216.919 155.684L217.028 155.196C216.406 155.057 215.764 154.908 215.103 154.748L214.985 155.231C214.358 155.08 213.714 154.918 213.054 154.748L213.179 154.268C212.553 154.106 211.914 153.935 211.261 153.757L211.129 154.236C210.501 154.065 209.861 153.885 209.21 153.697L209.348 153.22C208.723 153.04 208.088 152.852 207.442 152.657L207.298 153.133C206.672 152.944 206.038 152.747 205.395 152.544L205.545 152.07C204.923 151.874 204.292 151.671 203.653 151.461L203.498 151.932C202.875 151.727 202.245 151.515 201.608 151.297L201.77 150.828C201.15 150.616 200.524 150.397 199.893 150.173L199.726 150.64C199.106 150.419 198.479 150.195 197.849 149.963L198.021 149.495C197.406 149.268 196.785 149.035 196.159 148.796L195.98 149.263H195.979C195.366 149.028 194.748 148.787 194.126 148.541L194.31 148.078C193.699 147.837 193.085 147.59 192.468 147.338L192.278 147.8C191.668 147.551 191.055 147.296 190.438 147.036L190.633 146.576C190.027 146.321 189.417 146.059 188.806 145.793L188.605 146.25C188 145.986 187.391 145.718 186.78 145.443L186.985 144.988C186.385 144.719 185.783 144.444 185.179 144.164L184.969 144.617C184.37 144.34 183.769 144.056 183.167 143.769L183.383 143.319C182.788 143.035 182.192 142.746 181.595 142.452L181.374 142.899C180.78 142.607 180.186 142.309 179.59 142.007L179.816 141.562C179.228 141.264 178.639 140.961 178.05 140.652L177.818 141.094C177.233 140.787 176.646 140.476 176.06 140.16L176.297 139.722C175.716 139.409 175.136 139.09 174.555 138.768L174.312 139.203C173.733 138.881 173.154 138.555 172.575 138.224L172.823 137.791C172.251 137.463 171.678 137.13 171.106 136.793L170.853 137.223C170.282 136.886 169.713 136.544 169.144 136.198L169.403 135.772C168.839 135.429 168.276 135.081 167.714 134.729L167.448 135.15C166.886 134.798 166.325 134.442 165.766 134.08L166.037 133.661C165.483 133.303 164.93 132.939 164.379 132.571L164.102 132.985C163.55 132.618 163 132.246 162.452 131.869L162.735 131.458C162.191 131.083 161.648 130.704 161.107 130.32L160.819 130.726C160.279 130.342 159.74 129.953 159.203 129.56L159.498 129.158C158.966 128.768 158.435 128.373 157.907 127.973L157.605 128.37C157.077 127.969 156.551 127.563 156.027 127.152L156.334 126.761C155.814 126.353 155.296 125.941 154.781 125.524L154.467 125.912C153.951 125.495 153.439 125.072 152.929 124.646L153.249 124.264C152.995 124.051 152.742 123.838 152.49 123.623L152.166 123.347L151.842 123.623C151.59 123.838 151.337 124.051 151.083 124.264L151.402 124.646C150.893 125.072 150.381 125.495 149.865 125.912L149.552 125.524C149.037 125.941 148.519 126.353 147.999 126.761L148.305 127.152C147.781 127.563 147.255 127.969 146.727 128.37L146.426 127.973C145.898 128.373 145.367 128.768 144.835 129.158L145.129 129.56C144.592 129.953 144.053 130.342 143.513 130.726L143.226 130.32C142.685 130.704 142.142 131.083 141.598 131.458L141.88 131.869C141.332 132.246 140.782 132.618 140.23 132.985L139.954 132.571C139.403 132.939 138.85 133.303 138.296 133.661L138.566 134.08C138.007 134.442 137.446 134.798 136.884 135.15L136.619 134.729C136.057 135.081 135.493 135.429 134.929 135.772L135.188 136.198C134.619 136.544 134.049 136.885 133.479 137.222L133.227 136.793C132.655 137.13 132.082 137.463 131.51 137.791L131.757 138.224C131.178 138.555 130.599 138.881 130.02 139.203L129.778 138.768C129.197 139.09 128.616 139.409 128.035 139.722L128.271 140.16C127.685 140.476 127.099 140.787 126.514 141.094L126.283 140.652C125.694 140.961 125.105 141.264 124.517 141.562L124.742 142.007C124.146 142.309 123.552 142.607 122.958 142.899L122.737 142.452C122.14 142.746 121.545 143.035 120.95 143.319L121.165 143.769C120.563 144.056 119.962 144.34 119.363 144.617L119.154 144.164C118.55 144.444 117.948 144.719 117.348 144.988L117.552 145.443C116.941 145.718 116.332 145.986 115.727 146.25L115.527 145.793C114.916 146.059 114.306 146.321 113.7 146.576L113.894 147.036C113.277 147.296 112.663 147.551 112.053 147.8L111.865 147.338C111.248 147.59 110.634 147.837 110.023 148.078L110.206 148.541C109.584 148.787 108.966 149.028 108.353 149.263L108.174 148.796C107.548 149.035 106.927 149.268 106.311 149.495L106.483 149.963C105.853 150.195 105.226 150.419 104.606 150.64L104.44 150.173C103.809 150.398 103.183 150.616 102.563 150.828L102.724 151.297C102.087 151.515 101.457 151.727 100.834 151.932L100.68 151.461C100.041 151.671 99.4104 151.874 98.7881 152.07L98.9365 152.544C98.2934 152.747 97.6593 152.944 97.0342 153.133L96.8896 152.657C96.2444 152.852 95.6089 153.04 94.9844 153.22L95.1221 153.697C94.4706 153.885 93.8308 154.065 93.2031 154.236L93.0723 153.757C92.4192 153.935 91.7797 154.106 91.1543 154.268L91.2783 154.748C90.6183 154.918 89.9742 155.08 89.3467 155.231L89.2305 154.748C88.5693 154.908 87.9269 155.057 87.3047 155.196L87.4131 155.684C86.7363 155.835 86.0825 155.972 85.4541 156.1L85.3564 155.612C85.1321 155.658 84.9102 155.7 84.6924 155.742L84.3203 155.267L83.9258 155.573L82.8027 154.137H82.8037L83.1973 153.828L82.0742 152.391L81.6797 152.699L80.5566 151.261H80.5576L80.9512 150.953L79.8281 149.516L79.4336 149.823L78.3105 148.386L78.7061 148.078L78.1445 147.359L77.5059 146.541L77.1104 146.849L75.833 145.212L76.2275 144.904L74.9502 143.268L74.5566 143.575H74.5557L73.2783 141.938L73.6729 141.631L72.3955 139.994L72 140.302L70.7236 138.665L71.1172 138.358L69.8398 136.722L69.4453 137.029L68.168 135.392L68.5625 135.085L67.2852 133.448L66.8906 133.755L65.6133 132.118L66.0068 131.812L65.3682 130.993L64.6289 130.041L64.2334 130.348L62.7539 128.441L63.1484 128.136L61.668 126.229L61.2725 126.536L59.793 124.63L60.1875 124.323L59.4473 123.371L58.8145 122.556L58.5674 123.558C58.4893 123.874 58.4117 124.19 58.334 124.506L58.8193 124.626H58.8203C58.6648 125.258 58.5114 125.89 58.3574 126.521H58.3545L57.8691 126.402C57.7147 127.035 57.5612 127.667 57.4082 128.299L57.8936 128.416H57.8945C57.7412 129.049 57.5903 129.682 57.4385 130.313H57.4355L56.9502 130.197C56.7979 130.831 56.6459 131.464 56.4951 132.096L56.9814 132.212H56.9834C56.8324 132.845 56.6808 133.477 56.5312 134.109H56.5303L56.0439 133.994C55.894 134.628 55.7452 135.262 55.5967 135.895L56.083 136.009H56.0859C55.9371 136.643 55.787 137.276 55.6396 137.909H55.6387L55.1523 137.796C55.0046 138.43 54.8572 139.064 54.7109 139.697L55.1982 139.811H55.2002C55.0536 140.445 54.9078 141.079 54.7627 141.712H54.7607L54.2734 141.6C54.128 142.235 53.9828 142.869 53.8389 143.503L54.3262 143.613H54.3271C54.1828 144.248 54.0412 144.883 53.8984 145.517H53.8955L53.4082 145.407C53.2649 146.043 53.1223 146.678 52.9805 147.312L53.4688 147.421H53.4697C53.3276 148.057 53.1865 148.692 53.0459 149.326H53.0439L52.5566 149.218C52.4156 149.854 52.2752 150.489 52.1357 151.124L52.624 151.231H52.626C52.4862 151.867 52.3443 152.501 52.2061 153.136L51.7178 153.03C51.579 153.667 51.441 154.303 51.3037 154.938L51.793 155.044H51.7949C51.6573 155.681 51.519 156.317 51.3828 156.952H51.3818L50.8936 156.848C50.757 157.485 50.6213 158.121 50.4863 158.757L50.9746 158.86H50.9756C50.8403 159.497 50.7071 160.134 50.5732 160.77H50.5713L50.082 160.666C49.9478 161.303 49.8144 161.94 49.6816 162.576L50.1709 162.679C50.0378 163.316 49.908 163.954 49.7764 164.59H49.7734L49.2842 164.488C49.1522 165.126 49.0212 165.764 48.8906 166.4L49.3799 166.501H49.3809C49.25 167.139 49.1196 167.776 48.9902 168.413L48.5 168.313C48.3703 168.952 48.2415 169.59 48.1133 170.227L48.6035 170.325H48.6045C48.4759 170.964 48.3458 171.601 48.2188 172.237L47.7295 172.14C47.6019 172.779 47.4747 173.418 47.3486 174.056L47.8389 174.152H47.8408C47.7144 174.792 47.5878 175.43 47.4629 176.067L46.9717 175.971C46.8464 176.61 46.7224 177.25 46.5986 177.888L47.0889 177.982H47.0898C46.9658 178.622 46.8433 179.261 46.7207 179.898H46.7188L46.2275 179.804C46.1045 180.443 45.9828 181.083 45.8613 181.721L46.3525 181.814C46.2307 182.454 46.1116 183.093 45.9912 183.731H45.9893L45.498 183.639C45.3773 184.279 45.257 184.919 45.1377 185.558L45.6289 185.649H45.6299C45.5103 186.29 45.3926 186.93 45.2744 187.568H45.2725L44.7803 187.478C44.6617 188.118 44.5448 188.758 44.4277 189.397L44.9189 189.487H44.9209C44.8035 190.128 44.6862 190.768 44.5703 191.407H44.5693L44.0771 191.317C43.9609 191.958 43.8453 192.599 43.7305 193.238L44.2227 193.326H44.2246C44.1094 193.968 43.9936 194.608 43.8799 195.248L43.3877 195.16C43.2736 195.802 43.1595 196.443 43.0469 197.083L43.54 197.17H43.541C43.4281 197.811 43.3155 198.452 43.2041 199.092H43.2031L42.7109 199.006L42.5439 199.967L42.5029 200.204L42.6631 200.384C42.9838 200.745 43.3093 201.112 43.625 201.467L43.998 201.135C44.7153 201.941 45.3953 202.704 45.9355 203.288H45.9365L45.5693 203.627C46.0238 204.119 46.4082 204.516 46.6328 204.701V204.702C46.8847 204.912 47.1357 205.12 47.3857 205.325L47.7021 204.938L47.7031 204.937C48.2112 205.353 48.7158 205.757 49.2168 206.151L49.2158 206.153L48.9062 206.547C49.4248 206.955 49.9403 207.35 50.4531 207.734L50.7529 207.334V207.333C51.2787 207.727 51.8024 208.107 52.3232 208.476V208.478L52.0342 208.886C52.5733 209.267 53.1104 209.636 53.6465 209.991L53.9229 209.575L53.9238 209.572C54.4695 209.934 55.0128 210.283 55.5566 210.617V210.618L55.2959 211.045C55.8586 211.39 56.4211 211.721 56.9844 212.038L57.2295 211.603V211.601C57.7991 211.921 58.3697 212.225 58.9414 212.516L58.9404 212.519L58.7139 212.964C59.3016 213.262 59.8917 213.545 60.4844 213.812L60.6904 213.357L60.6914 213.354C61.284 213.621 61.8792 213.872 62.4785 214.108L62.4775 214.112L62.2939 214.577C62.9048 214.818 63.5202 215.042 64.1406 215.251L64.2998 214.776V214.773C64.9121 214.979 65.5294 215.169 66.1533 215.344V215.348L66.0186 215.829C66.6471 216.005 67.2824 216.165 67.9248 216.31L68.0352 215.821V215.818C68.6621 215.959 69.2958 216.087 69.9385 216.198V216.199L69.8535 216.692C70.4926 216.803 71.1397 216.898 71.7959 216.979L71.8574 216.483V216.482C72.4915 216.561 73.1344 216.624 73.7871 216.676V216.679L73.748 217.177C74.3909 217.227 75.0431 217.265 75.7051 217.289L75.7236 216.79V216.786C76.3606 216.81 77.007 216.823 77.6641 216.822V216.824L77.665 217.324C77.9893 217.324 78.3162 217.321 78.6455 217.314H78.6514C78.9968 217.304 79.3415 217.29 79.6855 217.272L79.6611 216.773L79.6602 216.771C80.3433 216.736 81.0235 216.688 81.7012 216.628L81.7021 216.632L81.7461 217.13C82.4334 217.069 83.1183 216.995 83.7998 216.909L83.7373 216.413L83.7363 216.411C84.4143 216.326 85.0894 216.227 85.7617 216.117L85.7627 216.12L85.8438 216.613C86.524 216.502 87.2017 216.378 87.876 216.243L87.7773 215.753L87.7764 215.749C88.4459 215.615 89.1127 215.47 89.7764 215.312L89.7773 215.314L89.8926 215.802C90.5621 215.643 91.2283 215.472 91.8916 215.291L91.7607 214.809L91.7598 214.807C92.4179 214.627 93.0726 214.436 93.7246 214.234L93.7256 214.237L93.873 214.715C94.5301 214.512 95.1844 214.299 95.835 214.075L95.6719 213.603L95.6709 213.601C96.3162 213.379 96.9586 213.148 97.5977 212.907L97.5986 212.909L97.7744 213.377C98.4169 213.134 99.0564 212.881 99.6924 212.62L99.5029 212.158L99.501 212.155C100.132 211.896 100.759 211.629 101.384 211.352L101.385 211.354L101.588 211.811C102.215 211.532 102.839 211.245 103.46 210.949L103.244 210.498L103.243 210.497C103.859 210.204 104.471 209.901 105.08 209.592L105.082 209.595L105.308 210.04C105.919 209.73 106.528 209.412 107.133 209.086L106.896 208.646L106.895 208.644C107.495 208.32 108.092 207.99 108.686 207.652L108.687 207.653L108.935 208.088C109.53 207.749 110.123 207.403 110.712 207.051L110.455 206.622L110.453 206.619C111.038 206.269 111.621 205.913 112.199 205.55L112.2 205.552L112.466 205.976C113.046 205.611 113.624 205.24 114.197 204.864L113.923 204.446L113.922 204.444C114.492 204.07 115.059 203.69 115.623 203.305L115.624 203.307L115.906 203.72C116.472 203.333 117.035 202.941 117.594 202.544L117.304 202.137L117.303 202.136C117.859 201.74 118.412 201.339 118.961 200.935L118.962 200.936L119.259 201.339C119.811 200.932 120.359 200.521 120.903 200.105L120.601 199.708L120.599 199.706C121.142 199.292 121.682 198.874 122.218 198.452L122.219 198.453L122.528 198.847C123.067 198.422 123.602 197.994 124.133 197.562L123.817 197.175L123.816 197.174C124.347 196.743 124.874 196.309 125.396 195.872L125.397 195.873L125.718 196.257C126.244 195.817 126.767 195.375 127.285 194.93L126.959 194.55C127.478 194.104 127.992 193.655 128.503 193.205L128.504 193.206L128.835 193.581C129.35 193.127 129.86 192.671 130.367 192.214L130.032 191.843L130.031 191.842C130.52 191.401 131.006 190.959 131.487 190.515L131.544 190.462L131.884 190.829C132.388 190.363 132.888 189.896 133.384 189.428L133.041 189.064L133.038 189.062C133.536 188.592 134.03 188.121 134.52 187.649L134.521 187.651L134.869 188.012C135.363 187.536 135.853 187.059 136.339 186.582L135.988 186.225L135.987 186.224C136.476 185.743 136.962 185.264 137.442 184.784L137.796 185.138C138.282 184.651 138.764 184.166 139.241 183.681L138.885 183.33L138.884 183.329C139.366 182.839 139.842 182.35 140.314 181.862L140.316 181.864L140.675 182.212C141.154 181.717 141.629 181.224 142.098 180.733L141.736 180.389L141.734 180.387C142.209 179.889 142.679 179.394 143.144 178.901L143.146 178.903L143.51 179.246L144.208 178.503L144.222 178.488L144.234 178.473L144.904 177.634L144.514 177.321L145.854 175.643L146.245 175.955L147.586 174.276L147.195 173.965L147.194 173.964L148.535 172.286L148.926 172.598L150.267 170.919L149.876 170.607L151.216 168.928L151.217 168.929L151.607 169.241L152.156 168.552L152.166 168.563L152.175 168.551L152.726 169.241L153.116 168.929V168.928L154.456 170.607H154.457L154.066 170.919L155.407 172.598L155.797 172.286ZM151.94 167.582L152.076 167.691L151.887 167.844V167.582H151.94ZM152.446 167.582V167.844L152.255 167.69L152.393 167.582H152.446ZM265.854 121.515L265.831 121.526L265.827 121.519L265.853 121.513L265.854 121.515Z" fill="black" stroke="black" stroke-dasharray="2 2"/>
<path d="M220.546 76.2695C220.746 76.8839 220.92 77.5037 221.066 78.127L220.581 78.2412C220.726 78.8563 220.843 79.4752 220.932 80.0938L221.425 80.0225C221.517 80.662 221.579 81.3023 221.61 81.9414L221.112 81.9658C221.128 82.2796 221.136 82.5937 221.136 82.9062C221.136 83.2453 221.128 83.5816 221.114 83.915L221.613 83.9355C221.584 84.6315 221.523 85.3156 221.436 85.9873L220.941 85.9238C220.853 86.5981 220.736 87.2589 220.59 87.9053L221.076 88.0146C220.923 88.6919 220.74 89.3535 220.528 89.999L220.056 89.8447C219.845 90.4875 219.604 91.1131 219.336 91.7207L219.792 91.9219C219.513 92.5544 219.204 93.1676 218.868 93.7607L218.435 93.5156C218.103 94.1009 217.743 94.666 217.357 95.209L217.763 95.498C217.364 96.0591 216.938 96.598 216.486 97.1123L216.111 96.7832C215.669 97.2862 215.201 97.7655 214.71 98.2197L215.049 98.5859C214.545 99.0515 214.018 99.4916 213.468 99.9043L213.169 99.5049C212.635 99.9052 212.079 100.279 211.503 100.626L211.76 101.053C211.175 101.405 210.569 101.728 209.944 102.023L209.731 101.573C209.13 101.857 208.511 102.114 207.875 102.342L208.042 102.811C207.401 103.04 206.744 103.24 206.072 103.41L205.951 102.927C205.308 103.09 204.649 103.224 203.979 103.329L204.055 103.821C203.385 103.926 202.702 104.003 202.009 104.05L201.976 103.553C201.809 103.564 201.642 103.572 201.474 103.58L200.969 103.598C200.646 103.605 200.325 103.605 200.007 103.599L199.997 104.096C199.333 104.082 198.679 104.041 198.037 103.972L198.091 103.476C197.447 103.406 196.816 103.309 196.197 103.186L196.099 103.674C195.45 103.544 194.815 103.388 194.194 103.203L194.336 102.726C193.718 102.542 193.115 102.331 192.526 102.095L192.34 102.557C191.729 102.311 191.133 102.039 190.555 101.742L190.783 101.3C190.212 101.007 189.658 100.687 189.121 100.346L188.853 100.766C188.299 100.413 187.763 100.039 187.246 99.6406L187.553 99.2441C187.046 98.8528 186.557 98.4397 186.088 98.0059L185.749 98.3711C185.268 97.9265 184.807 97.4619 184.367 96.9775L184.737 96.6426C184.307 96.169 183.897 95.6761 183.508 95.167L183.11 95.4697C182.714 94.9504 182.339 94.4138 181.986 93.8623L182.406 93.5938C182.062 93.0548 181.739 92.5006 181.438 91.9336L180.996 92.166C180.69 91.5889 180.408 90.9983 180.149 90.3965L180.608 90.1992C180.356 89.6115 180.126 89.0126 179.92 88.4043L179.447 88.5635C179.238 87.9447 179.052 87.3167 178.893 86.6807L179.378 86.5596C179.222 85.9392 179.09 85.3114 178.983 84.6777L178.491 84.7598C178.383 84.1159 178.3 83.4663 178.244 82.8125L178.742 82.7705C178.715 82.4593 178.694 82.1469 178.68 81.834C178.68 81.4872 178.688 81.1414 178.706 80.7979L178.207 80.7725C178.244 80.0605 178.316 79.3556 178.424 78.6602L178.425 78.6611L178.919 78.7383C179.025 78.0526 179.166 77.3755 179.34 76.71L178.856 76.584C179.036 75.897 179.25 75.2214 179.496 74.5596L179.965 74.7344C180.206 74.0857 180.48 73.4502 180.783 72.8301L180.335 72.6104C180.646 71.9744 180.988 71.3542 181.359 70.752L181.785 71.0146C182.148 70.4261 182.539 69.8545 182.957 69.3027L182.559 69.001C182.986 68.4373 183.44 67.8938 183.919 67.3721L184.287 67.71C184.755 67.2011 185.246 66.7131 185.761 66.249L185.427 65.8779C185.951 65.405 186.499 64.9566 187.068 64.5332L187.366 64.9336C187.92 64.5216 188.494 64.1345 189.087 63.7744L188.827 63.3477C189.43 62.9815 190.052 62.6428 190.691 62.333L190.909 62.7822C191.529 62.4818 192.166 62.2092 192.817 61.9668L192.643 61.499C193.302 61.2534 193.977 61.0382 194.665 60.8545L194.794 61.3369C195.458 61.1597 196.134 61.0122 196.821 60.8975L196.739 60.4053C197.431 60.2898 198.134 60.2055 198.847 60.1553L198.882 60.6543C199.224 60.6302 199.569 60.6136 199.916 60.6055C200.229 60.6056 200.539 60.6134 200.848 60.6289L200.872 60.1309C201.521 60.1634 202.162 60.2274 202.792 60.3232L202.718 60.8174C203.341 60.9122 203.955 61.0379 204.558 61.1924L204.681 60.71C205.306 60.8703 205.921 61.0595 206.522 61.2783H206.523L206.353 61.748C206.943 61.9629 207.523 62.2057 208.089 62.4746L208.302 62.0244C208.883 62.3007 209.451 62.6022 210.004 62.9297L209.75 63.3604C210.291 63.6807 210.817 64.0249 211.328 64.3916L211.618 63.9863C212.141 64.3614 212.647 64.7589 213.137 65.1768L212.813 65.5557C213.292 65.9642 213.754 66.3933 214.198 66.8398L214.552 66.4873C215.005 66.9432 215.44 67.4181 215.856 67.9082L215.477 68.2305C215.885 68.7111 216.275 69.2076 216.645 69.7178L217.048 69.4248C217.426 69.9463 217.782 70.482 218.118 71.0293L217.693 71.29C218.024 71.8284 218.333 72.379 218.619 72.9385L219.063 72.7109C219.358 73.2851 219.628 73.8692 219.875 74.4609L219.415 74.6533C219.658 75.237 219.878 75.8285 220.072 76.4248L220.546 76.2695Z" fill="black" stroke="black" stroke-dasharray="2 2"/>
</svg>
