<svg width="725" height="107" viewBox="0 0 725 107" fill="none" xmlns="http://www.w3.org/2000/svg">
<g clip-path="url(#clip0_6181_274)">
<path d="M212.866 0C187.32 0 143.07 10.8046 142.109 55.0306C142.109 74.6943 154.883 106.147 211.905 106.147C259.084 106.147 283.646 85.4989 284.631 57.9836C286.592 27.5153 263.975 0 212.882 0H212.866ZM213.843 95.3424C182.39 95.3424 165.679 76.663 165.679 56.0382C165.679 35.4133 179.437 14.7652 211.874 14.7652C229.569 14.7652 256.1 24.5855 258.069 50.1553C261.022 80.6237 237.421 95.3656 213.843 95.3656V95.3501V95.3424Z" fill="white"/>
<path d="M552.718 45.9776C534.038 42.9781 496.703 42.9781 494.734 28.9879C492.765 17.0052 518.312 7.99881 547.819 14.0057C575.335 20.0048 580.256 28.9879 581.241 28.9879H582.225V5.99911C571.42 3.9994 562.561 0 535.046 0C507.531 0 473.125 4.99926 476.078 31.972C478.047 52.9611 507.531 57.9449 522.273 59.9446C551.757 62.9441 569.452 63.944 569.452 77.9341C569.452 92.9164 537.015 98.9233 507.531 90.9167C479.031 84.9176 472.141 74.9346 472.141 73.927L471.156 74.9268L472.141 99.8921C482.945 101.892 501.625 106.891 530.124 106.891C553.702 106.891 589.092 102.892 590.077 77.9186C591.061 59.9291 576.319 49.946 552.718 45.9466V45.9621V45.9776Z" fill="white"/>
<path d="M104.163 2.70288C105.635 15.4762 106.721 29.7299 107.023 45.0532C105.736 45.7352 104.566 46.4328 103.388 46.9288C86.3902 54.8967 72.6171 48.8045 57.9914 46.9288C49.0392 44.6734 40.2033 44.7741 32.6308 46.6266C30.1738 47.1149 27.8253 47.9132 25.6473 48.882C25.7404 32.0783 26.8177 16.538 28.5074 2.68738H0C1.78268 17.8247 2.95305 34.7291 2.95305 53.3077C2.95305 71.8864 1.78268 88.7908 0 103.928H28.4996C27.12 91.9299 26.0426 78.7613 25.7559 64.5076C28.1198 63.3373 30.3753 62.4459 32.6463 61.8569C59.5725 53.207 77.2676 73.3668 103.403 64.1123C104.574 63.8101 105.767 63.314 107.038 62.7327C106.643 77.5677 105.659 91.4416 104.178 103.913H131.694C129.919 88.7753 128.741 71.8709 128.741 53.2922C128.741 34.7136 129.911 17.8092 131.694 2.67188L104.155 2.71063L104.163 2.70288Z" fill="white"/>
<path d="M319.406 2.6875H294.883C296.627 17.724 297.782 34.6207 297.782 53.0831C297.782 71.5455 296.611 88.4499 294.883 103.479H322.321C320.577 88.4422 319.422 71.5455 319.422 53.0831C319.422 34.6207 320.592 17.7163 322.321 2.6875H319.406Z" fill="white"/>
<path d="M457.568 81.4897C450.677 89.3568 424.03 91.6122 401.413 91.6122H364.76C364.457 88.6592 364.171 85.7139 364.078 82.6678C363.566 75.7076 363.318 63.3141 363.21 55.7261C386.377 52.091 403.196 68.0033 427.022 59.586V42.3948C410.024 50.3548 396.251 44.2705 381.618 42.3948C375.278 40.7904 369.03 40.4261 363.202 40.9764C363.318 33.3884 363.558 30.9934 364.07 24.0099C364.163 20.9638 364.465 17.9178 364.752 14.9647H382.734C387.252 14.9647 391.686 14.9647 395.902 15.1508C420.372 15.7398 440.81 18.6851 458.412 28.7146V2.6875H338.508L338.523 2.703C340.283 17.8325 341.476 34.8222 341.476 53.3001C341.476 71.778 340.306 88.8607 338.523 103.905H457.444L457.568 81.482V81.4897Z" fill="white"/>
<path d="M673.696 2.6875H597.219V28.1023C597.808 27.614 598.505 26.932 599.28 26.3506C602.024 23.9944 606.357 20.9638 611.961 18.9176H612.054C613.433 18.3363 615.007 17.848 616.572 17.4527C619.812 16.5692 622.967 16.1739 625.904 16.1739C635.725 15.7786 643.506 19.0184 647.025 20.6693C647.8 30.9856 648.312 41.9065 648.312 53.5559C648.312 72.0028 647.142 88.8917 645.413 103.913H648.327V103.874H673.688V103.913H676.602C674.858 88.8917 673.703 72.0028 673.703 53.5559C673.703 41.922 674.215 30.9856 674.99 20.6693C678.532 19.0107 686.291 15.7786 696.126 16.1739C699.08 16.1739 702.219 16.5692 705.458 17.4527C707.032 17.848 708.597 18.3363 709.977 18.9176H710.07C715.674 20.9716 720.007 24.0022 722.75 26.3506C723.549 26.932 724.231 27.6295 724.812 28.1023V2.6875H673.68H673.696Z" fill="white"/>
</g>
<defs>
<clipPath id="clip0_6181_274">
<rect width="724.83" height="106.899" fill="white"/>
</clipPath>
</defs>
</svg>
