<svg width="936" height="140" viewBox="0 0 936 140" fill="none" xmlns="http://www.w3.org/2000/svg">
<path d="M274.636 0C241.674 0 184.589 13.9416 183.344 71.0022C183.344 96.3706 199.825 136.95 273.391 136.95C334.26 136.95 365.952 110.312 367.222 74.8111C369.761 35.5011 340.584 0 274.66 0H274.636ZM275.905 123.009C235.326 123.009 213.766 98.9099 213.766 72.2963C213.766 45.6827 231.517 19.0446 273.366 19.0446C296.195 19.0446 330.427 31.7166 332.966 64.7028C336.775 104.013 306.328 123.033 275.905 123.033V123.009Z" fill="black"/>
<path d="M713.109 62.1437C689.01 58.3348 640.837 58.3348 638.298 40.5842C635.758 25.373 668.72 13.9462 706.785 21.564C742.286 29.1819 748.634 40.5842 749.904 40.5842H751.173V11.4069C737.232 8.86762 725.805 3.78906 690.304 3.78906C654.803 3.78906 610.414 10.1373 614.223 44.3687C616.762 71.0068 654.803 77.3306 673.823 79.8698C711.863 83.6788 734.693 84.9484 734.693 102.699C734.693 121.719 692.843 129.337 654.803 119.18C618.032 111.562 609.145 98.89 609.145 97.6204L607.875 98.89L609.145 130.582C623.086 133.121 647.185 139.47 683.956 139.47C714.378 139.47 760.037 134.391 761.306 102.699C762.576 79.8698 743.556 67.1978 713.109 62.1193V62.1437Z" fill="black"/>
<path d="M134.387 5.03711C136.291 21.518 137.683 39.9034 138.073 59.6805C136.413 60.5595 134.899 61.4629 133.386 62.0977C111.46 72.3769 93.6848 64.5149 74.8111 62.0977C63.2623 59.1922 51.8599 59.3143 42.0935 61.707C38.9194 62.3419 35.8918 63.3673 33.0839 64.6126C33.206 42.931 34.5977 22.8853 36.7707 5.0127H0C2.29512 24.5456 3.80892 46.3493 3.80892 70.3259C3.80892 94.3026 2.29512 116.106 0 135.639H36.7707C34.9884 120.159 33.5966 103.166 33.2304 84.7803C36.2824 83.2665 39.1879 82.119 42.1179 81.3621C76.8621 70.2039 99.6912 96.2071 133.41 84.2676C134.924 83.8769 136.462 83.2421 138.098 82.4852C137.585 101.627 136.315 119.525 134.411 135.615H169.912C167.617 116.082 166.103 94.2782 166.103 70.3015C166.103 46.3248 167.617 24.5212 169.912 4.98828H134.411L134.387 5.03711Z" fill="black"/>
<path d="M412.096 4.44141H380.453C382.699 23.9255 384.189 45.8268 384.189 69.7547C384.189 93.6825 382.675 115.584 380.453 135.068H415.857C413.61 115.584 412.121 93.6825 412.121 69.7547C412.121 45.8268 413.635 23.9255 415.857 4.44141H412.096Z" fill="black"/>
<path d="M436.767 4.40332C439.037 23.9363 440.576 45.862 440.576 69.7166C440.576 93.5712 439.062 115.619 436.767 135.03H590.198V106.487H588.928C580.041 116.644 547.079 119.159 517.902 119.159H470.607C470.217 115.35 469.851 111.541 469.728 107.61C469.069 98.6253 468.752 82.6307 468.605 72.8398C498.491 68.1519 520.197 88.6859 550.937 77.8207V55.6264C529.011 65.9057 511.236 58.0436 492.362 55.6264C484.183 53.5511 476.126 53.0872 468.605 53.7952C468.752 44.0044 469.069 40.9055 469.728 31.8959C469.851 27.9649 470.241 24.0339 470.607 20.225H493.803C499.638 20.225 505.352 20.225 510.796 20.4692C542.367 21.2261 568.736 25.035 591.443 37.9756V4.37891H436.742L436.767 4.40332Z" fill="black"/>
<path d="M869.197 3.76953H770.531V36.7314C771.288 36.0965 772.192 35.2176 773.193 34.4607C776.733 31.4086 782.324 27.4776 789.551 24.8163H789.674C791.456 24.0594 793.482 23.4245 795.509 22.9118C799.684 21.7642 803.762 21.2515 807.546 21.2515C820.218 20.7388 830.253 24.9384 834.795 27.087C835.796 40.467 836.455 54.6284 836.455 69.742C836.455 93.6699 834.941 115.571 832.719 135.055H836.479V135.006H869.197V135.055H872.957C870.711 115.571 869.221 93.6699 869.221 69.742C869.221 54.6528 869.881 40.467 870.882 27.087C875.448 24.9384 885.458 20.7388 898.155 21.2515C901.964 21.2515 906.017 21.7642 910.192 22.9118C912.218 23.4245 914.245 24.0594 916.027 24.8163H916.149C923.376 27.4776 928.968 31.4086 932.508 34.4607C933.534 35.2176 934.413 36.1209 935.169 36.7314V3.76953H869.221H869.197Z" fill="black"/>
</svg>
