<svg width="973" height="803" viewBox="0 0 973 803" fill="none" xmlns="http://www.w3.org/2000/svg">
<path d="M892.76 553.278C893.356 555.341 893.954 557.4 894.553 559.455V559.456L893.018 559.902C893.616 561.959 894.216 564.011 894.817 566.06L896.352 565.609L896.353 565.608C896.957 567.668 897.562 569.724 898.169 571.776V571.777L896.636 572.23C897.243 574.285 897.851 576.335 898.461 578.382L899.993 577.926L899.994 577.925C900.607 579.981 901.221 582.034 901.836 584.082L901.835 584.083L900.304 584.543C900.92 586.596 901.537 588.644 902.155 590.688L903.686 590.226L903.687 590.225C904.308 592.278 904.93 594.328 905.553 596.373L905.552 596.374L904.022 596.84C904.647 598.891 905.273 600.937 905.899 602.979L907.428 602.511L907.429 602.51C908.058 604.56 908.688 606.606 909.319 608.648L909.318 608.649L907.791 609.121C908.424 611.17 909.059 613.215 909.694 615.255L911.221 614.78L911.223 614.779C911.86 616.826 912.498 618.87 913.138 620.908L913.137 620.909L911.611 621.388C912.253 623.434 912.896 625.477 913.54 627.515L915.064 627.033L915.065 627.032C915.711 629.077 916.358 631.117 917.006 633.152L917.005 633.153L915.481 633.638C916.132 635.682 916.783 637.722 917.436 639.758L918.958 639.27L918.959 639.269C919.613 641.31 920.269 643.348 920.925 645.381L920.924 645.382L919.402 645.872C920.061 647.914 920.721 649.952 921.382 651.984L922.902 651.49L922.903 651.489C923.566 653.528 924.23 655.563 924.895 657.593L924.893 657.594L923.373 658.091C924.04 660.13 924.709 662.164 925.378 664.194L926.896 663.694L926.897 663.693C927.569 665.73 928.24 667.761 928.913 669.788L928.912 669.789L927.396 670.293C928.071 672.329 928.747 674.362 929.425 676.389L930.941 675.882L930.942 675.881C931.622 677.914 932.302 679.943 932.983 681.968L932.982 681.969L931.467 682.479C932.151 684.512 932.836 686.541 933.521 688.565L935.036 688.052L935.037 688.051C935.725 690.082 936.414 692.108 937.104 694.13L937.103 694.131L935.59 694.647C936.282 696.678 936.975 698.704 937.669 700.725L939.181 700.205L939.182 700.204C939.878 702.233 940.576 704.257 941.274 706.276L941.273 706.277L939.762 706.799C940.462 708.826 941.164 710.849 941.866 712.866L943.376 712.341L943.377 712.34C944.082 714.366 944.789 716.388 945.495 718.404L945.493 718.405L943.984 718.934C944.693 720.957 945.403 722.976 946.113 724.99L947.621 724.458L947.622 724.457C948.336 726.481 949.05 728.501 949.765 730.515V730.516L948.258 731.051C948.975 733.071 949.692 735.086 950.41 737.096L951.916 736.558V736.557C952.639 738.579 953.361 740.596 954.085 742.608V742.609L952.58 743.15C953.305 745.167 954.031 747.178 954.757 749.184L956.261 748.64V748.639C956.992 750.659 957.723 752.673 958.455 754.683V754.684L956.953 755.231C957.686 757.244 958.42 759.251 959.154 761.253L960.655 760.703V760.702C961.395 762.72 962.135 764.732 962.876 766.739V766.74L961.376 767.293C962.118 769.304 962.861 771.31 963.604 773.31L965.102 772.753L965.103 772.752C965.85 774.766 966.598 776.774 967.347 778.776L967.346 778.777L965.849 779.337C966.599 781.346 967.35 783.35 968.102 785.348L969.599 784.785L969.6 784.784C970.355 786.793 971.111 788.796 971.867 790.794L971.866 790.795L970.37 791.36C970.495 791.691 970.621 792.023 970.746 792.354L969.733 792.431L969.854 794.024L963.563 794.501L963.442 792.907L957.151 793.383L957.272 794.978L950.98 795.453L950.86 793.859L944.569 794.336L944.69 795.93L938.399 796.406L938.278 794.812L931.987 795.288L932.107 796.882L925.817 797.358L925.696 795.765L919.405 796.241L919.526 797.835L913.234 798.311L913.114 796.717L906.823 797.193L906.943 798.787L900.653 799.264L900.532 797.67L894.241 798.146L894.361 799.739L888.07 800.216L887.95 798.622L881.659 799.099L881.78 800.692L875.488 801.168L875.368 799.575L869.077 800.051L869.197 801.645L862.906 802.121L862.786 800.527L861.161 800.65C861.09 800.073 861.019 799.494 860.947 798.916L859.361 799.113H859.358C859.09 796.953 858.819 794.789 858.545 792.621H858.548L860.134 792.42C859.861 790.259 859.584 788.094 859.305 785.926L857.719 786.131H857.717C857.439 783.972 857.157 781.809 856.873 779.642H856.875L858.46 779.434C858.177 777.274 857.891 775.111 857.602 772.943L856.017 773.155H856.016C855.727 770.997 855.437 768.836 855.143 766.67L856.728 766.454C856.435 764.296 856.139 762.134 855.84 759.969L854.256 760.188H854.255C853.957 758.031 853.657 755.871 853.354 753.707H853.354L854.938 753.485C854.636 751.328 854.331 749.167 854.023 747.003L852.44 747.228H852.438C852.131 745.072 851.822 742.913 851.51 740.75H851.513L853.095 740.522C852.784 738.367 852.47 736.206 852.153 734.043L850.571 734.274H850.569C850.254 732.121 849.937 729.963 849.616 727.802H849.618L851.2 727.567C850.881 725.413 850.559 723.255 850.234 721.093L848.653 721.33H848.651C848.328 719.177 848.003 717.021 847.675 714.86L849.257 714.62C848.93 712.467 848.599 710.309 848.267 708.148L846.687 708.391C846.356 706.239 846.02 704.085 845.685 701.926H845.687L847.267 701.68C846.932 699.528 846.594 697.372 846.254 695.213L844.675 695.462H844.673C844.334 693.311 843.994 691.156 843.65 688.998H843.652L845.231 688.747C845.06 687.671 844.888 686.593 844.716 685.515L844.222 682.421L842.007 684.637L841.97 684.674L843.073 685.776L842.943 685.797L841.895 684.748L841.857 684.785L841.793 684.851L841.735 684.923L839.918 687.215L841.171 688.208L837.536 692.792L836.284 691.8L832.649 696.385L833.902 697.378L830.269 701.962L829.016 700.969L827.198 703.262L827.191 703.271L825.293 705.7L826.552 706.684L822.753 711.545L821.494 710.561L817.696 715.422L818.955 716.405L815.157 721.267L813.897 720.282L810.1 725.143L811.359 726.127L807.561 730.986L806.302 730.003L802.503 734.863L803.763 735.848L799.964 740.708L798.705 739.725L794.907 744.585L796.166 745.568L792.368 750.43L791.108 749.445L787.311 754.306L788.569 755.289L784.771 760.15L783.512 759.166L779.714 764.026L780.973 765.011L777.175 769.871L775.916 768.888L772.117 773.748L773.377 774.732L769.578 779.592L768.319 778.608L764.521 783.469L765.78 784.452L761.982 789.313L760.723 788.329L756.925 793.19L758.184 794.174L754.386 799.035L753.126 798.051L751.83 799.708C751.165 799.578 750.489 799.444 749.805 799.305L749.486 800.87C747.561 800.479 745.564 800.052 743.497 799.591L743.845 798.031C741.922 797.602 739.939 797.142 737.899 796.65L737.524 798.204C735.595 797.739 733.615 797.245 731.588 796.725L731.985 795.178C730.062 794.684 728.095 794.164 726.088 793.618L725.669 795.157C723.737 794.632 721.766 794.086 719.762 793.513L720.201 791.977C718.281 791.427 716.328 790.855 714.345 790.261L713.886 791.791C711.961 791.214 710.007 790.617 708.027 789.997L708.505 788.473C706.591 787.874 704.651 787.255 702.688 786.615L702.192 788.134C700.275 787.509 698.335 786.866 696.375 786.202L696.888 784.688C694.984 784.044 693.059 783.381 691.117 782.699L690.587 784.207C688.679 783.538 686.754 782.85 684.812 782.145L685.358 780.643C683.465 779.954 681.556 779.249 679.633 778.525L679.069 780.02C677.176 779.308 675.269 778.58 673.349 777.834L673.928 776.345C672.045 775.613 670.149 774.864 668.242 774.1L667.647 775.583C665.767 774.829 663.875 774.057 661.974 773.271L662.585 771.795C660.718 771.022 658.841 770.234 656.956 769.43L656.329 770.898C654.463 770.102 652.589 769.29 650.707 768.463L651.351 767.001C649.497 766.186 647.637 765.355 645.771 764.51L645.11 765.965C643.26 765.127 641.404 764.274 639.543 763.405L640.219 761.958C638.384 761.102 636.544 760.231 634.7 759.346L634.009 760.784C632.177 759.905 630.341 759.012 628.502 758.103L629.211 756.671C628.299 756.22 627.386 755.766 626.473 755.308L626.472 755.307L623.627 753.872L622.902 755.295C621.008 754.332 619.112 753.353 617.214 752.358L617.956 750.944C616.079 749.961 614.201 748.961 612.322 747.945L611.562 749.352H611.562C609.692 748.341 607.823 747.314 605.953 746.272L606.73 744.878C604.879 743.847 603.029 742.8 601.179 741.738L600.383 743.123C598.538 742.064 596.695 740.989 594.854 739.899L595.667 738.525C593.842 737.445 592.019 736.35 590.199 735.239L589.367 736.602C587.55 735.493 585.736 734.37 583.925 733.23L584.776 731.878C582.981 730.748 581.19 729.603 579.402 728.443L578.532 729.783C576.747 728.625 574.967 727.45 573.19 726.261L574.079 724.935C572.317 723.754 570.559 722.559 568.807 721.349L567.897 722.661C566.146 721.451 564.399 720.226 562.659 718.985L563.588 717.685C561.86 716.452 560.139 715.205 558.425 713.942L557.478 715.229C555.762 713.965 554.054 712.686 552.354 711.392L553.32 710.122C551.631 708.837 549.951 707.536 548.278 706.221L547.289 707.477C545.614 706.16 543.949 704.826 542.292 703.479L543.3 702.24C541.654 700.901 540.016 699.547 538.389 698.178L537.36 699.398C535.73 698.027 534.109 696.64 532.499 695.237L533.548 694.034C531.948 692.64 530.359 691.231 528.78 689.807L527.709 690.992C526.127 689.564 524.555 688.122 522.996 686.663L524.088 685.496C522.538 684.047 521.001 682.582 519.476 681.102L518.363 682.246C516.834 680.762 515.317 679.262 513.812 677.746L514.945 676.622C513.451 675.116 511.969 673.595 510.502 672.059L509.346 673.161C507.873 671.619 506.414 670.063 504.97 668.49H504.971L506.148 667.409C504.714 665.847 503.294 664.269 501.889 662.676L500.691 663.731C499.282 662.133 497.888 660.518 496.509 658.888L497.728 657.857C496.358 656.239 495.004 654.604 493.667 652.954L492.427 653.959C491.085 652.303 489.757 650.632 488.448 648.944L489.712 647.966C489.062 647.128 488.416 646.285 487.774 645.439L486.499 643.758L485.226 645.44C484.596 646.272 483.962 647.1 483.324 647.924L484.588 648.901C483.305 650.558 482.005 652.199 480.69 653.825L479.45 652.821C478.14 654.442 476.813 656.049 475.472 657.64L476.691 658.667C475.341 660.268 473.977 661.855 472.597 663.426L471.397 662.373C470.021 663.94 468.63 665.492 467.226 667.028L468.404 668.105C466.992 669.651 465.566 671.181 464.126 672.696L462.968 671.596C461.531 673.108 460.08 674.606 458.616 676.088L459.753 677.21C458.282 678.7 456.797 680.175 455.301 681.635L454.187 680.493C452.693 681.95 451.188 683.393 449.671 684.82L450.765 685.981C449.239 687.417 447.702 688.838 446.154 690.244L445.082 689.063C443.538 690.466 441.982 691.854 440.417 693.228L441.47 694.429C439.894 695.811 438.309 697.178 436.714 698.53L435.681 697.312C434.089 698.66 432.489 699.995 430.879 701.314L431.89 702.549C430.268 703.878 428.638 705.193 426.999 706.493L426.008 705.242C424.373 706.538 422.73 707.82 421.08 709.087L422.052 710.354C420.387 711.631 418.716 712.895 417.037 714.144L416.084 712.861C414.409 714.106 412.728 715.337 411.04 716.553L411.973 717.848C410.27 719.074 408.56 720.286 406.845 721.483L405.932 720.175C404.219 721.37 402.501 722.551 400.777 723.718L401.673 725.04C399.935 726.216 398.193 727.379 396.446 728.526L395.569 727.189C393.821 728.337 392.069 729.47 390.312 730.589L391.17 731.936C389.401 733.062 387.629 734.174 385.854 735.271L385.016 733.912C383.234 735.013 381.449 736.099 379.662 737.171L380.483 738.54C378.686 739.618 376.887 740.681 375.087 741.729L374.283 740.349C372.471 741.404 370.657 742.444 368.843 743.47L369.629 744.859C367.801 745.892 365.973 746.91 364.146 747.913L363.377 746.514C361.541 747.521 359.705 748.514 357.87 749.491L358.62 750.9C356.764 751.889 354.908 752.863 353.055 753.821L352.321 752.403C350.464 753.364 348.609 754.309 346.757 755.239L347.474 756.667C345.589 757.613 343.706 758.543 341.828 759.458L341.129 758.023C339.245 758.941 337.365 759.844 335.49 760.73L336.173 762.175C334.27 763.075 332.372 763.959 330.479 764.827L329.813 763.375C327.902 764.252 325.997 765.113 324.099 765.958L324.748 767.417C322.829 768.271 320.918 769.11 319.015 769.932L318.382 768.465C316.447 769.3 314.52 770.119 312.603 770.921L313.218 772.395C311.271 773.209 309.334 774.006 307.408 774.786L306.809 773.306C304.866 774.093 302.935 774.863 301.017 775.615L301.601 777.104C299.625 777.878 297.662 778.633 295.714 779.372L295.148 777.879C293.177 778.627 291.22 779.357 289.278 780.068L289.827 781.567C287.849 782.292 285.887 783 283.942 783.688L283.41 782.181C281.413 782.887 279.434 783.574 277.477 784.241L277.992 785.755C275.981 786.44 273.991 787.105 272.024 787.75L271.526 786.231C269.517 786.89 267.532 787.527 265.573 788.144L266.053 789.668C264.033 790.304 262.041 790.917 260.077 791.509L259.617 789.979C257.576 790.594 255.566 791.185 253.591 791.753L254.031 793.289C251.973 793.881 249.951 794.445 247.969 794.986L247.549 793.447C245.488 794.01 243.468 794.546 241.494 795.055L241.893 796.602C239.81 797.139 237.778 797.646 235.798 798.124L235.424 796.572C233.333 797.078 231.301 797.55 229.332 797.99L229.681 799.548C227.558 800.023 225.509 800.462 223.536 800.864L223.218 799.299C222.525 799.44 221.841 799.576 221.168 799.708L219.874 798.051L218.613 799.034L214.815 794.174L216.075 793.19L212.277 788.329L211.017 789.313L207.219 784.452L208.479 783.469L204.681 778.608L203.421 779.592L199.622 774.732L200.883 773.748L197.084 768.888L195.824 769.871L192.026 765.011L193.286 764.026L189.487 759.166L188.228 760.149L184.43 755.289L185.689 754.306L181.892 749.445L180.631 750.43L176.833 745.568L178.093 744.585L174.295 739.725L173.035 740.708L169.236 735.848H169.237L170.497 734.863L166.698 730.003L165.438 730.986L161.64 726.127L162.9 725.143L159.102 720.282L157.842 721.266L154.044 716.405L155.304 715.422L151.506 710.561L150.246 711.545L146.447 706.684L147.707 705.7L145.809 703.271L145.802 703.262L143.984 700.969L142.73 701.962L139.097 697.378L140.351 696.385L136.716 691.8L135.463 692.792L131.828 688.208H131.829L133.082 687.215L131.265 684.923L131.207 684.851L131.143 684.785L131.105 684.748L130.056 685.797L129.926 685.776L131.03 684.674L130.993 684.637L128.779 682.422L128.284 685.514C128.112 686.592 127.939 687.67 127.768 688.746L129.347 688.998H129.348C129.004 691.156 128.662 693.31 128.323 695.461H128.322L126.743 695.212C126.403 697.371 126.066 699.527 125.73 701.68L127.311 701.926C126.974 704.084 126.64 706.238 126.309 708.39L124.729 708.147C124.396 710.308 124.067 712.465 123.739 714.619L125.319 714.859C124.991 717.019 124.666 719.176 124.343 721.329H124.342L122.761 721.092C122.436 723.253 122.114 725.412 121.795 727.566L123.377 727.801H123.378C123.058 729.962 122.741 732.12 122.426 734.274H122.424L120.842 734.043C120.526 736.206 120.212 738.366 119.901 740.521L121.483 740.75H121.485C121.173 742.913 120.864 745.072 120.558 747.228H120.556L118.974 747.002C118.666 749.166 118.361 751.327 118.059 753.484L119.642 753.706H119.643C119.34 755.87 119.039 758.031 118.741 760.188L117.157 759.969C116.859 762.134 116.563 764.296 116.271 766.454L117.854 766.669C117.561 768.835 117.27 770.997 116.982 773.155L115.397 772.943C115.108 775.111 114.822 777.274 114.539 779.434L116.124 779.642H116.125C115.841 781.809 115.559 783.972 115.281 786.131H115.28L113.694 785.927C113.415 788.095 113.139 790.26 112.866 792.42L114.452 792.621H114.453C114.179 794.789 113.908 796.953 113.641 799.113H113.639L112.053 798.916C111.981 799.494 111.909 800.073 111.838 800.65L110.214 800.527L110.093 802.121L103.802 801.645L103.923 800.051L97.6318 799.575L97.5107 801.168L91.2188 800.692H91.2197L91.3408 799.099L85.0498 798.622L84.9287 800.216L78.6377 799.739L78.7588 798.146L72.4678 797.67L72.3467 799.264H72.3457L66.0557 798.787L66.1768 797.193L59.8857 796.717L59.7646 798.311L53.4727 797.835H53.4736L53.5947 796.241L47.3037 795.765L47.1826 797.358H47.1816L40.8916 796.882L41.0127 795.288L34.7217 794.812L34.6006 796.406H34.5996L28.3086 795.93H28.3096L28.4307 794.336L22.1396 793.859L22.0186 795.453L15.7266 794.978H15.7275L15.8486 793.383L9.55762 792.907L9.43652 794.501H9.43555L3.14551 794.024L3.2666 792.431L2.25293 792.354C2.37833 792.023 2.5045 791.692 2.62988 791.36L1.13477 790.794L1.13281 790.793C1.88895 788.795 2.64476 786.791 3.40039 784.782L3.40234 784.783L4.89844 785.347C5.64996 783.348 6.4014 781.344 7.15234 779.335L5.6543 778.775L5.65234 778.774C6.40091 776.771 7.14955 774.763 7.89746 772.749L7.89941 772.75L9.39746 773.307C10.1402 771.306 10.8829 769.301 11.625 767.29L10.125 766.736L10.124 766.735C10.8646 764.728 11.6059 762.716 12.3457 760.698L13.8467 761.249C14.5808 759.247 15.3155 757.239 16.0488 755.226L14.5459 754.679L14.5449 754.678C15.2771 752.668 16.009 750.653 16.7402 748.633L16.7412 748.634L18.2451 749.178C18.9712 747.172 19.6967 745.16 20.4219 743.144L18.917 742.603L18.916 742.602C19.6396 740.589 20.3624 738.572 21.085 736.55L21.0859 736.551L22.5918 737.089C23.31 735.079 24.028 733.063 24.7451 731.043L23.2383 730.508L23.2363 730.507C23.9513 728.492 24.666 726.473 25.3799 724.448L25.3809 724.449L26.8887 724.981C27.5988 722.967 28.3086 720.948 29.0176 718.924L27.5088 718.396L27.5068 718.395C28.2133 716.378 28.9198 714.356 29.625 712.329L29.626 712.33L31.1367 712.855C31.8387 710.838 32.5395 708.815 33.2402 706.788L31.7295 706.266L31.7275 706.265C32.4255 704.245 33.1227 702.221 33.8193 700.191L33.8213 700.192L35.334 700.712C36.0278 698.691 36.7206 696.664 37.4131 694.634L35.8994 694.118L35.8975 694.117C36.5869 692.095 37.2758 690.069 37.9639 688.037L37.9658 688.038L39.4805 688.551C40.1661 686.527 40.8511 684.498 41.5352 682.464L40.0195 681.954L40.0176 681.953C40.6986 679.928 41.3791 677.899 42.0586 675.865L42.0605 675.866L43.5771 676.372C44.2544 674.345 44.9308 672.313 45.6064 670.276L44.0889 669.772L44.0869 669.771C44.7595 667.744 45.4315 665.712 46.1025 663.676L46.1045 663.677L47.623 664.177C48.292 662.146 48.9606 660.112 49.6279 658.072L48.1084 657.575L48.1064 657.574C48.7708 655.544 49.4341 653.509 50.0967 651.47L50.0986 651.471L51.6191 651.965C52.2797 649.932 52.9388 647.894 53.5977 645.852L52.0762 645.361L52.0742 645.36C52.7302 643.327 53.3849 641.289 54.0391 639.247L54.042 639.248L55.5645 639.736C56.2166 637.7 56.8673 635.66 57.5176 633.615L55.9941 633.131L55.9922 633.13C56.6398 631.094 57.2869 629.054 57.9326 627.009L57.9346 627.01L59.459 627.491C60.1026 625.453 60.745 623.41 61.3867 621.363L59.8613 620.885L59.8594 620.884C60.4987 618.844 61.137 616.801 61.7744 614.753L61.7764 614.754L63.3027 615.229C63.9379 613.189 64.572 611.144 65.2051 609.095L63.6777 608.623L63.6758 608.622C64.3068 606.58 64.9365 604.533 65.5654 602.482L65.5674 602.483L67.0967 602.952C67.7233 600.909 68.3482 598.862 68.9727 596.811L67.4434 596.345L67.4414 596.344C68.0641 594.298 68.686 592.249 69.3066 590.195L69.3086 590.196L70.8389 590.659C71.4568 588.614 72.0736 586.565 72.6895 584.512L71.1582 584.052L71.1562 584.051C71.7707 582.002 72.3838 579.949 72.9961 577.893L72.998 577.894L74.5312 578.35C75.1406 576.303 75.7484 574.251 76.3555 572.196L74.8223 571.744L74.8203 571.743C75.4267 569.691 76.0326 567.635 76.6367 565.574L76.6377 565.575L78.1719 566.025C78.7725 563.977 79.3723 561.924 79.9707 559.867L78.4355 559.42C79.0336 557.364 79.6299 555.305 80.2256 553.241L80.2266 553.242L81.7627 553.686C82.3547 551.635 82.9455 549.58 83.5352 547.521L81.998 547.081L81.9971 547.08C82.5864 545.023 83.1738 542.961 83.7607 540.896L83.7627 540.897L85.3008 541.335C85.8845 539.281 86.4665 537.224 87.0479 535.162L85.5098 534.728L85.5078 534.727C86.0884 532.668 86.667 530.605 87.2451 528.539L87.2471 528.54L88.7871 528.971C89.3627 526.913 89.9376 524.852 90.5107 522.787L88.9697 522.359L88.9678 522.358C89.5396 520.298 90.1094 518.234 90.6787 516.166L90.6816 516.167L92.2227 516.592C92.7901 514.531 93.357 512.466 93.9219 510.397L92.3789 509.976L92.377 509.975C92.9399 507.913 93.5011 505.848 94.0615 503.779L94.0645 503.78L95.6074 504.198C96.1667 502.134 96.7246 500.065 97.2812 497.993L95.7373 497.578L95.7354 497.577C96.2896 495.514 96.8429 493.448 97.3945 491.378L97.3965 491.379L98.9414 491.79C99.4925 489.722 100.042 487.65 100.591 485.574L99.0449 485.166L99.043 485.165C99.5884 483.101 100.134 481.033 100.677 478.962L100.678 478.963L102.224 479.368C102.767 477.296 103.308 475.22 103.849 473.141L102.302 472.739L102.301 472.738C102.837 470.673 103.372 468.604 103.906 466.532L103.907 466.533L105.455 466.932C105.989 464.858 106.522 462.781 107.054 460.701L105.505 460.306L105.503 460.305C106.031 458.236 106.558 456.164 107.084 454.088L107.086 454.089L108.636 454.481C109.161 452.407 109.685 450.33 110.207 448.249L108.656 447.859L108.654 447.858C109.175 445.786 109.693 443.709 110.211 441.63L110.213 441.631L111.765 442.018C112.281 439.943 112.796 437.864 113.31 435.782L111.757 435.399L111.755 435.398C112.267 433.322 112.778 431.242 113.287 429.158L113.289 429.159L114.842 429.539C115.349 427.463 115.856 425.384 116.36 423.302L114.807 422.926L114.805 422.925C115.309 420.844 115.812 418.76 116.313 416.673L116.314 416.674L117.869 417.047C118.368 414.971 118.864 412.891 119.359 410.808L117.805 410.438L117.804 410.437C118.299 408.355 118.791 406.27 119.283 404.182L119.286 404.183L120.842 404.549C121.332 402.469 121.821 400.387 122.309 398.301L120.751 397.937L120.749 397.936C121.235 395.853 121.72 393.768 122.203 391.679L122.206 391.68L123.764 392.04C124.005 390.995 124.246 389.95 124.487 388.903C124.726 387.868 124.965 386.833 125.203 385.799L123.645 385.44L123.643 385.439C124.118 383.371 124.59 381.306 125.06 379.242L125.062 379.243L126.621 379.599C127.092 377.53 127.56 375.463 128.025 373.399L126.466 373.047L126.464 373.046C126.931 370.976 127.395 368.907 127.856 366.842L127.858 366.843L129.419 367.191C129.881 365.121 130.341 363.053 130.798 360.988L129.236 360.643L129.235 360.642C129.694 358.569 130.149 356.498 130.603 354.43L130.604 354.431L132.166 354.772C132.62 352.701 133.07 350.633 133.519 348.566L131.956 348.228C132.406 346.152 132.854 344.078 133.299 342.007L134.862 342.343C135.307 340.271 135.75 338.201 136.189 336.134L134.626 335.801L134.625 335.8C135.067 333.721 135.506 331.646 135.942 329.572L135.943 329.573L137.508 329.903C137.944 327.829 138.378 325.757 138.81 323.688L137.244 323.361C137.678 321.281 138.107 319.203 138.535 317.128L138.536 317.129L140.102 317.452C140.53 315.376 140.956 313.302 141.379 311.23L139.812 310.91L139.811 310.909C140.235 308.828 140.658 306.75 141.077 304.674L141.078 304.675L142.646 304.991C143.065 302.913 143.482 300.836 143.896 298.763L142.329 298.449L142.327 298.448C142.743 296.365 143.158 294.285 143.568 292.208L143.569 292.209L145.138 292.52C145.549 290.439 145.958 288.361 146.364 286.285L144.795 285.979L144.793 285.978C145.201 283.893 145.606 281.812 146.008 279.733L146.01 279.734L147.579 280.038C147.982 277.955 148.383 275.875 148.78 273.798L147.21 273.498L147.208 273.497C147.607 271.411 148.004 269.328 148.397 267.248L148.398 267.249L149.97 267.547C150.364 265.462 150.756 263.381 151.145 261.302L149.573 261.008L149.571 261.007C149.962 258.92 150.349 256.835 150.734 254.754L150.736 254.755L152.309 255.045C152.695 252.959 153.078 250.875 153.458 248.795L151.886 248.508L151.884 248.507C152.266 246.418 152.645 244.332 153.021 242.249L153.023 242.25L154.597 242.535C154.974 240.447 155.349 238.362 155.721 236.28L154.146 235.999L154.145 235.998C154.518 233.907 154.89 231.82 155.258 229.735L155.259 229.736L156.834 230.015C157.203 227.925 157.568 225.839 157.932 223.756L156.356 223.48L156.355 223.479C156.72 221.388 157.082 219.299 157.441 217.213L157.443 217.214L159.02 217.485C159.38 215.395 159.737 213.307 160.092 211.223L158.516 210.954L158.514 210.953C158.87 208.859 159.224 206.769 159.575 204.682L159.577 204.683L161.153 204.947C161.505 202.855 161.854 200.766 162.2 198.681L160.623 198.419L160.622 198.418C160.97 196.323 161.316 194.231 161.658 192.142L161.659 192.143L163.236 192.401C163.579 190.308 163.92 188.218 164.258 186.131L162.68 185.876L162.679 185.875C163.018 183.778 163.355 181.684 163.688 179.593L163.689 179.594L165.269 179.846C165.603 177.752 165.935 175.661 166.264 173.573L164.685 173.324L164.684 173.323C165.014 171.224 165.343 169.128 165.668 167.036L165.669 167.037L167.249 167.282C167.575 165.187 167.897 163.096 168.218 161.008L166.638 160.766C166.949 158.735 167.259 156.707 167.565 154.683L167.597 154.473L169.178 154.712C169.495 152.615 169.81 150.521 170.122 148.432L168.541 148.195L168.54 148.194C168.854 146.093 169.164 143.994 169.473 141.899L169.474 141.9L171.056 142.133C171.365 140.034 171.67 137.938 171.974 135.847L170.392 135.617L170.391 135.616C170.696 133.514 170.998 131.415 171.298 129.319L171.299 129.32L172.882 129.547C173.182 127.446 173.48 125.349 173.775 123.255L172.191 123.032L172.189 123.031C172.486 120.928 172.78 118.829 173.071 116.733L173.072 116.734L174.656 116.954C174.948 114.851 175.238 112.752 175.524 110.656L173.94 110.439L173.938 110.438C174.226 108.335 174.511 106.236 174.793 104.141L174.795 104.142L176.38 104.354C176.663 102.249 176.944 100.148 177.222 98.0498L175.637 97.8398L175.636 97.8389C175.915 95.7357 176.19 93.6364 176.464 91.541L176.466 91.542L178.051 91.749C178.326 89.6413 178.598 87.5374 178.868 85.4375L177.282 85.2334L177.281 85.2324C177.551 83.1298 177.819 81.0312 178.084 78.9365L178.085 78.9375L179.671 79.1377C179.938 77.0275 180.202 74.9214 180.463 72.8193L178.877 72.6221L178.876 72.6211C179.138 70.5171 179.396 68.4172 179.652 66.3213L179.653 66.3223L181.24 66.5166C181.498 64.4055 181.753 62.2981 182.006 60.1953L180.419 60.0049L180.417 60.0039C180.67 57.8975 180.921 55.7953 181.169 53.6973L181.17 53.6982L182.758 53.8857C183.007 51.7753 183.254 49.6683 183.498 47.5664L181.909 47.3828L181.907 47.3818C182.152 45.2727 182.394 43.1679 182.634 41.0674L182.636 41.0684L184.225 41.249C184.465 39.1396 184.702 37.0344 184.938 34.9336L183.349 34.7559L183.348 34.7549C183.584 32.643 183.818 30.5356 184.049 28.4326L184.05 28.4336L185.639 28.6084C185.87 26.5002 186.099 24.3962 186.325 22.2969L184.736 22.125L184.735 22.124C184.963 20.0095 185.189 17.8994 185.411 15.7939L185.412 15.7949L187.002 15.9629C187.225 13.8522 187.445 11.7461 187.663 9.64453L186.073 9.47949L186.071 9.47852C186.29 7.3648 186.507 5.25575 186.721 3.15137L186.722 3.15234L188.312 3.31445C188.371 2.7422 188.429 2.17019 188.486 1.59863H190.151V0H196.372V1.59863H202.594V0H208.814V1.59863H215.035V0H221.257V1.59863H227.478V0H233.698V1.59863H239.92V0H246.141V1.59863H252.361V0H258.583V1.59863H264.804V0H271.024V1.59863H277.246V0H283.467V1.59863H289.688V0H295.909V1.59863H302.13V0H308.351V1.59863H309.154C309.053 1.86979 308.95 2.14078 308.849 2.41211L310.346 2.97363C309.602 4.95773 308.86 6.94646 308.117 8.93945H308.116L306.618 8.38086C305.879 10.3643 305.141 12.3525 304.402 14.3447L305.901 14.9004C305.165 16.8879 304.429 18.8797 303.693 20.876L302.193 20.3232C301.461 22.31 300.729 24.3015 299.998 26.2969L301.5 26.8467C300.771 28.8352 300.043 30.8281 299.315 32.8252L297.813 32.2773C297.088 34.2691 296.361 36.2653 295.637 38.2656L297.141 38.8105C296.42 40.8001 295.699 42.794 294.979 44.792L293.475 44.25C292.756 46.2453 292.038 48.2453 291.32 50.249L292.825 50.7881C292.112 52.78 291.399 54.7762 290.687 56.7764H290.686L289.18 56.2402C288.469 58.2368 287.758 60.2374 287.048 62.2422L288.555 62.7764C287.848 64.7729 287.141 66.7736 286.436 68.7783L284.927 68.2471C284.223 70.2448 283.521 72.2471 282.818 74.2529L284.327 74.7812C283.627 76.7822 282.926 78.7869 282.227 80.7959L280.718 80.2715C280.022 82.2705 279.326 84.2733 278.632 86.2803L280.143 86.8027H280.144C279.45 88.806 278.757 90.813 278.065 92.8242L276.554 92.3037C275.865 94.3065 275.176 96.3136 274.488 98.3242L276.001 98.8418C275.315 100.846 274.631 102.854 273.947 104.866H273.946L272.433 104.352C271.75 106.358 271.069 108.369 270.388 110.384L271.902 110.896C271.224 112.901 270.547 114.91 269.87 116.924L268.354 116.415C267.679 118.426 267.004 120.441 266.33 122.459L267.846 122.966C267.175 124.973 266.506 126.984 265.837 128.998L264.319 128.494C263.651 130.507 262.984 132.524 262.317 134.544L263.835 135.046C263.172 137.056 262.509 139.07 261.848 141.087L260.328 140.589C259.667 142.603 259.007 144.621 258.348 146.643L259.868 147.139C259.212 149.152 258.556 151.17 257.901 153.191H257.9L256.38 152.698C255.727 154.714 255.074 156.734 254.422 158.757L255.943 159.247H255.944C255.295 161.264 254.645 163.285 253.997 165.31L252.474 164.822C251.828 166.839 251.183 168.86 250.539 170.885L252.062 171.369H252.063C251.42 173.39 250.777 175.414 250.136 177.442L248.612 176.961C247.974 178.979 247.337 181.002 246.7 183.027L248.225 183.507C247.589 185.53 246.955 187.556 246.321 189.586H246.32L244.795 189.109C244.164 191.131 243.533 193.156 242.903 195.185L244.431 195.658C243.802 197.683 243.175 199.711 242.549 201.742L241.021 201.271C240.396 203.296 239.773 205.324 239.15 207.355L240.68 207.823C240.059 209.849 239.439 211.879 238.82 213.912L237.29 213.446C236.673 215.474 236.057 217.506 235.441 219.54L236.972 220.003C236.358 222.03 235.746 224.061 235.135 226.096L233.604 225.636C232.993 227.666 232.384 229.7 231.775 231.737L233.308 232.195C232.702 234.224 232.097 236.256 231.493 238.292H231.492L229.96 237.838C229.357 239.871 228.754 241.908 228.152 243.948L229.687 244.4C229.088 246.431 228.49 248.465 227.894 250.503L226.359 250.054C225.763 252.09 225.167 254.13 224.573 256.173L226.108 256.619C225.517 258.651 224.927 260.686 224.338 262.725L222.803 262.282C222.214 264.321 221.625 266.362 221.038 268.407L222.574 268.848C221.99 270.882 221.409 272.921 220.827 274.962H220.826L219.289 274.523C218.707 276.564 218.126 278.608 217.547 280.654L219.085 281.089C218.508 283.126 217.933 285.166 217.358 287.21L215.819 286.777C215.245 288.819 214.672 290.865 214.1 292.913L215.64 293.343C215.07 295.382 214.501 297.425 213.934 299.471L212.393 299.043C211.826 301.087 211.26 303.134 210.695 305.184L212.236 305.608H212.237C211.675 307.65 211.114 309.695 210.554 311.743H210.553L209.01 311.321C208.45 313.367 207.892 315.415 207.335 317.467L208.878 317.887C208.323 319.931 207.769 321.978 207.216 324.028H207.215L205.671 323.612C205.119 325.659 204.568 327.71 204.018 329.763L205.562 330.177H205.562C205.014 332.223 204.468 334.273 203.922 336.325H203.921L202.376 335.914C201.831 337.963 201.287 340.015 200.744 342.069L202.29 342.478H202.291C201.75 344.526 201.21 346.578 200.671 348.633H200.67L199.124 348.228L198.316 351.313L198.062 352.289L198.832 352.939C199.678 353.654 200.522 354.356 201.362 355.048L202.379 353.813V353.812C204.094 355.224 205.796 356.589 207.487 357.909V357.91L206.504 359.171C208.266 360.546 210.017 361.874 211.756 363.156L212.704 361.869V361.867C214.491 363.185 216.266 364.454 218.031 365.677V365.678L217.12 366.992C218.031 367.623 218.941 368.242 219.847 368.85C220.7 369.425 221.552 369.991 222.403 370.546L223.276 369.206V369.205C225 370.329 226.72 371.409 228.438 372.447V372.449L227.612 373.817C229.387 374.889 231.162 375.917 232.939 376.899L233.714 375.5V375.499C235.508 376.491 237.303 377.437 239.104 378.336V378.337L238.391 379.768C240.242 380.692 242.1 381.568 243.968 382.397L244.616 380.937V380.935C246.482 381.763 248.356 382.542 250.243 383.273V383.274L249.666 384.766C251.588 385.51 253.523 386.205 255.476 386.852L255.978 385.334V385.333C257.904 385.971 259.847 386.558 261.81 387.099V387.101L261.385 388.642C263.361 389.186 265.358 389.682 267.377 390.129L267.723 388.568V388.566C269.693 389.003 271.686 389.392 273.704 389.735V389.737L273.437 391.313C275.445 391.655 277.479 391.95 279.54 392.2L279.732 390.613V390.611C281.726 390.853 283.746 391.053 285.796 391.209V391.211L285.675 392.805C287.697 392.959 289.746 393.073 291.826 393.145L291.882 391.546V391.544C293.883 391.613 295.914 391.646 297.977 391.639L297.982 393.237C299 393.234 300.026 393.221 301.059 393.199H301.066L301.073 393.198C302.144 393.165 303.214 393.123 304.28 393.07L304.201 391.474L304.2 391.473C306.319 391.368 308.43 391.223 310.532 391.042L310.533 391.044L310.671 392.637C312.803 392.453 314.926 392.231 317.04 391.971L316.845 390.384L316.844 390.382C318.947 390.123 321.042 389.827 323.128 389.495L323.129 389.496L323.381 391.075C325.491 390.739 327.592 390.366 329.685 389.958L329.379 388.389L329.378 388.387C331.456 387.981 333.526 387.54 335.586 387.064L335.587 387.066L335.945 388.625C338.025 388.145 340.096 387.631 342.157 387.084L341.747 385.538L341.746 385.536C343.791 384.993 345.827 384.418 347.854 383.811L347.854 383.812L348.314 385.343C350.357 384.73 352.389 384.085 354.412 383.41L353.906 381.894C355.912 381.224 357.908 380.522 359.896 379.792L359.896 379.794L360.447 381.295C362.447 380.561 364.436 379.797 366.416 379.006L365.822 377.521L365.821 377.52C367.785 376.735 369.739 375.922 371.683 375.082L371.684 375.084L372.317 376.552C374.271 375.708 376.215 374.837 378.148 373.94L377.477 372.49L377.476 372.489C379.394 371.6 381.302 370.686 383.2 369.747L383.201 369.748L383.909 371.182C385.816 370.239 387.713 369.272 389.6 368.282L388.856 366.866L388.855 366.864C390.728 365.882 392.589 364.877 394.441 363.85L394.442 363.852L395.218 365.25C397.077 364.219 398.926 363.166 400.765 362.093L399.959 360.712C401.785 359.646 403.601 358.559 405.406 357.454L405.407 357.455L406.242 358.818C408.055 357.709 409.858 356.579 411.649 355.433L410.788 354.086L410.787 354.085C412.569 352.945 414.34 351.786 416.101 350.611L416.102 350.613L416.989 351.942C418.757 350.763 420.514 349.566 422.261 348.354L421.349 347.041L421.348 347.04C423.086 345.834 424.814 344.612 426.531 343.375L426.532 343.376L427.467 344.674C429.191 343.432 430.905 342.176 432.607 340.906L431.652 339.624L431.65 339.621C433.347 338.356 435.035 337.08 436.71 335.789L436.711 335.79L437.687 337.057C439.37 335.759 441.043 334.45 442.704 333.13L441.71 331.878L441.709 331.877C443.367 330.559 445.013 329.229 446.648 327.891L446.65 327.893L447.663 329.13C449.309 327.783 450.943 326.427 452.565 325.062L451.536 323.839L451.534 323.837C453.156 322.473 454.766 321.099 456.364 319.718L456.367 319.721L457.412 320.931C459.022 319.54 460.62 318.142 462.206 316.738L461.146 315.541L461.144 315.539C462.732 314.133 464.308 312.721 465.872 311.303L465.874 311.305L466.948 312.489C468.525 311.06 470.089 309.626 471.641 308.188L470.554 307.015L470.553 307.014C472.11 305.571 473.654 304.124 475.186 302.674L475.187 302.675L476.286 303.836C477.832 302.372 479.365 300.906 480.886 299.438L479.775 298.288L479.774 298.287C481.303 296.811 482.819 295.334 484.321 293.856L484.322 293.857L485.443 294.997C485.822 294.625 486.198 294.25 486.575 293.878C486.952 294.25 487.329 294.624 487.708 294.996L488.828 293.855C490.331 295.332 491.849 296.808 493.378 298.282V298.283L492.268 299.435C493.789 300.901 495.323 302.366 496.87 303.829L497.969 302.668L497.97 302.666C499.502 304.115 501.047 305.562 502.604 307.004L502.604 307.006L501.518 308.179C503.07 309.616 504.635 311.05 506.212 312.479L507.285 311.294L507.286 311.292C508.851 312.709 510.427 314.121 512.016 315.526L512.015 315.528L510.955 316.726C512.541 318.129 514.139 319.527 515.749 320.917L516.794 319.706L516.795 319.704C518.394 321.084 520.004 322.457 521.626 323.821L521.625 323.824L520.596 325.048C522.218 326.413 523.853 327.769 525.498 329.115L526.511 327.877L526.512 327.875C528.148 329.214 529.794 330.544 531.452 331.861V331.862L530.457 333.114C532.118 334.434 533.791 335.744 535.475 337.041L536.451 335.774V335.773C538.126 337.064 539.813 338.34 541.51 339.605L541.509 339.608L540.553 340.891C542.255 342.16 543.97 343.416 545.694 344.658L546.629 343.361V343.36C548.346 344.597 550.073 345.819 551.811 347.025V347.026L550.899 348.34C552.646 349.552 554.402 350.749 556.17 351.929L557.058 350.599V350.598C558.818 351.773 560.589 352.931 562.37 354.071V354.073L561.509 355.419C563.3 356.566 565.102 357.696 566.915 358.806L567.75 357.442V357.441C569.556 358.547 571.371 359.634 573.197 360.7V360.701L572.392 362.081C574.23 363.155 576.079 364.208 577.938 365.239L578.714 363.842V363.84C580.566 364.867 582.427 365.873 584.299 366.855V366.857L583.556 368.272C585.442 369.263 587.338 370.231 589.244 371.174L589.953 369.74V369.739C591.851 370.678 593.76 371.593 595.678 372.482V372.483L595.005 373.934C596.938 374.83 598.882 375.702 600.836 376.546L601.47 375.078V375.076C603.414 375.916 605.367 376.73 607.33 377.516V377.517L606.736 379.001C608.716 379.793 610.705 380.557 612.704 381.291L613.256 379.791V379.789C615.243 380.519 617.238 381.221 619.244 381.891L618.739 383.407C620.762 384.083 622.794 384.728 624.836 385.341L625.296 383.81V383.808C627.322 384.416 629.358 384.992 631.403 385.535V385.537L630.993 387.082C633.054 387.629 635.124 388.144 637.204 388.624L637.563 387.065V387.063C639.624 387.539 641.693 387.981 643.771 388.387V388.388L643.465 389.957C645.557 390.366 647.658 390.739 649.769 391.075L650.021 389.496V389.495C652.106 389.828 654.201 390.122 656.305 390.381V390.384L656.109 391.971C658.224 392.231 660.347 392.453 662.479 392.637L662.616 391.044V391.042C664.718 391.223 666.829 391.368 668.947 391.473V391.474L668.869 393.07C669.936 393.123 671.004 393.165 672.075 393.198L672.087 393.199C673.12 393.224 674.145 393.238 675.163 393.244L675.173 391.646V391.645C677.236 391.657 679.267 391.63 681.269 391.564L681.27 391.566L681.322 393.164C683.403 393.096 685.454 392.987 687.477 392.836L687.357 391.242L687.356 391.24C689.408 391.087 691.429 390.89 693.423 390.65L693.424 390.653L693.614 392.24C695.676 391.993 697.711 391.699 699.721 391.359L699.454 389.783L699.453 389.782C701.473 389.441 703.466 389.052 705.438 388.616L705.438 388.618L705.783 390.18C707.804 389.733 709.801 389.238 711.778 388.693L711.354 387.152L711.354 387.15C713.316 386.61 715.259 386.022 717.186 385.384L717.187 385.385L717.689 386.902C719.642 386.255 721.578 385.559 723.5 384.812L722.922 383.322L722.921 383.32C724.808 382.588 726.682 381.806 728.547 380.976L728.548 380.978L729.198 382.438C731.066 381.607 732.923 380.728 734.774 379.801L734.059 378.371L734.058 378.369C735.858 377.467 737.654 376.52 739.446 375.525L739.447 375.526L740.223 376.924C741.999 375.938 743.773 374.908 745.547 373.832L744.718 372.465L744.717 372.463C746.434 371.422 748.152 370.338 749.874 369.211L749.875 369.212L750.751 370.55C751.601 369.993 752.451 369.427 753.303 368.85C754.209 368.242 755.117 367.623 756.028 366.992L755.118 365.678L755.117 365.677C756.882 364.454 758.657 363.185 760.444 361.867L760.445 361.869L761.394 363.156C763.133 361.874 764.883 360.546 766.646 359.171L765.661 357.91L765.66 357.909C767.351 356.589 769.054 355.224 770.77 353.812L770.771 353.813L771.786 355.048C772.207 354.702 772.628 354.354 773.05 354.002L774.317 352.939L775.088 352.288L774.833 351.312L774.023 348.227L772.478 348.634H772.476C771.936 346.579 771.395 344.527 770.853 342.479H770.854L772.399 342.069C771.856 340.015 771.311 337.963 770.765 335.914L769.22 336.326H769.219C768.672 334.274 768.123 332.224 767.574 330.178H767.576L769.12 329.764C768.569 327.711 768.017 325.66 767.464 323.613L765.92 324.03H765.918C765.364 321.98 764.809 319.933 764.253 317.889H764.254L765.797 317.469C765.239 315.417 764.679 313.369 764.118 311.324L762.575 311.747C762.014 309.699 761.451 307.654 760.888 305.612H760.89L762.431 305.187C761.865 303.137 761.298 301.09 760.73 299.047L759.19 299.475H759.188C758.62 297.429 758.051 295.386 757.48 293.347H757.481L759.021 292.916C758.449 290.868 757.874 288.823 757.299 286.781L755.76 287.215H755.759C755.183 285.171 754.607 283.131 754.029 281.094L755.568 280.658C754.988 278.612 754.407 276.568 753.824 274.527L752.287 274.967H752.286C751.704 272.926 751.121 270.888 750.536 268.854L752.073 268.412C751.486 266.367 750.896 264.326 750.307 262.287L748.771 262.731H748.771C748.181 260.693 747.59 258.657 746.998 256.625H746.999L748.534 256.178C747.939 254.135 747.343 252.095 746.746 250.059L745.212 250.509H745.211C744.614 248.471 744.015 246.437 743.416 244.406H743.418L744.951 243.954C744.349 241.914 743.746 239.877 743.143 237.844L741.609 238.299H741.608C741.004 236.263 740.398 234.23 739.791 232.201H739.793L741.325 231.743C740.716 229.706 740.106 227.672 739.495 225.642L737.964 226.103H737.963C737.351 224.068 736.738 222.037 736.124 220.01L737.655 219.546C737.039 217.512 736.422 215.481 735.805 213.453L734.275 213.919H734.274C733.655 211.886 733.034 209.856 732.413 207.83H732.415L733.943 207.361C733.32 205.33 732.696 203.302 732.071 201.277L730.544 201.749H730.543C729.916 199.717 729.288 197.69 728.659 195.665H728.661L730.188 195.191C729.558 193.163 728.928 191.138 728.296 189.116L726.77 189.593H726.769C726.134 187.563 725.499 185.536 724.863 183.514H724.864L726.389 183.034C725.752 181.009 725.114 178.986 724.476 176.968L722.95 177.45C722.308 175.422 721.666 173.397 721.022 171.376L722.548 170.892C721.903 168.867 721.257 166.846 720.611 164.829L719.089 165.316H719.087C718.438 163.292 717.789 161.27 717.139 159.253H717.141L718.663 158.763C718.011 156.74 717.358 154.72 716.704 152.704L715.184 153.197H715.182C714.526 151.176 713.871 149.158 713.214 147.145H713.215L714.735 146.649C714.076 144.628 713.415 142.609 712.754 140.595L711.235 141.094H711.234C710.572 139.076 709.909 137.062 709.245 135.052L710.765 134.551C710.098 132.53 709.429 130.513 708.761 128.5L707.243 129.004C706.574 126.989 705.904 124.979 705.233 122.972L706.751 122.465C706.077 120.446 705.4 118.432 704.725 116.421L703.21 116.93H703.208C702.531 114.916 701.854 112.907 701.176 110.901H701.178L702.691 110.389C702.01 108.374 701.329 106.363 700.646 104.356L699.133 104.871H699.131C698.447 102.859 697.762 100.851 697.076 98.8467H697.077L698.59 98.3291C697.902 96.3184 697.214 94.3114 696.524 92.3086L695.013 92.8291H695.012C694.32 90.818 693.627 88.8108 692.934 86.8076L694.445 86.2842C693.751 84.2773 693.055 82.2743 692.359 80.2754L690.849 80.8008C690.149 78.7915 689.449 76.7864 688.748 74.7852H688.749L690.259 74.2568C689.556 72.2509 688.853 70.2488 688.149 68.251L686.642 68.7822H686.64C685.934 66.7772 685.227 64.7762 684.52 62.7793H684.521L686.028 62.2451C685.318 60.2404 684.608 58.2397 683.896 56.2432L682.389 56.7793C681.676 54.7787 680.963 52.7823 680.249 50.79H680.251L681.756 50.251C681.038 48.2472 680.319 46.2473 679.601 44.252L678.097 44.7939H678.096C677.376 42.7958 676.655 40.8022 675.934 38.8125H675.935L677.438 38.2676C676.714 36.2672 675.988 34.2712 675.262 32.2793L673.76 32.8262H673.758C673.03 30.829 672.302 28.8362 671.573 26.8477H671.575L673.076 26.2979C672.345 24.3024 671.614 22.311 670.882 20.3242L669.38 20.877C668.644 18.8805 667.909 16.888 667.173 14.9004L668.673 14.3457C667.935 12.3533 667.195 10.3655 666.456 8.38184L664.958 8.93945H664.956C664.213 6.94646 663.471 4.95773 662.728 2.97363H662.729L664.226 2.41211C664.124 2.14078 664.022 1.86979 663.92 1.59863H664.724V0H670.944V1.59863H677.166V0H683.387V1.59863H689.607V0H695.829V1.59863H702.05V0H708.271V1.59863H714.492V0H720.713V1.59863H726.934V0H733.155V1.59863H739.376V0H745.597V1.59863H751.818V0H758.039V1.59863H764.26V0H770.481V1.59863H776.702V0H782.923V1.59863H784.589C784.647 2.17019 784.704 2.7422 784.762 3.31445L786.353 3.15332V3.15234C786.566 5.25644 786.784 7.3651 787.003 9.47852L787.002 9.47949L785.411 9.64453C785.629 11.7461 785.85 13.8522 786.073 15.9629L787.663 15.7949V15.7939C787.886 17.8997 788.111 20.0101 788.339 22.125L786.75 22.2969C786.976 24.3961 787.206 26.5002 787.438 28.6084L789.026 28.4336V28.4326C789.258 30.5356 789.492 32.643 789.729 34.7549L789.728 34.7559L788.139 34.9336C788.374 37.0343 788.612 39.1396 788.853 41.249L790.441 41.0674L790.442 41.0664C790.682 43.1669 790.924 45.2718 791.169 47.3809L791.168 47.3818L789.58 47.5664C789.824 49.6683 790.072 51.7744 790.321 53.8848L791.908 53.6973L791.909 53.6963C792.157 55.7943 792.408 57.8966 792.661 60.0029V60.0039L791.073 60.1953C791.326 62.298 791.582 64.4047 791.841 66.5156L793.428 66.3213V66.3203C793.684 68.4165 793.942 70.5168 794.204 72.6211H794.205L792.618 72.8184C792.88 74.9204 793.145 77.0266 793.412 79.1367L794.998 78.9355V78.9346C795.263 81.0296 795.531 83.1285 795.802 85.2314V85.2324L794.216 85.4365C794.486 87.5363 794.759 89.6404 795.034 91.748L796.619 91.54L796.62 91.5391C796.894 93.6345 797.171 95.7338 797.45 97.8369L797.449 97.8379L795.864 98.0479C796.143 100.145 796.424 102.247 796.708 104.353L798.292 104.139L798.293 104.138C798.576 106.233 798.861 108.332 799.149 110.436L799.148 110.437L797.564 110.653C797.851 112.749 798.141 114.849 798.434 116.952L800.018 116.731L800.019 116.73C800.31 118.826 800.604 120.925 800.9 123.028L800.899 123.029L799.316 123.252C799.612 125.346 799.91 127.443 800.211 129.544L801.793 129.317L801.794 129.316C802.094 131.412 802.396 133.511 802.701 135.613V135.614L801.119 135.844C801.423 137.935 801.73 140.031 802.039 142.13L803.621 141.896V141.896C803.93 143.991 804.24 146.09 804.555 148.192H804.556L802.974 148.429C803.286 150.518 803.601 152.611 803.919 154.708L805.5 154.469V154.468C805.817 156.562 806.137 158.66 806.46 160.761V160.762L804.88 161.004C805.201 163.092 805.524 165.184 805.851 167.278L807.43 167.032V167.031C807.756 169.124 808.085 171.22 808.416 173.319V173.32L806.836 173.569C807.165 175.657 807.498 177.748 807.833 179.842L809.411 179.589L809.412 179.588C809.746 181.679 810.083 183.773 810.423 185.87L810.422 185.871L808.844 186.127C809.182 188.213 809.523 190.304 809.866 192.396L811.443 192.138L811.444 192.137C811.787 194.226 812.132 196.318 812.48 198.413V198.414L810.903 198.676C811.25 200.761 811.598 202.85 811.95 204.942L813.527 204.677L813.528 204.676C813.88 206.763 814.233 208.854 814.59 210.948L814.589 210.949L813.013 211.218C813.368 213.302 813.725 215.39 814.086 217.48L815.662 217.209V217.208C816.022 219.294 816.384 221.383 816.749 223.475V223.476L815.174 223.75C815.537 225.833 815.903 227.92 816.272 230.009L817.847 229.731L817.848 229.73C818.216 231.815 818.587 233.902 818.961 235.992L818.959 235.993L817.386 236.274C817.758 238.356 818.132 240.442 818.51 242.529L820.083 242.244L820.084 242.243C820.461 244.326 820.84 246.412 821.222 248.501L821.221 248.502L819.648 248.789C820.029 250.869 820.412 252.953 820.798 255.039L822.37 254.749L822.371 254.748C822.756 256.829 823.144 258.913 823.534 261L823.533 261.001L821.962 261.295C822.351 263.374 822.742 265.456 823.137 267.54L824.708 267.243V267.242C825.102 269.322 825.498 271.405 825.897 273.491L825.896 273.492L824.326 273.792C824.724 275.869 825.124 277.95 825.526 280.032L827.096 279.729L827.097 279.728C827.499 281.806 827.903 283.888 828.311 285.972L828.31 285.973L826.741 286.279C827.147 288.355 827.555 290.433 827.966 292.514L829.534 292.204L829.535 292.203C829.946 294.281 830.358 296.361 830.774 298.443V298.444L829.206 298.757C829.62 300.83 830.038 302.907 830.457 304.985L832.023 304.669L832.024 304.668C832.443 306.744 832.865 308.823 833.289 310.904V310.905L831.723 311.225C832.145 313.296 832.57 315.37 832.998 317.446L834.563 317.124V317.123C834.991 319.198 835.421 321.276 835.854 323.356H835.854L834.289 323.683C834.72 325.752 835.153 327.824 835.589 329.898L837.153 329.569V329.568C837.589 331.642 838.027 333.718 838.469 335.797H838.47L836.905 336.129C837.344 338.196 837.786 340.266 838.23 342.339L839.794 342.003V342.002C840.238 344.073 840.685 346.147 841.135 348.223V348.224L839.572 348.562C840.02 350.629 840.47 352.697 840.923 354.769L842.485 354.427V354.426C842.938 356.495 843.393 358.566 843.851 360.64V360.641L842.289 360.985C842.745 363.051 843.204 365.118 843.665 367.188L845.226 366.84L845.227 366.839C845.687 368.905 846.151 370.974 846.617 373.045L846.616 373.046L845.056 373.396C845.52 375.461 845.988 377.528 846.458 379.597L848.017 379.242L848.018 379.241C848.486 381.305 848.958 383.371 849.433 385.439L849.432 385.44L847.873 385.798C848.017 386.424 848.161 387.05 848.305 387.676L848.154 387.752L848.438 388.979C848.679 390.025 848.922 391.071 849.164 392.115L850.722 391.754L850.724 391.753C851.208 393.841 851.693 395.926 852.181 398.008L852.179 398.009L850.622 398.373C851.11 400.459 851.601 402.541 852.092 404.62L853.647 404.253L853.648 404.252C854.142 406.34 854.636 408.425 855.132 410.506V410.507L853.577 410.878C854.074 412.96 854.572 415.039 855.071 417.115L856.626 416.741V416.74C857.128 418.827 857.632 420.91 858.137 422.99V422.991L856.583 423.368C857.088 425.45 857.595 427.529 858.104 429.604L859.656 429.224L859.658 429.223C860.168 431.305 860.68 433.385 861.193 435.461L861.191 435.462L859.64 435.846C860.154 437.927 860.669 440.005 861.187 442.079L862.738 441.692L862.739 441.691C863.258 443.77 863.778 445.846 864.299 447.918L864.298 447.919L862.747 448.31C863.27 450.39 863.795 452.467 864.321 454.541L865.871 454.147L865.872 454.146C866.399 456.222 866.926 458.294 867.455 460.362L867.454 460.363L865.905 460.759C866.437 462.839 866.971 464.916 867.506 466.988L869.055 466.589V466.588C869.589 468.659 870.125 470.728 870.662 472.792V472.793L869.115 473.195C869.656 475.274 870.198 477.35 870.742 479.422L872.288 479.016L872.289 479.015C872.833 481.085 873.378 483.152 873.924 485.216L873.923 485.217L872.377 485.626C872.926 487.701 873.477 489.773 874.029 491.841L875.573 491.429L875.574 491.428C876.127 493.498 876.681 495.563 877.236 497.626L877.234 497.627L875.69 498.042C876.248 500.114 876.806 502.182 877.366 504.246L878.909 503.827L878.911 503.826C879.472 505.895 880.034 507.959 880.598 510.021L880.597 510.021L879.055 510.443C879.62 512.511 880.187 514.576 880.755 516.637L882.296 516.212L882.298 516.211C882.868 518.278 883.438 520.342 884.011 522.401L884.01 522.402L882.47 522.83C883.043 524.895 883.618 526.956 884.194 529.013L885.733 528.582L885.734 528.581C886.313 530.647 886.893 532.709 887.475 534.768L887.474 534.769L885.935 535.203C886.516 537.264 887.099 539.322 887.684 541.375L889.222 540.938L889.223 540.937C889.81 543.001 890.397 545.062 890.987 547.119L889.451 547.561C890.041 549.618 890.632 551.673 891.225 553.723L892.76 553.278ZM506.758 561.645L511.045 567.011V567.012L509.796 568.01L511.938 570.693L511.978 570.742L512.021 570.788C512.761 571.579 513.505 572.372 514.254 573.167L515.418 572.07V572.069C516.903 573.646 518.405 575.231 519.923 576.822V576.823L518.766 577.927C520.265 579.498 521.78 581.076 523.312 582.658L524.461 581.546L524.462 581.545C525.971 583.104 527.495 584.668 529.035 586.234L529.034 586.236L527.894 587.356C529.419 588.908 530.959 590.463 532.515 592.02L533.646 590.889V590.888C535.18 592.423 536.729 593.96 538.292 595.496V595.497L537.172 596.638C538.724 598.163 540.29 599.689 541.871 601.213L542.981 600.062L542.982 600.06C544.547 601.568 546.125 603.075 547.717 604.578L547.716 604.58L546.618 605.743C548.203 607.24 549.803 608.735 551.415 610.225L552.5 609.051V609.05C554.098 610.527 555.712 611.998 557.336 613.465L557.334 613.468L556.263 614.654C557.883 616.118 559.517 617.576 561.163 619.027L562.22 617.828L562.222 617.825C563.856 619.266 565.501 620.702 567.16 622.127V622.128L566.118 623.34C567.775 624.763 569.445 626.18 571.127 627.586L572.153 626.358V626.357C573.825 627.755 575.509 629.143 577.205 630.521V630.521L576.197 631.763C577.896 633.142 579.606 634.511 581.328 635.867L582.317 634.611V634.61C584.031 635.96 585.756 637.297 587.492 638.621V638.622L586.522 639.894C588.264 641.221 590.017 642.537 591.782 643.837L592.73 642.55L592.731 642.548C594.488 643.842 596.256 645.123 598.035 646.387V646.388L597.108 647.69C598.895 648.96 600.694 650.214 602.504 651.45L603.406 650.13V650.129C605.209 651.36 607.022 652.574 608.847 653.771V653.772L607.97 655.109C609.804 656.312 611.651 657.496 613.508 658.661L614.357 657.307V657.306C616.207 658.466 618.068 659.607 619.939 660.727V660.728L619.118 662.1C621.002 663.226 622.897 664.332 624.803 665.416L625.594 664.025V664.024C627.492 665.104 629.402 666.16 631.321 667.193V667.195L630.563 668.604C632.498 669.645 634.444 670.663 636.4 671.655L637.123 670.229V670.229C639.071 671.217 641.03 672.179 642.999 673.115V673.117L642.312 674.561C644.297 675.505 646.293 676.423 648.299 677.312L648.947 675.851V675.849C650.944 676.734 652.95 677.593 654.967 678.421V678.422L654.36 679.9C656.394 680.735 658.438 681.542 660.493 682.316L661.058 680.82V680.818C663.101 681.589 665.154 682.328 667.217 683.035V683.038L666.698 684.55C668.779 685.263 670.87 685.944 672.972 686.592L673.442 685.064V685.063C675.528 685.706 677.624 686.313 679.729 686.888V686.891L679.308 688.433C681.429 689.011 683.561 689.555 685.702 690.062L686.071 688.507V688.504C688.193 689.007 690.325 689.475 692.466 689.904V689.905L692.151 691.473C694.308 691.905 696.474 692.3 698.649 692.655L698.907 691.077V691.075C701.058 691.427 703.218 691.74 705.387 692.014V692.016L705.187 693.602C707.366 693.876 709.555 694.112 711.753 694.306L711.893 692.713V692.711C714.06 692.902 716.236 693.052 718.421 693.161V693.164L718.341 694.761C719.441 694.816 720.544 694.861 721.649 694.895H721.666C722.719 694.916 723.764 694.928 724.802 694.931L724.806 693.332V693.33C726.907 693.336 728.975 693.302 731.012 693.229L731.013 693.231L731.07 694.829C733.187 694.753 735.273 694.636 737.329 694.476L737.205 692.882L737.204 692.879C739.291 692.716 741.347 692.51 743.375 692.26L743.376 692.262L743.572 693.849C745.671 693.589 747.741 693.282 749.785 692.929L749.513 691.354L749.512 691.352C751.566 690.996 753.593 690.592 755.598 690.141L755.599 690.144L755.95 691.703C758.004 691.24 760.035 690.727 762.046 690.163L761.614 688.623L761.613 688.62C763.608 688.061 765.583 687.451 767.541 686.791L767.542 686.794L768.053 688.309C770.036 687.64 772.001 686.92 773.954 686.149L773.367 684.662L773.366 684.661C775.282 683.905 777.184 683.097 779.078 682.24L779.079 682.242L779.738 683.699C781.632 682.842 783.517 681.936 785.396 680.98L784.672 679.556L784.67 679.553C786.497 678.623 788.319 677.646 790.14 676.621L790.142 676.624L790.926 678.017C792.727 677.003 794.526 675.943 796.325 674.837L795.488 673.475L795.487 673.473C797.226 672.404 798.966 671.291 800.711 670.134L800.713 670.136L801.597 671.468C803.311 670.331 805.029 669.154 806.753 667.934L805.83 666.628L805.829 666.626C807.495 665.448 809.168 664.23 810.85 662.972L810.851 662.973L811.809 664.253C813.449 663.025 815.098 661.76 816.757 660.458L815.77 659.2L815.769 659.198C817.371 657.94 818.984 656.646 820.609 655.316L820.611 655.318L821.624 656.556C822.424 655.901 823.227 655.238 824.033 654.566L824.032 654.565C824.755 653.972 825.98 652.691 827.428 651.115L826.25 650.033L826.249 650.032C827.968 648.161 830.138 645.726 832.443 643.146L833.634 644.21L836.722 640.767L837.241 640.189L837.109 639.425L836.578 636.353L835.003 636.625H835C834.646 634.579 834.29 632.53 833.931 630.478H833.933L835.507 630.201C835.148 628.155 834.787 626.105 834.424 624.053L832.849 624.331C832.487 622.286 832.123 620.238 831.756 618.188H831.757L833.33 617.905C832.964 615.861 832.596 613.814 832.226 611.764L830.652 612.048H830.65C830.281 610.005 829.908 607.959 829.534 605.91H829.536L831.109 605.622C830.736 603.578 830.36 601.532 829.981 599.482L828.409 599.772H828.407C828.03 597.73 827.65 595.685 827.269 593.638H827.271L828.843 593.344C828.462 591.301 828.078 589.255 827.692 587.207L826.12 587.503C825.736 585.462 825.349 583.418 824.96 581.372L826.531 581.073C826.143 579.033 825.752 576.989 825.359 574.943L823.789 575.245H823.787C823.395 573.206 823.001 571.164 822.604 569.119H822.606L824.176 568.814C823.78 566.775 823.382 564.732 822.981 562.688L821.413 562.995H821.41C821.011 560.957 820.61 558.916 820.206 556.872H820.208L821.776 556.562C821.373 554.522 820.968 552.481 820.56 550.437L818.99 550.75C818.584 548.714 818.174 546.675 817.763 544.634H817.765L819.332 544.317C818.922 542.281 818.509 540.242 818.094 538.2L816.527 538.52H816.524C816.111 536.484 815.694 534.446 815.275 532.406H815.278L816.844 532.085C816.426 530.049 816.007 528.01 815.584 525.97L814.018 526.294H814.016C813.594 524.26 813.172 522.223 812.746 520.184H812.747L814.312 519.856C813.887 517.823 813.459 515.786 813.029 513.748L811.465 514.078H811.464C811.035 512.046 810.604 510.012 810.171 507.976H810.173L811.736 507.643C811.304 505.61 810.87 503.575 810.433 501.538L808.869 501.873H808.867C808.431 499.842 807.993 497.808 807.553 495.772H807.555L809.117 495.435C808.678 493.403 808.235 491.368 807.791 489.332L806.229 489.674H806.229C805.786 487.645 805.339 485.614 804.892 483.58H804.894L806.455 483.236C806.008 481.207 805.56 479.176 805.108 477.143L803.547 477.489H803.545C803.095 475.461 802.642 473.431 802.188 471.398H802.189L803.75 471.05C803.296 469.022 802.84 466.991 802.381 464.958L800.821 465.31H800.819C800.362 463.283 799.903 461.254 799.44 459.224H799.442L801.001 458.869C800.54 456.843 800.077 454.815 799.611 452.785L798.053 453.143H798.05C797.585 451.118 797.119 449.091 796.649 447.062H796.652L798.21 446.702C797.742 444.677 797.271 442.65 796.798 440.621L795.241 440.983H795.238C794.767 438.96 794.295 436.934 793.818 434.906H793.819L795.375 434.541C794.9 432.518 794.422 430.494 793.942 428.467L792.387 428.835H792.385C791.906 426.814 791.425 424.791 790.941 422.766H790.944L792.499 422.395C792.017 420.373 791.532 418.349 791.045 416.323L789.49 416.697H789.488C789.002 414.677 788.515 412.654 788.024 410.63H788.026L789.58 410.254C789.091 408.234 788.599 406.212 788.104 404.188L786.552 404.568H786.55C786.057 402.55 785.561 400.531 785.063 398.509H785.066L786.619 398.127C786.371 397.116 786.121 396.105 785.871 395.094L785.08 391.891L783.057 394.496L780.689 397.543L781.951 398.523L777.218 404.617L775.956 403.638L771.222 409.731L772.484 410.713L767.751 416.807L766.488 415.826L764.121 418.873L762.081 421.487L763.341 422.471L759.256 427.704L757.996 426.721L753.91 431.953L755.17 432.937L751.085 438.17L749.825 437.187L745.74 442.42L746.999 443.403L742.915 448.637L741.655 447.653L737.569 452.887L738.829 453.869L734.744 459.103L733.484 458.12L729.399 463.354L730.658 464.336L726.573 469.569L725.313 468.586L723.271 471.203L721.477 473.501L722.735 474.484L719.145 479.081L717.886 478.099L714.295 482.695L715.554 483.679L711.964 488.276L710.704 487.293L707.113 491.89L708.373 492.874L704.782 497.471L703.522 496.487L702.33 498.013C701.634 497.877 700.928 497.738 700.211 497.593L699.893 499.156C697.884 498.749 695.795 498.306 693.632 497.822L693.98 496.263C691.991 495.818 689.936 495.341 687.822 494.83L687.447 496.381C685.441 495.896 683.382 495.383 681.271 494.838L681.671 493.292C679.671 492.776 677.625 492.232 675.536 491.661L675.114 493.202C673.107 492.653 671.061 492.079 668.979 491.479L669.421 489.943C667.424 489.368 665.392 488.768 663.329 488.145L662.866 489.674C660.866 489.069 658.835 488.442 656.777 487.792L657.259 486.269C655.269 485.64 653.253 484.989 651.212 484.317L650.712 485.835C648.72 485.179 646.705 484.501 644.669 483.804L645.188 482.294C643.207 481.615 641.205 480.917 639.185 480.198L638.649 481.701C636.668 480.996 634.668 480.274 632.651 479.53L633.204 478.032C631.234 477.306 629.248 476.561 627.247 475.797L626.676 477.29C624.713 476.541 622.738 475.77 620.748 474.984L621.334 473.5C619.382 472.729 617.418 471.941 615.443 471.135L614.84 472.611C612.889 471.815 610.926 471.003 608.955 470.172L609.576 468.699C607.637 467.882 605.689 467.047 603.732 466.195L603.095 467.657C601.158 466.814 599.211 465.956 597.259 465.079L597.913 463.622C595.994 462.76 594.068 461.881 592.137 460.986L591.464 462.436C589.549 461.548 587.629 460.644 585.704 459.725L586.394 458.284C584.492 457.376 582.586 456.452 580.677 455.512L579.971 456.944C578.072 456.009 576.17 455.059 574.266 454.092L574.989 452.667C573.109 451.712 571.226 450.742 569.341 449.756L568.6 451.172C566.727 450.192 564.853 449.197 562.978 448.186L563.736 446.779C561.88 445.778 560.022 444.761 558.165 443.729L557.388 445.126C555.536 444.097 553.684 443.052 551.833 441.992L552.628 440.606C550.797 439.558 548.966 438.494 547.138 437.415L546.325 438.79C544.502 437.714 542.681 436.624 540.862 435.518L541.693 434.153C539.889 433.056 538.087 431.942 536.289 430.814L535.439 432.168C533.643 431.041 531.85 429.899 530.061 428.742L530.929 427.4C529.157 426.254 527.389 425.094 525.626 423.918L524.739 425.247C522.976 424.071 521.218 422.879 519.465 421.673L520.371 420.356C518.63 419.158 516.895 417.945 515.166 416.717L514.24 418.019C512.512 416.791 510.789 415.548 509.073 414.29L510.019 413.002C508.316 411.753 506.62 410.489 504.932 409.21L503.966 410.482C502.275 409.202 500.591 407.906 498.916 406.595L499.902 405.337C498.238 404.034 496.582 402.717 494.935 401.384L493.929 402.625C492.28 401.291 490.642 399.941 489.012 398.576L490.038 397.353C489.227 396.673 488.418 395.99 487.611 395.304L486.574 394.421L485.538 395.304C484.732 395.991 483.923 396.673 483.111 397.353L484.137 398.576C482.507 399.941 480.867 401.291 479.219 402.625L478.214 401.383C476.567 402.716 474.911 404.034 473.247 405.337L474.231 406.595C472.556 407.906 470.873 409.202 469.182 410.483L468.218 409.21C466.529 410.489 464.833 411.753 463.13 413.002L464.075 414.289C462.359 415.547 460.637 416.791 458.908 418.019L457.983 416.717C456.254 417.945 454.519 419.158 452.778 420.356L453.684 421.673C451.931 422.879 450.172 424.07 448.409 425.246L447.522 423.918C445.76 425.094 443.992 426.255 442.221 427.4L443.088 428.742C441.298 429.9 439.505 431.041 437.708 432.168L436.859 430.814C435.061 431.942 433.26 433.056 431.456 434.153L432.285 435.518C430.467 436.624 428.646 437.714 426.823 438.79L426.012 437.415C424.183 438.494 422.353 439.558 420.521 440.606L421.314 441.993C419.464 443.053 417.612 444.097 415.76 445.126L414.984 443.729C413.127 444.762 411.269 445.778 409.412 446.779L410.17 448.186C408.295 449.197 406.42 450.192 404.548 451.172L403.808 449.756C401.923 450.742 400.04 451.712 398.159 452.667L398.882 454.092C396.977 455.059 395.076 456.01 393.178 456.944L392.472 455.512C390.562 456.452 388.657 457.376 386.756 458.284L387.444 459.725C385.519 460.644 383.599 461.548 381.684 462.436L381.013 460.986C379.081 461.881 377.155 462.76 375.235 463.622L375.89 465.079C373.937 465.956 371.99 466.815 370.053 467.658L369.417 466.195C367.461 467.047 365.512 467.882 363.573 468.699L364.193 470.172C362.222 471.003 360.259 471.815 358.309 472.611L357.705 471.135C355.73 471.941 353.767 472.729 351.815 473.5L352.4 474.984C350.411 475.77 348.435 476.54 346.472 477.289L345.902 475.797C343.902 476.561 341.915 477.306 339.945 478.032L340.497 479.53C338.48 480.274 336.48 480.997 334.498 481.702L333.965 480.198C331.945 480.917 329.943 481.615 327.962 482.294L328.479 483.804C326.442 484.501 324.428 485.179 322.437 485.835L321.938 484.317C319.897 484.989 317.88 485.64 315.89 486.269L316.371 487.792C314.313 488.442 312.283 489.069 310.282 489.674L309.82 488.145C307.757 488.768 305.725 489.368 303.728 489.943L304.17 491.479C302.087 492.079 300.041 492.653 298.034 493.202L297.613 491.661C295.524 492.233 293.478 492.776 291.478 493.292L291.877 494.838C289.767 495.382 287.707 495.896 285.701 496.381L285.327 494.83C283.213 495.341 281.159 495.818 279.169 496.263L279.517 497.822C277.353 498.306 275.265 498.749 273.256 499.156L272.938 497.593C272.221 497.738 271.514 497.877 270.818 498.013L269.626 496.487L268.366 497.47L264.775 492.873L266.036 491.89L262.445 487.293L261.185 488.275L257.594 483.68L258.854 482.695L255.264 478.099L254.004 479.082H254.003L250.412 474.485L251.673 473.501L249.878 471.203L247.835 468.586L246.574 469.57L242.489 464.336L243.75 463.354L239.665 458.12L238.404 459.104L234.318 453.87L235.579 452.887L231.494 447.653L230.234 448.637H230.233L226.148 443.403L227.409 442.42L223.324 437.187L222.063 438.17L217.979 432.938L219.238 431.953L215.153 426.721L213.893 427.703L209.808 422.47L211.068 421.487L209.025 418.87L206.661 415.826L205.397 416.807L200.664 410.712L201.927 409.731L197.193 403.638L195.931 404.617L191.197 398.523L192.46 397.543L190.093 394.496L188.068 391.891L187.277 395.094C187.028 396.105 186.779 397.116 186.53 398.127L188.083 398.509H188.084C187.587 400.531 187.09 402.55 186.598 404.568L185.045 404.188C184.551 406.212 184.06 408.234 183.57 410.254L185.124 410.63C184.634 412.654 184.147 414.677 183.661 416.697H183.66L182.105 416.324C181.619 418.35 181.133 420.374 180.651 422.396L182.207 422.766H182.208C181.725 424.791 181.244 426.815 180.766 428.836L179.209 428.468C178.729 430.494 178.253 432.519 177.778 434.542L179.334 434.907C178.858 436.935 178.386 438.962 177.915 440.985H177.913L176.356 440.622C175.884 442.651 175.414 444.679 174.946 446.704L176.504 447.063H176.506C176.037 449.093 175.57 451.12 175.106 453.145H175.104L173.547 452.787C173.082 454.817 172.619 456.845 172.158 458.871L173.717 459.226C173.255 461.256 172.798 463.285 172.341 465.312H172.34L170.78 464.961C170.322 466.994 169.866 469.024 169.412 471.053L170.973 471.401H170.975C170.52 473.434 170.068 475.464 169.618 477.492H169.617L168.056 477.146C167.605 479.18 167.157 481.211 166.711 483.24L168.272 483.584C167.826 485.617 167.38 487.648 166.938 489.677L165.376 489.337C164.932 491.373 164.491 493.408 164.052 495.439L165.614 495.777H165.615C165.175 497.813 164.739 499.847 164.304 501.878H164.302L162.738 501.543C162.302 503.58 161.868 505.615 161.437 507.647L163 507.979H163.001C162.568 510.016 162.138 512.051 161.71 514.083H161.709L160.145 513.754C159.715 515.792 159.289 517.829 158.864 519.862L160.429 520.188C160.003 522.228 159.581 524.265 159.16 526.3H159.159L157.594 525.976C157.172 528.016 156.751 530.055 156.334 532.091L157.9 532.412H157.901C157.483 534.452 157.067 536.49 156.653 538.525H156.652L155.086 538.207C154.671 540.249 154.258 542.288 153.848 544.324L155.415 544.64H155.416C155.005 546.681 154.595 548.719 154.188 550.755L152.621 550.443C152.213 552.487 151.808 554.529 151.405 556.567L152.974 556.878C152.57 558.921 152.169 560.963 151.77 563.001H151.769L150.199 562.693C149.799 564.738 149.401 566.781 149.005 568.82L150.574 569.125H150.576C150.179 571.17 149.784 573.212 149.392 575.251H149.391L147.82 574.949C147.427 576.995 147.037 579.039 146.648 581.079L148.219 581.378C147.829 583.424 147.442 585.468 147.057 587.509L145.485 587.212C145.099 589.26 144.716 591.306 144.334 593.349L145.905 593.643H145.906C145.524 595.69 145.144 597.735 144.767 599.777H144.765L143.192 599.486C142.813 601.535 142.437 603.582 142.062 605.626L143.636 605.914H143.637C143.261 607.963 142.888 610.009 142.518 612.052H142.517L140.943 611.767C140.572 613.816 140.202 615.864 139.835 617.908L141.409 618.19C141.041 620.241 140.675 622.288 140.312 624.333L138.737 624.054C138.373 626.106 138.01 628.156 137.65 630.202L139.225 630.479H139.227C138.866 632.531 138.507 634.58 138.15 636.626H138.148L136.573 636.352C136.395 637.376 136.217 638.4 136.04 639.423L135.908 640.183L136.421 640.758C137.447 641.912 138.488 643.085 139.497 644.221L140.691 643.159L140.692 643.158C142.986 645.738 145.16 648.174 146.888 650.043H146.889L145.715 651.129C147.177 652.711 148.411 653.989 149.127 654.575C149.928 655.244 150.727 655.905 151.522 656.557L152.535 655.32L152.536 655.318C154.161 656.65 155.772 657.945 157.374 659.204V659.206L156.386 660.464C158.044 661.767 159.692 663.033 161.332 664.261L162.29 662.981V662.98C163.972 664.24 165.644 665.459 167.31 666.638V666.639L166.386 667.943C168.11 669.164 169.828 670.342 171.543 671.479L172.427 670.146V670.145C174.172 671.301 175.913 672.414 177.652 673.482V673.483L176.815 674.847C178.615 675.952 180.414 677.011 182.216 678.024L183 676.63V676.628C184.821 677.652 186.645 678.628 188.473 679.556L188.472 679.559L187.747 680.983C189.627 681.938 191.513 682.843 193.408 683.698L194.065 682.24V682.239C195.96 683.094 197.864 683.899 199.78 684.653V684.654L199.194 686.142C201.147 686.911 203.114 687.629 205.098 688.296L205.607 686.78V686.778C207.566 687.437 209.541 688.044 211.536 688.602V688.605L211.105 690.145C213.116 690.707 215.147 691.219 217.201 691.681L217.552 690.121V690.118C219.556 690.569 221.583 690.973 223.638 691.328V691.33L223.365 692.905C225.409 693.259 227.479 693.565 229.578 693.825L229.775 692.238V692.236C231.803 692.488 233.858 692.694 235.944 692.858V692.861L235.819 694.455C237.875 694.617 239.96 694.736 242.077 694.814L242.137 693.217V693.216C244.173 693.291 246.241 693.326 248.342 693.324L248.343 693.327L248.345 694.926C249.382 694.925 250.427 694.914 251.479 694.895H251.499C252.604 694.861 253.707 694.816 254.808 694.761L254.728 693.164L254.727 693.161C256.911 693.052 259.087 692.902 261.255 692.711L261.256 692.712L261.396 694.305C263.594 694.111 265.783 693.876 267.962 693.601L267.762 692.014L267.761 692.012C269.929 691.738 272.089 691.424 274.239 691.072L274.24 691.075L274.498 692.652C276.673 692.296 278.839 691.901 280.995 691.469L280.681 689.901L280.68 689.9C282.821 689.471 284.952 689.001 287.074 688.498L287.075 688.501L287.444 690.057C289.586 689.549 291.717 689.004 293.838 688.425L293.417 686.883L293.416 686.88C295.521 686.305 297.616 685.697 299.701 685.054L299.702 685.055L300.174 686.583C302.275 685.935 304.365 685.252 306.445 684.538L305.927 683.026L305.926 683.023C307.988 682.315 310.041 681.576 312.084 680.805L312.085 680.807L312.649 682.303C314.704 681.527 316.749 680.721 318.782 679.886L318.174 678.406C320.19 677.578 322.196 676.718 324.191 675.832L324.192 675.834L324.842 677.296C326.848 676.406 328.843 675.487 330.827 674.542L330.14 673.099L330.139 673.097C332.107 672.159 334.066 671.197 336.014 670.208L336.015 670.209L336.738 671.635C338.694 670.642 340.639 669.624 342.573 668.582L341.815 667.174L341.814 667.172C343.734 666.138 345.643 665.081 347.541 664.001L347.542 664.003L348.333 665.393C350.238 664.309 352.133 663.202 354.017 662.075L353.195 660.703C355.066 659.583 356.925 658.441 358.774 657.28L358.776 657.282L359.626 658.636C361.483 657.471 363.329 656.286 365.163 655.083L364.286 653.746L364.285 653.744C366.109 652.548 367.924 651.335 369.726 650.104L370.628 651.424C372.437 650.187 374.236 648.933 376.022 647.664L375.097 646.36L375.096 646.359C376.875 645.095 378.642 643.816 380.398 642.521L380.399 642.522L381.348 643.81C383.112 642.509 384.866 641.195 386.607 639.867L385.638 638.596L385.637 638.595C387.373 637.271 389.098 635.933 390.812 634.584L390.812 634.585L391.802 635.841C393.524 634.484 395.234 633.115 396.933 631.736L395.925 630.495L395.924 630.494C397.62 629.117 399.304 627.729 400.976 626.332L400.977 626.333L402.002 627.56C403.684 626.154 405.354 624.739 407.012 623.315L405.97 622.103C407.629 620.678 409.273 619.242 410.907 617.802L410.91 617.805L411.967 619.004C413.613 617.553 415.247 616.095 416.868 614.632L415.797 613.445L415.794 613.442C417.419 611.976 419.032 610.505 420.631 609.028L420.632 609.029L421.717 610.204C423.329 608.715 424.929 607.22 426.515 605.724L425.417 604.561L425.415 604.559C427.007 603.056 428.585 601.549 430.15 600.041L430.153 600.044L431.263 601.195C432.844 599.672 434.411 598.148 435.964 596.623L434.844 595.481L434.842 595.479C436.406 593.944 437.956 592.409 439.491 590.875L439.492 590.876L440.622 592.007C442.178 590.452 443.719 588.898 445.245 587.347L444.105 586.226L444.104 586.224C445.644 584.658 447.17 583.095 448.68 581.536L448.682 581.538L449.83 582.65C451.362 581.069 452.878 579.493 454.378 577.923L453.222 576.818L453.221 576.817C454.74 575.227 456.242 573.643 457.729 572.067L457.729 572.068L458.893 573.166C459.642 572.372 460.386 571.579 461.127 570.789L461.171 570.743L461.21 570.693L463.354 568.01L462.104 567.012L462.104 567.011L466.39 561.644L466.391 561.645L467.64 562.643L471.927 557.274L470.677 556.277L474.963 550.908L474.964 550.909L476.213 551.907L480.5 546.54L479.25 545.542L483.536 540.174L483.537 540.175L484.786 541.172L486.544 538.97L486.574 539.007L486.604 538.969L488.363 541.172L489.611 540.175L493.898 545.541V545.542L492.649 546.54L496.937 551.907L498.185 550.909L502.472 556.276V556.277L501.223 557.274L505.509 562.643L506.758 561.645ZM485.852 535.869L486.287 536.218L485.68 536.704V535.869H485.852ZM487.469 535.869V536.703L486.86 536.218L487.297 535.869H487.469ZM850.107 388.562L850.033 388.6L850.02 388.572L850.103 388.553L850.107 388.562Z" fill="black" stroke="black" stroke-width="3.19765" stroke-dasharray="6.4 6.4"/>
<path d="M700.578 232.515C701.518 234.351 702.385 236.218 703.174 238.11H703.175L701.699 238.726C702.478 240.592 703.179 242.483 703.8 244.39L705.319 243.895C705.959 245.859 706.514 247.841 706.982 249.834L705.428 250.2C705.89 252.167 706.265 254.143 706.549 256.121L708.131 255.894C708.425 257.939 708.623 259.987 708.724 262.031L707.128 262.11C707.177 263.114 707.202 264.116 707.202 265.115C707.202 266.199 707.18 267.275 707.135 268.342L708.73 268.408C708.636 270.634 708.447 272.822 708.166 274.97L706.582 274.764C706.3 276.92 705.923 279.034 705.457 281.102L707.016 281.453C706.527 283.618 705.942 285.735 705.265 287.799L703.747 287.302C703.073 289.357 702.305 291.359 701.448 293.302L702.91 293.945C702.018 295.969 701.032 297.931 699.956 299.828L698.566 299.04C697.505 300.912 696.354 302.719 695.119 304.456L696.422 305.381C695.146 307.176 693.782 308.897 692.336 310.542L691.137 309.488C689.723 311.097 688.227 312.63 686.656 314.083L687.741 315.256C686.131 316.745 684.444 318.152 682.685 319.472L681.726 318.193C680.019 319.473 678.242 320.669 676.399 321.777L677.223 323.146C675.352 324.272 673.415 325.308 671.419 326.251L670.736 324.808C668.813 325.716 666.832 326.536 664.798 327.263L665.335 328.768C663.286 329.5 661.185 330.139 659.037 330.683L658.646 329.135C656.588 329.656 654.484 330.087 652.34 330.423L652.586 332C650.443 332.336 648.26 332.581 646.042 332.729L645.936 331.135C645.137 331.188 644.333 331.229 643.524 331.257L642.714 331.28C641.681 331.302 640.656 331.302 639.64 331.281L639.607 332.878C637.483 332.834 635.394 332.7 633.342 332.479L633.514 330.891C631.455 330.669 629.435 330.358 627.456 329.963L627.144 331.529C625.069 331.115 623.038 330.611 621.052 330.021L621.507 328.49C619.531 327.903 617.601 327.229 615.72 326.474L615.124 327.956C613.17 327.172 611.266 326.302 609.416 325.352L610.146 323.931C608.321 322.993 606.548 321.975 604.831 320.883L603.973 322.23C602.202 321.104 600.49 319.9 598.838 318.625L599.814 317.36C598.193 316.109 596.631 314.786 595.131 313.398L594.046 314.571C592.509 313.15 591.036 311.662 589.629 310.113L590.812 309.039C589.437 307.525 588.125 305.951 586.882 304.323L585.61 305.293C584.341 303.631 583.141 301.915 582.013 300.15L583.359 299.29C582.257 297.566 581.224 295.795 580.264 293.981L578.853 294.729C577.875 292.882 576.969 290.994 576.141 289.068L577.609 288.438C576.801 286.558 576.066 284.643 575.408 282.697L573.895 283.208C573.226 281.23 572.634 279.221 572.123 277.188L573.674 276.799C573.175 274.815 572.755 272.807 572.415 270.78L570.839 271.044C570.494 268.985 570.231 266.908 570.051 264.817L571.643 264.682C571.556 263.67 571.489 262.656 571.442 261.639C571.443 260.546 571.472 259.457 571.527 258.374L569.931 258.292C570.034 256.276 570.23 254.279 570.513 252.304L570.627 251.542L572.206 251.787C572.546 249.595 572.998 247.431 573.555 245.303L572.008 244.898C572.582 242.702 573.266 240.543 574.054 238.428L575.553 238.985C576.325 236.911 577.199 234.879 578.17 232.896L576.733 232.193C577.729 230.159 578.824 228.176 580.012 226.25L581.372 227.09C582.532 225.208 583.784 223.38 585.12 221.616L583.846 220.651C585.211 218.849 586.662 217.111 588.194 215.442L589.372 216.523C590.867 214.896 592.44 213.338 594.086 211.854L593.016 210.666C594.503 209.325 596.048 208.044 597.647 206.827L598.264 206.363L599.218 207.646C600.988 206.328 602.825 205.09 604.722 203.938L603.892 202.571C605.819 201.401 607.808 200.317 609.852 199.326L610.549 200.766C612.531 199.805 614.567 198.933 616.649 198.158L616.092 196.66L616.091 196.659C618.2 195.874 620.358 195.186 622.558 194.599L622.97 196.144C625.092 195.577 627.256 195.107 629.454 194.74L629.19 193.164C631.404 192.795 633.652 192.527 635.931 192.366L636.043 193.96C637.139 193.883 638.243 193.831 639.353 193.806C640.351 193.806 641.343 193.831 642.329 193.881L642.408 192.285C644.483 192.389 646.53 192.598 648.546 192.904L648.307 194.483C650.3 194.786 652.263 195.188 654.191 195.683L654.587 194.134C656.588 194.647 658.553 195.256 660.478 195.956L659.932 197.459C661.821 198.146 663.672 198.922 665.481 199.782L666.167 198.339C668.026 199.223 669.842 200.192 671.609 201.239L670.796 202.614C672.524 203.639 674.207 204.741 675.841 205.913L676.771 204.614C678.442 205.813 680.061 207.085 681.626 208.421L680.589 209.636C682.119 210.942 683.597 212.312 685.018 213.74L686.149 212.613C687.6 214.071 688.992 215.587 690.323 217.154L689.107 218.188C690.413 219.725 691.657 221.313 692.839 222.944L694.133 222.006C695.341 223.674 696.484 225.386 697.558 227.137L696.195 227.973C697.251 229.694 698.24 231.454 699.156 233.243L700.578 232.515Z" fill="black" stroke="black" stroke-width="3.19765" stroke-dasharray="6.4 6.4"/>
</svg>
